<?xml version="1.0" encoding="iso-8859-1"?>
<!-- Generator: Adobe Illustrator 19.0.0, SVG Export Plug-In . SVG Version: 6.00 Build 0)  -->
<svg version="1.1" id="Capa_1" xmlns="http://www.w3.org/2000/svg" xmlns:xlink="http://www.w3.org/1999/xlink" x="0px" y="0px"
	 viewBox="0 0 512 512" style="enable-background:new 0 0 512 512;" xml:space="preserve">
<path style="fill:#FB403F;" d="M391.79,438.81v65.69c0,4.14-3.36,7.5-7.5,7.5H127.71c-4.14,0-7.5-3.36-7.5-7.5v-65.69
	c0-45.69,37.17-82.87,82.86-82.87h105.86C354.62,355.94,391.79,393.12,391.79,438.81z"/>
<path style="fill:#C21C1C;" d="M308.928,355.944h-28.333c45.689,0,82.861,37.172,82.861,82.862V504.5c0,4.142-3.357,7.5-7.5,7.5
	h28.333c4.143,0,7.5-3.358,7.5-7.5v-65.694C391.789,393.116,354.617,355.944,308.928,355.944z"/>
<path style="fill:#484655;" d="M394.087,150.515c-0.707-3.499-3.782-6.015-7.352-6.015h-261.47c-3.569,0-6.645,2.516-7.352,6.015
	c-7.507,37.149-7.507,74.822,0,111.971c0.707,3.499,3.782,6.015,7.352,6.015h261.471c3.569,0,6.645-2.516,7.352-6.015
	C401.594,225.336,401.594,187.664,394.087,150.515z"/>
<path style="fill:#78D6D1;" d="M369.29,471.67V512H142.71v-40.33c0-4.15,3.36-7.5,7.5-7.5h3.96v-15.71
	c0-9.89,4.33-19.21,11.89-25.57c7.56-6.37,17.49-9.05,27.22-7.37L256,426.36l62.72-10.84c9.73-1.68,19.66,1,27.22,7.37
	c7.56,6.36,11.89,15.68,11.89,25.57v15.71h3.96C365.93,464.17,369.29,467.52,369.29,471.67z"/>
<g>
	<path style="fill:#FA9E3E;" d="M213.904,267.729v90.668c0,23.249,18.847,42.096,42.096,42.096l0,0
		c23.249,0,42.096-18.847,42.096-42.096v-90.668H213.904z"/>
	<path style="fill:#FA9E3E;" d="M125.839,223.99h49.369v56.61h-49.369c-15.632,0-28.305-12.673-28.305-28.305
		S110.207,223.99,125.839,223.99z"/>
	<path style="fill:#FA9E3E;" d="M386.161,223.99h-49.369v56.61h49.369c15.632,0,28.305-12.673,28.305-28.305
		S401.793,223.99,386.161,223.99z"/>
</g>
<path style="fill:#FFB56B;" d="M256,342.79L256,342.79c-61.919,0-112.115-50.195-112.115-112.115V117.281h224.229v113.394
	C368.115,292.595,317.919,342.79,256,342.79z"/>
<path style="fill:#EF9245;" d="M344.781,117.281v125.062c0,53.578-41.949,97.354-94.795,100.286
	c1.992,0.105,3.996,0.161,6.014,0.161l0,0c61.919,0,112.115-50.195,112.115-112.115V117.281H344.781z"/>
<g>
	<path style="fill:#19303F;" d="M310.323,226.962c-4.143,0-7.5-3.358-7.5-7.5v-2c0-4.142,3.357-7.5,7.5-7.5s7.5,3.358,7.5,7.5v2
		C317.823,223.605,314.466,226.962,310.323,226.962z"/>
	<path style="fill:#19303F;" d="M201.677,226.962c-4.143,0-7.5-3.358-7.5-7.5v-2c0-4.142,3.357-7.5,7.5-7.5s7.5,3.358,7.5,7.5v2
		C209.177,223.605,205.819,226.962,201.677,226.962z"/>
	<path style="fill:#19303F;" d="M256,288.484c-13.493,0-26.142-6.631-33.833-17.739c-2.358-3.405-1.509-8.077,1.896-10.435
		c3.403-2.358,8.078-1.509,10.435,1.896c4.891,7.063,12.928,11.279,21.501,11.279s16.61-4.216,21.501-11.279
		c2.357-3.405,7.029-4.254,10.435-1.896c3.405,2.358,4.255,7.03,1.897,10.435C282.142,281.853,269.493,288.484,256,288.484z"/>
</g>
<path style="fill:#D69400;" d="M399.404,165.582l-37.62-133.855C356.533,13.046,339.315,0,319.91,0h-21.718
	c-6.079,0-11.997,1.734-17.114,5.015l-8.116,5.203c-10.305,6.605-23.619,6.605-33.924,0l-8.116-5.203
	C225.805,1.734,219.887,0,213.808,0h-17.347c-19.404,0-36.623,13.046-41.874,31.727l-37.62,133.855
	c-0.635,2.26-0.175,4.688,1.243,6.559c1.418,1.872,3.63,2.971,5.978,2.971h267.996c2.348,0,4.56-1.099,5.978-2.971
	C399.579,170.27,400.039,167.842,399.404,165.582z"/>
<path style="fill:#B77A00;" d="M399.404,165.582l-37.62-133.855C356.533,13.046,339.315,0,319.91,0h-21.718
	c-1.07,0-2.131,0.073-3.187,0.179C312.79,1.784,328.102,14.302,333,31.727l37.62,133.855c0.635,2.26,0.175,4.688-1.243,6.559
	c-1.418,1.872-3.63,2.971-5.978,2.971h28.784c2.348,0,4.56-1.099,5.978-2.971C399.579,170.27,400.039,167.842,399.404,165.582z"/>
<path style="fill:#825939;" d="M399.404,165.582l-16.206-57.662c-0.653-2.323-2.384-4.19-4.651-5.017
	C344.236,90.391,300.716,83.5,256,83.5c-43.026,0-83.672,6.097-117.542,17.633c-2.338,0.796-4.134,2.693-4.803,5.07l-16.689,59.379
	c-0.635,2.26-0.175,4.688,1.243,6.559c1.418,1.872,3.63,2.971,5.978,2.971h267.996c2.348,0,4.56-1.099,5.978-2.971
	C399.579,170.27,400.039,167.842,399.404,165.582z"/>
<path style="fill:#684229;" d="M399.404,165.582l-16.206-57.662c-0.653-2.323-2.384-4.19-4.651-5.017
	c-8.749-3.191-18.103-6.011-27.917-8.45l19.99,71.128c0.635,2.26,0.175,4.688-1.243,6.559c-1.418,1.872-3.63,2.971-5.978,2.971
	h28.784c2.348,0,4.56-1.099,5.978-2.971C399.579,170.27,400.039,167.842,399.404,165.582z"/>
<g>
	<path style="fill:#FFB700;" d="M431.65,139.34c-2.313-6.121-6.871-10.976-12.836-13.669c-5.966-2.693-12.62-2.902-18.742-0.589
		c-92.907,35.105-195.239,35.104-288.145,0c-12.633-4.776-26.801,1.619-31.578,14.257c-2.313,6.122-2.104,12.778,0.589,18.743
		c2.692,5.965,7.548,10.523,13.669,12.836C146.401,190.49,200.701,200.414,256,200.414s109.599-9.924,161.392-29.495
		c6.122-2.313,10.978-6.872,13.67-12.837C433.755,152.117,433.964,145.461,431.65,139.34z"/>
	<circle style="fill:#FFB700;" cx="319.02" cy="457.33" r="13.667"/>
</g>
<path style="fill:#5B5BB2;" d="M319.024,451.167c-4.143,0-7.5-3.358-7.5-7.5v-86c0-4.142,3.357-7.5,7.5-7.5s7.5,3.358,7.5,7.5v86
	C326.524,447.809,323.167,451.167,319.024,451.167z"/>
<circle style="fill:#FFB700;" cx="192.97" cy="457.33" r="13.667"/>
<path style="fill:#5B5BB2;" d="M192.976,451.167c-4.143,0-7.5-3.358-7.5-7.5v-86c0-4.142,3.357-7.5,7.5-7.5s7.5,3.358,7.5,7.5v86
	C200.476,447.809,197.118,451.167,192.976,451.167z"/>
<path style="fill:#3D5868;" d="M283.667,485.833h-55.334c-4.143,0-7.5-3.358-7.5-7.5s3.357-7.5,7.5-7.5h55.334
	c4.143,0,7.5,3.358,7.5,7.5S287.81,485.833,283.667,485.833z"/>
<g>
	<path style="fill:#19303F;" d="M319.024,478.5c-11.671,0-21.166-9.495-21.166-21.167c0-11.671,9.495-21.167,21.166-21.167
		c11.672,0,21.167,9.496,21.167,21.167C340.191,469.005,330.696,478.5,319.024,478.5z M319.024,451.167
		c-3.4,0-6.166,2.767-6.166,6.167s2.766,6.167,6.166,6.167s6.167-2.766,6.167-6.167S322.425,451.167,319.024,451.167z"/>
	<path style="fill:#19303F;" d="M192.976,478.5c-11.672,0-21.167-9.495-21.167-21.167c0-11.671,9.495-21.167,21.167-21.167
		c11.671,0,21.166,9.496,21.166,21.167C214.142,469.005,204.646,478.5,192.976,478.5z M192.976,451.167
		c-3.4,0-6.167,2.767-6.167,6.167s2.767,6.167,6.167,6.167s6.166-2.766,6.166-6.167S196.376,451.167,192.976,451.167z"/>
</g>
<g>
</g>
<g>
</g>
<g>
</g>
<g>
</g>
<g>
</g>
<g>
</g>
<g>
</g>
<g>
</g>
<g>
</g>
<g>
</g>
<g>
</g>
<g>
</g>
<g>
</g>
<g>
</g>
<g>
</g>
</svg>
