<?xml version="1.0" encoding="iso-8859-1"?>
<!-- Generator: Adobe Illustrator 19.0.0, SVG Export Plug-In . SVG Version: 6.00 Build 0)  -->
<svg version="1.1" id="Capa_1" xmlns="http://www.w3.org/2000/svg" xmlns:xlink="http://www.w3.org/1999/xlink" x="0px" y="0px"
	 viewBox="0 0 512 512" style="enable-background:new 0 0 512 512;" xml:space="preserve">
<path style="fill:#EF9AD3;" d="M307.006,355.942H201.15c-45.691,0-82.863,37.172-82.863,82.863V504.5c0,4.142,3.358,7.5,7.5,7.5
	h256.581c4.142,0,7.5-3.358,7.5-7.5v-65.695C389.868,393.114,352.695,355.942,307.006,355.942z"/>
<path style="fill:#D67ABC;" d="M307.006,355.942h-27c45.691,0,82.862,37.172,82.862,82.863V504.5c0,4.142-3.358,7.5-7.5,7.5h27
	c4.142,0,7.5-3.358,7.5-7.5v-65.695C389.868,393.114,352.695,355.942,307.006,355.942z"/>
<path style="fill:#BA7F52;" d="M144.427,7.226c-10.622-2.022-20.225,1.983-27.034,11.278c-4.904,6.694-7.275,14.557-8.289,17.914
	c-0.106,0.352-0.191,0.642-0.261,0.857c-0.908,2.171-0.761,4.723,0.428,6.769c2.271,3.906,5.731,4.003,11.465,4.164
	c9.766,0.274,35.707,1.004,41.537,13.602c0.857,1.852,2.432,3.275,4.361,3.94c0.795,0.274,1.621,0.41,2.446,0.41
	c1.177,0,2.349-0.277,3.417-0.824l13.331-6.823c2.506-1.283,4.082-3.861,4.082-6.676C189.91,40.305,168.391,11.788,144.427,7.226z
	 M108.884,37.177c0.094-0.229,0.188-0.401,0.253-0.523C109.046,36.825,108.961,36.999,108.884,37.177z"/>
<path style="fill:#825939;" d="M438.742,70.951c-1.788-18.435-19.607-43.81-55.389-58.943c-22.82-9.651-61.505-18.445-116.219-5.519
	C213.32,19.202,155.382,50.125,94.93,98.397c-18.967,15.145-26.413,35.745-19.432,53.762c4.238,10.938,13.231,19.802,26.007,25.634
	c10.938,4.993,24.504,7.568,39.643,7.568c3.01,0,6.085-0.102,9.21-0.307c73.224-4.8,208.916-7.023,210.277-7.045
	c0.822-0.013,1.636-0.161,2.409-0.438c20.727-7.425,40.834-22.769,55.163-42.097C433.488,114.867,440.78,91.951,438.742,70.951z"/>
<path style="fill:#684229;" d="M438.742,70.951c-1.788-18.435-19.607-43.81-55.389-58.943
	c-17.195-7.272-43.401-14.052-78.681-11.426c20.509,1.615,36.704,6.4,48.588,11.426c35.78,15.133,53.601,40.507,55.389,58.943
	c2.037,21-5.255,43.917-20.533,64.526c-14.328,19.327-34.435,34.67-55.163,42.097c-0.773,0.277-1.587,0.425-2.409,0.438
	c-1.318,0.021-128.593,2.106-203.138,6.596c4.405,0.501,8.996,0.755,13.743,0.755c3.01,0,6.085-0.102,9.21-0.307
	c73.224-4.8,208.916-7.023,210.277-7.045c0.822-0.013,1.636-0.161,2.409-0.438c20.727-7.425,40.834-22.769,55.163-42.097
	C433.488,114.867,440.78,91.951,438.742,70.951z"/>
<path style="fill:#FA9E3E;" d="M340.102,365.293c-0.792-1.956-2.371-3.489-4.35-4.222c-9.201-3.404-18.872-5.13-28.745-5.13h-3.332
	v-88.216c0-4.142-3.357-7.5-7.5-7.5h-84.192c-4.142,0-7.5,3.358-7.5,7.5v88.216h-3.331c-9.873,0-19.544,1.726-28.745,5.13
	c-1.98,0.732-3.559,2.265-4.35,4.222c-0.792,1.957-0.722,4.157,0.192,6.06c15.759,32.814,49.45,54.017,85.832,54.017
	c6.937,0,13.836-0.749,20.555-2.228l24.692,17.005c1.277,0.879,2.764,1.323,4.254,1.323c1.292,0,2.587-0.333,3.75-1.005
	c2.506-1.447,3.956-4.206,3.727-7.091l-2.029-25.466c13.232-9.367,23.857-21.925,30.883-36.555
	C340.823,369.45,340.893,367.25,340.102,365.293z"/>
<path style="fill:#FFB700;" d="M146.292,145.287c-1.991-1.405-4.54-1.755-6.837-0.939c-2.562,0.91-6.933,3.02-13.31,6.136
	l-3.063,1.493c-2.585,1.254-4.226,3.874-4.226,6.748v8.479c-12.794,4.279-21.79,16.328-21.79,30.34c0,1.717,0.138,3.425,0.412,5.111
	c-9.225,8.206-14.603,20.012-14.603,32.499c0,23.975,19.505,43.481,43.481,43.481c6.594,0,12.939-1.443,18.86-4.29
	c2.598-1.249,4.25-3.877,4.25-6.759V151.416C149.466,148.979,148.282,146.693,146.292,145.287z"/>
<path style="fill:#FA9E3E;" d="M123.915,223.986h49.37v56.611h-49.37c-15.632,0-28.305-12.673-28.305-28.305
	S108.282,223.986,123.915,223.986z"/>
<path style="fill:#FFB700;" d="M410.194,182.119c2.705-4.774,4.176-10.216,4.176-15.793c0-15.063-10.461-27.729-24.5-31.112v-17.298
	c0-2.04-0.831-3.992-2.302-5.406c-1.47-1.415-3.466-2.17-5.492-2.088l-1.263,0.049c-5.293,0.207-10.766,0.422-15.034,0.656
	c-3.977,0.219-7.089,3.506-7.089,7.489v129.642c0,2.6,1.347,5.015,3.559,6.381c6.853,4.232,14.748,6.469,22.831,6.469
	c23.976,0,43.481-19.505,43.481-43.48C428.56,203.274,421.58,190.152,410.194,182.119z"/>
<path style="fill:#FA9E3E;" d="M384.24,223.986h-49.37v56.611h49.37c15.632,0,28.305-12.673,28.305-28.305
	S399.873,223.986,384.24,223.986z"/>
<path style="fill:#FFB56B;" d="M366.188,118.615v112.061c0,30.96-12.55,58.981-32.83,79.271c-20.29,20.29-48.321,32.84-79.281,32.84
	c-0.97,0-1.93-0.01-2.89-0.04h-0.13c-0.92-0.02-1.84-0.06-2.75-0.11c-0.07,0-0.13,0-0.2-0.01h-0.04
	c-59.131-3.12-106.101-52.061-106.101-111.951v-79.261c58.311-20.7,145.152-28.01,200.892-31.45
	C351.448,119.435,359.298,118.995,366.188,118.615z"/>
<path style="fill:#EF9245;" d="M366.188,118.615v112.061c0,30.96-12.55,58.981-32.83,79.271c-20.29,20.29-48.321,32.84-79.281,32.84
	c-0.97,0-1.93-0.01-2.89-0.04h-0.13c-0.92-0.02-1.84-0.06-2.75-0.11c-0.07,0-0.13,0-0.2-0.01
	c52.821-2.95,94.751-46.721,94.751-100.291V119.965C351.448,119.435,359.298,118.995,366.188,118.615z"/>
<path style="fill:#D69400;" d="M325.774,257.152c-3.86-1.502-8.207,0.41-9.709,4.271c-1.567,4.031-4.271,6.396-7.817,6.839
	c-4.179,0.525-8.596-1.712-11.532-5.828c-13.048-18.288-26.329-23.204-42.637-15.588c-16.305-7.616-29.588-2.699-42.637,15.588
	c-2.937,4.117-7.357,6.351-11.533,5.828c-3.546-0.443-6.249-2.809-7.817-6.839c-1.502-3.86-5.847-5.774-9.708-4.271
	c-3.86,1.501-5.773,5.848-4.271,9.708c3.584,9.214,10.851,15.15,19.937,16.286c1.02,0.128,2.04,0.19,3.06,0.19
	c8.623,0,17.052-4.492,22.544-12.19c11.566-16.212,18.096-14.222,26.735-9.34c0.051,0.029,0.104,0.05,0.155,0.078
	c0.12,0.064,0.242,0.125,0.365,0.183c0.111,0.052,0.222,0.101,0.334,0.147c0.106,0.043,0.213,0.083,0.321,0.122
	c0.13,0.046,0.26,0.09,0.391,0.129c0.096,0.028,0.192,0.053,0.289,0.078c0.141,0.036,0.281,0.069,0.423,0.096
	c0.097,0.019,0.194,0.033,0.291,0.048c0.138,0.021,0.277,0.04,0.415,0.053c0.111,0.01,0.222,0.016,0.333,0.022
	c0.124,0.006,0.247,0.012,0.37,0.012c0.131,0,0.261-0.006,0.391-0.012c0.104-0.005,0.208-0.01,0.312-0.02
	c0.145-0.013,0.29-0.034,0.435-0.056c0.091-0.014,0.182-0.028,0.272-0.045c0.147-0.028,0.293-0.063,0.439-0.1
	c0.091-0.023,0.182-0.047,0.272-0.073c0.136-0.04,0.27-0.085,0.405-0.134c0.103-0.037,0.206-0.076,0.308-0.117
	c0.115-0.047,0.229-0.098,0.343-0.151c0.121-0.056,0.24-0.116,0.358-0.179c0.052-0.028,0.106-0.05,0.158-0.079
	c8.644-4.884,15.173-6.869,26.736,9.34c5.493,7.7,13.92,12.191,22.544,12.19c1.019,0,2.041-0.063,3.06-0.19
	c9.086-1.136,16.352-7.072,19.938-16.286C331.546,263,329.634,258.653,325.774,257.152z"/>
<g>
	<circle style="fill:#F0EEEE;" cx="303.584" cy="206.702" r="28.832"/>
	<circle style="fill:#F0EEEE;" cx="204.573" cy="206.702" r="28.832"/>
</g>
<g>
	<path style="fill:#19303F;" d="M303.579,243.034c-20.033,0-36.332-16.298-36.332-36.332s16.299-36.332,36.332-36.332
		c20.033,0,36.332,16.298,36.332,36.332S323.612,243.034,303.579,243.034z M303.579,185.369c-11.763,0-21.332,9.569-21.332,21.332
		c0,11.763,9.569,21.332,21.332,21.332c11.763,0,21.332-9.569,21.332-21.332C324.911,194.938,315.342,185.369,303.579,185.369z"/>
	<path style="fill:#19303F;" d="M204.576,243.034c-20.034,0-36.332-16.298-36.332-36.332s16.298-36.332,36.332-36.332
		s36.333,16.298,36.333,36.332S224.609,243.034,204.576,243.034z M204.576,185.369c-11.763,0-21.332,9.569-21.332,21.332
		c0,11.763,9.569,21.332,21.332,21.332c11.763,0,21.333-9.569,21.333-21.332C225.908,194.938,216.338,185.369,204.576,185.369z"/>
	<path style="fill:#19303F;" d="M274.739,214.202c-1.324,0-2.664-0.35-3.879-1.087c-11.45-6.936-22.115-6.937-33.566,0
		c-3.544,2.146-8.155,1.014-10.301-2.528c-2.146-3.543-1.014-8.155,2.528-10.301c16.064-9.732,33.047-9.732,49.111,0
		c3.543,2.146,4.675,6.758,2.529,10.301C279.751,212.914,277.275,214.202,274.739,214.202z"/>
</g>
<path style="fill:#684229;" d="M120.879,168.808c-2.928,0-5.709-1.725-6.916-4.592c-1.607-3.818,0.185-8.215,4.002-9.823
	c1.037-0.437,3.273-1.517,5.105-2.41l3.051-1.487c6.389-3.122,10.768-5.236,13.333-6.147
	c69.035-24.509,175.267-30.394,226.32-33.221c4.273-0.235,9.745-0.449,15.038-0.657l1.263-0.049
	c5.988-0.217,11.557-0.427,14.132-0.624c4.137-0.32,7.733,2.776,8.051,6.906c0.315,4.13-2.776,7.734-6.906,8.05
	c-2.858,0.219-8.353,0.427-14.711,0.657l-1.241,0.049c-5.234,0.205-10.647,0.417-14.799,0.645
	c-50.35,2.789-155.126,8.593-222.125,32.379c-1.955,0.695-7.627,3.466-11.769,5.49l-3.076,1.5c-2.573,1.254-4.558,2.204-5.844,2.745
	C122.836,168.619,121.849,168.808,120.879,168.808z"/>
<path style="fill:#EF9245;" d="M340.102,365.293c-0.721-1.781-2.099-3.204-3.832-3.998c-1.492-0.565-2.998-1.1-4.529-1.58
	c-0.192-0.06-0.387-0.113-0.579-0.172c-1.04-0.318-2.088-0.618-3.145-0.895c-0.342-0.09-0.686-0.17-1.029-0.256
	c-0.918-0.228-1.841-0.444-2.77-0.641c-0.413-0.087-0.827-0.169-1.241-0.25c-0.872-0.171-1.75-0.328-2.631-0.471
	c-0.449-0.073-0.898-0.145-1.349-0.21c-0.866-0.126-1.738-0.234-2.613-0.333c-0.456-0.052-0.912-0.107-1.37-0.151
	c-0.92-0.089-1.847-0.154-2.775-0.212c-0.407-0.025-0.813-0.061-1.221-0.081c-1.329-0.064-2.665-0.102-4.01-0.102h-3.332v3.453
	c12.322,3.684,23.45,10.163,32.646,18.698c1.28-2.195,2.484-4.439,3.59-6.74C340.823,369.45,340.893,367.25,340.102,365.293z"/>
<g>
</g>
<g>
</g>
<g>
</g>
<g>
</g>
<g>
</g>
<g>
</g>
<g>
</g>
<g>
</g>
<g>
</g>
<g>
</g>
<g>
</g>
<g>
</g>
<g>
</g>
<g>
</g>
<g>
</g>
</svg>
