<?xml version="1.0" encoding="iso-8859-1"?>
<!-- Generator: Adobe Illustrator 19.0.0, SVG Export Plug-In . SVG Version: 6.00 Build 0)  -->
<svg version="1.1" id="Capa_1" xmlns="http://www.w3.org/2000/svg" xmlns:xlink="http://www.w3.org/1999/xlink" x="0px" y="0px"
	 viewBox="0 0 512.001 512.001" style="enable-background:new 0 0 512.001 512.001;" xml:space="preserve">
<path style="fill:#F0EEEE;" d="M310.577,22.167C297.556,8.225,277.454,0,256,0s-41.555,8.225-54.577,22.167
	c-38.188,0.167-69.203,32.823-69.203,72.94c0,40.22,31.178,72.941,69.5,72.941c21.315,0,41.215-10.251,54.279-27.389
	c13.065,17.138,32.964,27.389,54.279,27.389c38.322,0,69.5-32.722,69.5-72.941C379.779,54.99,348.766,22.334,310.577,22.167z"/>
<g>
	<path style="fill:#D9D4D4;" d="M310.577,22.167C297.556,8.225,277.454,0,256,0c-3.947,0-7.847,0.283-11.667,0.825
		c16.943,2.4,32.285,9.965,42.91,21.343c38.188,0.167,69.202,32.823,69.202,72.94c0,36.059-25.066,66.071-57.867,71.9
		c3.828,0.686,7.74,1.042,11.701,1.042c38.322,0,69.5-32.722,69.5-72.941C379.779,54.99,348.766,22.334,310.577,22.167z"/>
	<path style="fill:#D9D4D4;" d="M232.667,140.66c-10.637,13.953-25.805,23.34-42.579,26.347c3.785,0.673,7.668,1.042,11.633,1.042
		c15.694,0,30.617-5.563,42.613-15.334C240.037,149.215,236.112,145.18,232.667,140.66z"/>
</g>
<path style="fill:#FA8500;" d="M114.257,182.987v144.667c0,23.844,13.467,45.679,34.819,56.294
	c73.281,36.433,144.772,35.601,214.598,0.109c20.987-10.668,34.07-32.366,34.07-55.909V182.987
	c0-74.234-60.178-134.412-134.413-134.412H248.67C174.436,48.574,114.257,108.753,114.257,182.987z"/>
<path style="fill:#CE6A06;" d="M263.33,48.574h-14.66c-1.659,0-3.309,0.041-4.954,0.1c71.938,2.607,129.459,61.738,129.459,134.312
	v145.161c0,23.542-13.083,45.241-34.07,55.909c-31.126,15.822-62.585,24.735-94.384,26.551
	c40.188,2.333,79.831-6.666,118.952-26.551c20.987-10.668,34.07-32.366,34.07-55.909v-145.16
	C397.743,108.753,337.565,48.574,263.33,48.574z"/>
<g>
	<path style="fill:#FA9E3E;" d="M125.839,223.99h49.369v56.61h-49.369c-15.632,0-28.305-12.673-28.305-28.305
		S110.207,223.99,125.839,223.99z"/>
	<path style="fill:#FA9E3E;" d="M386.161,223.99h-49.369v56.61h49.369c15.632,0,28.305-12.673,28.305-28.305
		S401.793,223.99,386.161,223.99z"/>
</g>
<path style="fill:#484655;" d="M308.93,355.94H203.07c-14.826,0-29.382,3.971-42.091,11.48
	c-8.298,4.896-15.632,11.157-21.799,18.611c-12.233,14.797-18.97,33.541-18.97,52.779v65.69c0,4.143,3.358,7.5,7.5,7.5h256.58
	c4.143,0,7.5-3.357,7.5-7.5v-65.69C391.79,393.115,354.619,355.94,308.93,355.94z"/>
<path style="fill:#35343F;" d="M308.93,355.94h-22.676c45.69,0,82.86,37.176,82.86,82.871v65.69c0,4.143-3.358,7.5-7.5,7.5h22.676
	c4.143,0,7.5-3.357,7.5-7.5v-65.69C391.79,393.115,354.619,355.94,308.93,355.94z"/>
<g>
	<path style="fill:#F0EEEE;" d="M371.105,440.898c-6.315-32.734-15.826-62.13-27.734-86.569c-1.088-2.234-3.085-3.901-5.495-4.506
		c-0.064-0.016-0.128-0.032-0.192-0.048c-6.55-1.629-12.246,4.669-9.958,11.019c8.773,24.344,15.73,53.154,20.31,84.982
		c-62.069,11.698-123.438,11.766-184.108,0.214c4.579-31.914,11.549-60.799,20.342-85.198c2.28-6.327-3.38-12.655-9.907-11.035
		c-0.063,0.016-0.126,0.031-0.189,0.047c-2.428,0.608-4.45,2.271-5.546,4.521c-11.927,24.473-21.451,53.919-27.768,86.708
		c-4.294,22.284-7.101,46.113-8.186,70.967h246.649C378.237,487.096,375.419,463.217,371.105,440.898z"/>
	<path style="fill:#F0EEEE;" d="M323.309,368.633C313.994,352.205,296.335,342,277.22,342h-42.433
		c-19.298,0-37.116,10.482-46.501,27.356c-8.251,14.836-9.733,26.683-4.406,35.211c4.732,7.576,14.387,11.365,27.2,10.686
		c15.68-0.839,35.643-8.537,44.307-19.254h1.223c8.692,10.767,28.734,18.464,44.469,19.263c0.932,0.047,1.846,0.07,2.743,0.07
		c11.415,0,20.004-3.806,24.355-10.855C333.521,395.817,331.882,383.758,323.309,368.633z"/>
</g>
<path style="fill:#FA9E3E;" d="M296.85,267.73v95.35l-5.158,8.628c-16.704,27.94-57.18,27.94-73.884,0l-5.158-8.628v-95.35H296.85z"
	/>
<path style="fill:#FFB56B;" d="M368.11,193.47v37.21c0,61.91-50.19,112.11-112.11,112.11s-112.11-50.2-112.11-112.11v-31.44
	c0-35.15,18.19-66.04,45.68-83.78c7.78,27.81,33.31,48.21,63.61,48.21h38.49c28.07,0,55.13,10.45,75.91,29.32L368.11,193.47z"/>
<path style="fill:#19303F;" d="M256,288.484c-13.494,0-26.142-6.632-33.833-17.739c-2.358-3.405-1.509-8.078,1.897-10.435
	c3.405-2.358,8.079-1.509,10.435,1.896c4.89,7.063,12.927,11.278,21.501,11.278c8.573,0,16.61-4.216,21.501-11.278
	c2.358-3.404,7.029-4.255,10.435-1.896c3.405,2.358,4.255,7.03,1.897,10.435C282.142,281.853,269.494,288.484,256,288.484z"/>
<path style="fill:#EF9245;" d="M368.11,230.68v-37.21l-0.53-0.48c-6.961-6.321-14.628-11.691-22.8-16.046v65.399
	c0,53.578-41.949,97.354-94.794,100.286c0.99,0.052,1.983,0.092,2.98,0.119c0.006,0,0.013,0.001,0.019,0.001
	c1.002,0.027,2.007,0.041,3.015,0.041l0,0l0,0C317.921,342.79,368.11,292.59,368.11,230.68z"/>
<g>
	<path style="fill:#19303F;" d="M310.323,232.962c-4.142,0-7.5-3.357-7.5-7.5v-2c0-4.143,3.358-7.5,7.5-7.5
		c4.143,0,7.5,3.357,7.5,7.5v2C317.823,229.605,314.466,232.962,310.323,232.962z"/>
	<path style="fill:#19303F;" d="M201.676,232.962c-4.142,0-7.5-3.357-7.5-7.5v-2c0-4.143,3.358-7.5,7.5-7.5s7.5,3.357,7.5,7.5v2
		C209.176,229.605,205.818,232.962,201.676,232.962z"/>
</g>
<g>
</g>
<g>
</g>
<g>
</g>
<g>
</g>
<g>
</g>
<g>
</g>
<g>
</g>
<g>
</g>
<g>
</g>
<g>
</g>
<g>
</g>
<g>
</g>
<g>
</g>
<g>
</g>
<g>
</g>
</svg>
