<?xml version="1.0" encoding="iso-8859-1"?>
<!-- Generator: Adobe Illustrator 19.0.0, SVG Export Plug-In . SVG Version: 6.00 Build 0)  -->
<svg version="1.1" id="Capa_1" xmlns="http://www.w3.org/2000/svg" xmlns:xlink="http://www.w3.org/1999/xlink" x="0px" y="0px"
	 viewBox="0 0 512 512" style="enable-background:new 0 0 512 512;" xml:space="preserve">
<path style="fill:#35343F;" d="M456.812,63.3L268.366,1.975c-8.09-2.633-16.644-2.633-24.732,0L55.187,63.3
	c-5.336,1.735-8.922,6.672-8.922,12.283c0,5.612,3.584,10.549,8.921,12.287l188.447,61.327c4.045,1.316,8.205,1.975,12.366,1.975
	c4.161,0,8.321-0.658,12.366-1.975L456.813,87.87c5.336-1.737,8.921-6.675,8.921-12.287C465.733,69.972,462.148,65.035,456.812,63.3
	z"/>
<path style="fill:#FA8500;" d="M394.036,370.351c1.28,6.186,1.96,12.538,1.96,19.028c0,62.785-62.678,81.622-139.996,81.622
	s-139.996-18.837-139.996-81.622c0-6.491,0.68-12.842,1.96-19.028c17.92-93.021,17.92-96.28,0-189.301
	c-1.28-6.186-1.96-12.546-1.96-19.028c0-10.027,1.6-19.75,4.6-29.012h270.793c3,9.262,4.6,18.985,4.6,29.012
	c0,6.482-0.68,12.842-1.96,19.028C376.116,274.071,376.116,277.329,394.036,370.351z"/>
<path style="fill:#CE6A06;" d="M394.036,181.049c1.28-6.187,1.96-12.547,1.96-19.028c0-10.027-1.6-19.75-4.6-29.012h-22.999
	c3,9.262,4.6,18.985,4.6,29.012c0,6.482-0.68,12.842-1.96,19.028c-17.92,93.022-17.92,96.28,0,189.301
	c1.28,6.186,1.96,12.538,1.96,19.028c0,59.64-56.559,79.622-128.497,81.474c3.793,0.098,7.627,0.148,11.5,0.148
	c77.318,0,139.996-18.837,139.996-81.622c0-6.491-0.68-12.842-1.96-19.028C376.116,277.329,376.116,274.071,394.036,181.049z"/>
<g>
	<path style="fill:#FA9E3E;" d="M125.787,224.72l49.368-0.085l0.097,56.608l-49.368,0.085
		c-15.632,0.027-28.326-12.624-28.353-28.256C97.505,237.441,110.155,224.747,125.787,224.72z"/>
	<path style="fill:#FA9E3E;" d="M386.102,224.273l-49.368,0.085l0.097,56.608l49.368-0.085
		c15.632-0.027,28.282-12.721,28.255-28.353C414.428,236.896,401.734,224.246,386.102,224.273z"/>
</g>
<path style="fill:#484655;" d="M308.925,355.947H203.073c-45.689,0-82.86,37.171-82.86,82.86V504.5c0,4.142,3.358,7.5,7.5,7.5
	h256.572c4.142,0,7.5-3.357,7.5-7.5v-65.693C391.785,393.118,354.614,355.947,308.925,355.947z"/>
<path style="fill:#35343F;" d="M308.925,355.947h-25.666c45.689,0,82.86,37.171,82.86,82.86V504.5c0,4.142-3.358,7.5-7.5,7.5h25.666
	c4.142,0,7.5-3.357,7.5-7.5v-65.693C391.785,393.118,354.614,355.947,308.925,355.947z"/>
<path style="fill:#F0EEEE;" d="M341.611,365.752c-0.678-2.291-2.406-4.122-4.654-4.93c-8.997-3.234-18.428-4.875-28.033-4.875
	H203.073c-9.604,0-19.036,1.641-28.033,4.875c-2.247,0.808-3.976,2.639-4.654,4.93c-0.678,2.29-0.225,4.766,1.222,6.668
	l78.421,103.121c1.418,1.865,3.626,2.96,5.97,2.96s4.552-1.095,5.97-2.96L340.39,372.42
	C341.836,370.518,342.289,368.042,341.611,365.752z"/>
<path style="fill:#FA9E3E;" d="M298.098,364.935v-97.199H213.9v97.199c0,19.964,16.184,36.148,36.148,36.148h11.902
	C281.914,401.083,298.098,384.899,298.098,364.935z"/>
<path style="fill:#FFB56B;" d="M286.528,186.748c-30.221-8.446-56.168-20.908-73.478-34.127h-21.151
	c0.08,1.12,0.131,2.248,0.131,3.388c0,26.1-21.16,47.249-47.249,47.249c-0.3,0-0.6-0.02-0.89-0.02v27.449
	c0,61.908,50.189,112.107,112.107,112.107s112.107-50.199,112.107-112.107v-35.149C346.337,198.078,317.248,195.328,286.528,186.748
	z"/>
<path style="fill:#EF9245;" d="M344.777,196.311v46.039c0,53.577-41.948,97.351-94.792,100.284c0.99,0.052,1.983,0.092,2.98,0.119
	c0.006,0,0.012,0,0.019,0.001c1.002,0.027,2.007,0.041,3.015,0.041l0,0l0,0c61.918,0,112.107-50.199,112.107-112.107v-35.149
	C361.04,196.362,353.192,196.619,344.777,196.311z"/>
<g>
	<path style="fill:#19303F;" d="M310.321,232.969c-4.142,0-7.5-3.357-7.5-7.5v-2c0-4.143,3.358-7.5,7.5-7.5s7.5,3.357,7.5,7.5v2
		C317.821,229.611,314.463,232.969,310.321,232.969z"/>
	<path style="fill:#19303F;" d="M201.677,232.969c-4.142,0-7.5-3.357-7.5-7.5v-2c0-4.143,3.358-7.5,7.5-7.5s7.5,3.357,7.5,7.5v2
		C209.176,229.611,205.819,232.969,201.677,232.969z"/>
	<path style="fill:#19303F;" d="M255.999,288.49c-13.494,0-26.141-6.632-33.832-17.739c-2.358-3.405-1.509-8.078,1.896-10.435
		c3.405-2.358,8.077-1.509,10.435,1.896c4.89,7.062,12.927,11.278,21.5,11.278s16.61-4.216,21.5-11.278
		c2.358-3.404,7.029-4.255,10.435-1.896c3.405,2.357,4.254,7.03,1.896,10.435C282.14,281.858,269.493,288.49,255.999,288.49z"/>
</g>
<path style="fill:#484655;" d="M406.404,72.128c-96.991-31.06-203.82-31.06-300.811,0c-3.105,0.994-5.212,3.882-5.212,7.142v96.276
	c0,2.395,1.144,4.646,3.078,6.059c1.935,1.411,4.429,1.816,6.708,1.084c94.041-30.115,197.621-30.115,291.662,0
	c0.749,0.24,1.52,0.357,2.286,0.357c1.57,0,3.122-0.493,4.422-1.441c1.935-1.412,3.079-3.663,3.079-6.059V79.271
	C411.617,76.01,409.51,73.122,406.404,72.128z"/>
<path style="fill:#19303F;" d="M433.774,237.507c-4.142,0-7.5-3.357-7.5-7.5V56.69c0-4.142,3.358-7.5,7.5-7.5s7.5,3.357,7.5,7.5
	v173.317C441.274,234.15,437.916,237.507,433.774,237.507z"/>
<g>
</g>
<g>
</g>
<g>
</g>
<g>
</g>
<g>
</g>
<g>
</g>
<g>
</g>
<g>
</g>
<g>
</g>
<g>
</g>
<g>
</g>
<g>
</g>
<g>
</g>
<g>
</g>
<g>
</g>
</svg>
