<?xml version="1.0" encoding="iso-8859-1"?>
<!-- Generator: Adobe Illustrator 19.0.0, SVG Export Plug-In . SVG Version: 6.00 Build 0)  -->
<svg version="1.1" id="Capa_1" xmlns="http://www.w3.org/2000/svg" xmlns:xlink="http://www.w3.org/1999/xlink" x="0px" y="0px"
	 viewBox="0 0 512 512" style="enable-background:new 0 0 512 512;" xml:space="preserve">
<path style="fill:#B45F4A;" d="M313.096,344.835h-4.18v-95.752c0-4.143-3.357-7.5-7.5-7.5h-90.831c-4.143,0-7.5,3.357-7.5,7.5
	v95.752h-4.181c-48.963,0-88.797,39.834-88.797,88.797V504.5c0,4.143,3.357,7.5,7.5,7.5h276.785c4.143,0,7.5-3.357,7.5-7.5v-70.868
	C401.893,384.669,362.058,344.835,313.096,344.835z"/>
<path style="fill:#A1513D;" d="M313.096,344.835h-4.18v-95.752c0-4.143-3.357-7.5-7.5-7.5h-27.333c4.143,0,7.5,3.357,7.5,7.5v95.752
	h4.18c48.963,0,88.797,39.834,88.797,88.797V504.5c0,4.143-3.357,7.5-7.5,7.5h27.333c4.143,0,7.5-3.357,7.5-7.5v-70.868
	C401.893,384.669,362.058,344.835,313.096,344.835z"/>
<path style="fill:#FB403F;" d="M269.393,0h-26.785C168.622,0,108.43,60.191,108.43,134.177v56.754
	c0,81.37,66.199,147.569,147.569,147.569s147.569-66.199,147.569-147.569v-56.754C403.568,60.191,343.378,0,269.393,0z"/>
<path style="fill:#C21C1C;" d="M269.393,0h-26.785c-0.341,0-0.68,0.01-1.021,0.013c73.516,0.552,133.156,60.52,133.156,134.164
	v56.754c0,76.507-58.525,139.596-133.156,146.864c4.744,0.462,9.551,0.705,14.414,0.705c81.37,0,147.569-66.199,147.569-147.569
	v-56.754C403.568,60.191,343.378,0,269.393,0z"/>
<path style="fill:#F0EEEE;" d="M399.628,224.851c2.573-10.895,3.94-22.25,3.94-33.92v-51.718
	c-35.183-23.861-76.987-21.393-86.477-15.918c2.679-6.431,5.091-39.389-18.756-61.628c4.287,26.259-12.862,64.308-42.336,77.705
	c-29.474-13.397-46.623-51.446-42.336-77.705c-23.847,22.24-21.436,55.197-18.756,61.628c-9.49-5.475-51.294-7.943-86.477,15.918
	v51.718c0,11.67,1.368,23.025,3.94,33.92c30.574,1.486,63.511,15.481,43.676,74.54c26.309,24.263,61.427,39.109,99.953,39.109
	s73.644-14.846,99.952-39.109C336.117,240.331,369.055,226.336,399.628,224.851z"/>
<g>
	<path style="fill:#D9D4D4;" d="M260.961,338.408c0.808-0.027,1.617-0.052,2.422-0.092c0.503-0.025,1.003-0.061,1.504-0.091
		c0.718-0.043,1.436-0.084,2.151-0.137c0.539-0.04,1.075-0.09,1.613-0.136c0.673-0.057,1.346-0.113,2.016-0.18
		c0.56-0.056,1.118-0.12,1.676-0.182c0.642-0.071,1.285-0.141,1.925-0.221c0.576-0.071,1.149-0.151,1.723-0.229
		c0.616-0.084,1.232-0.168,1.846-0.259c0.588-0.088,1.174-0.182,1.76-0.277c0.594-0.096,1.188-0.193,1.78-0.296
		c0.598-0.104,1.193-0.214,1.789-0.325c0.574-0.107,1.147-0.216,1.719-0.33c0.607-0.121,1.212-0.247,1.816-0.375
		c0.553-0.118,1.106-0.238,1.657-0.362c0.616-0.138,1.231-0.281,1.845-0.427c0.53-0.126,1.059-0.256,1.586-0.388
		c0.63-0.158,1.26-0.318,1.887-0.484c0.5-0.132,0.999-0.269,1.497-0.406c0.647-0.179,1.294-0.359,1.938-0.546
		c0.469-0.137,0.936-0.278,1.404-0.418c0.666-0.201,1.332-0.403,1.994-0.613c0.431-0.137,0.86-0.279,1.289-0.419
		c0.693-0.227,1.386-0.454,2.074-0.691c0.379-0.13,0.754-0.266,1.132-0.399c0.733-0.259,1.466-0.519,2.194-0.789
		c0.302-0.112,0.602-0.23,0.903-0.344c0.797-0.302,1.594-0.605,2.385-0.92c0.172-0.069,0.343-0.141,0.515-0.211
		c7.197-2.902,14.116-6.353,20.702-10.306c0.033-0.02,0.067-0.039,0.1-0.059c0.899-0.54,1.79-1.092,2.676-1.651
		c0.077-0.049,0.155-0.096,0.232-0.145c0.86-0.545,1.713-1.1,2.561-1.661c0.099-0.066,0.199-0.13,0.298-0.196
		c0.835-0.556,1.663-1.121,2.485-1.693c0.107-0.074,0.214-0.148,0.321-0.223c0.817-0.572,1.628-1.153,2.434-1.741
		c0.106-0.077,0.213-0.155,0.319-0.232c0.807-0.592,1.608-1.193,2.403-1.802c0.097-0.074,0.194-0.149,0.291-0.223
		c0.801-0.616,1.595-1.241,2.383-1.873c0.085-0.068,0.169-0.136,0.254-0.205c0.8-0.645,1.593-1.297,2.378-1.958
		c0.064-0.053,0.127-0.108,0.191-0.161c0.804-0.678,1.601-1.364,2.39-2.059c0.038-0.033,0.075-0.067,0.113-0.1
		c0.814-0.719,1.621-1.445,2.419-2.181c-3.453-10.282-5.303-19.195-5.848-26.917c-23.954,35.99-63.274,60.915-108.518,65.321
		c4.744,0.462,9.551,0.705,14.414,0.705c1.238,0,2.473-0.017,3.704-0.047C260.123,338.443,260.542,338.421,260.961,338.408z"/>
	<path style="fill:#D9D4D4;" d="M374.742,134.177v56.754c0,14.449-2.09,28.418-5.979,41.625c8.962-5.088,20.06-7.18,30.866-7.705
		c0.948-4.015,1.73-8.094,2.342-12.226c0.038-0.254,0.071-0.51,0.107-0.765c0.152-1.066,0.294-2.135,0.423-3.208
		c0.046-0.38,0.088-0.761,0.131-1.142c0.108-0.955,0.206-1.913,0.295-2.874c0.041-0.441,0.081-0.883,0.118-1.326
		c0.077-0.917,0.142-1.838,0.202-2.76c0.03-0.461,0.062-0.922,0.088-1.384c0.053-0.956,0.092-1.915,0.126-2.875
		c0.015-0.415,0.036-0.829,0.047-1.245c0.038-1.367,0.06-2.739,0.06-4.115v-51.718c-9.485-6.433-19.449-10.938-29.134-14
		C374.631,128.176,374.742,131.164,374.742,134.177z"/>
</g>
<path style="fill:#B45F4A;" d="M285.919,227.061h-59.837c-22.525,0-39.409,20.623-34.962,42.705l4.996,24.807
	c1.503,7.462,1.09,15.181-1.187,22.443C213.385,325.973,234.104,331,255.999,331l0,0c21.894,0,42.613-5.027,61.071-13.984
	c-2.276-7.261-2.689-14.98-1.186-22.443l4.996-24.807C325.328,247.684,308.443,227.061,285.919,227.061z"/>
<path style="fill:#A1513D;" d="M317.071,317.016c-0.807-2.575-1.368-5.208-1.704-7.866c-11.061,8.273-23.312,15.036-36.453,19.972
	C292.375,326.905,305.193,322.78,317.071,317.016z"/>
<g>
	<path style="fill:#B45F4A;" d="M279.872,182.01c4.372,14.864,18.109,26.941,35.902,29.534c21.885,3.19,42.637-9.521,47.268-29.011
		c0.034-0.143,0.067-0.287,0.099-0.43c2.359-10.492-4.351-21.192-15.524-25.096c-3.545-1.239-7.259-2.193-11.115-2.827
		c-20.63-3.391-40.358,3.162-53.363,15.882C279.903,173.226,278.614,177.734,279.872,182.01z"/>
	<path style="fill:#B45F4A;" d="M232.128,182.01c-4.372,14.864-18.109,26.941-35.902,29.534
		c-21.885,3.19-42.637-9.521-47.268-29.011c-0.034-0.143-0.067-0.287-0.1-0.43c-2.359-10.492,4.351-21.192,15.524-25.096
		c3.545-1.239,7.259-2.193,11.115-2.827c20.63-3.391,40.358,3.162,53.363,15.882C232.096,173.226,233.385,177.734,232.128,182.01z"
		/>
</g>
<g>
	<path style="fill:#19303F;" d="M319.25,193.963c-4.143,0-7.5-3.357-7.5-7.5v-2.219c0-4.143,3.357-7.5,7.5-7.5s7.5,3.357,7.5,7.5
		v2.219C326.75,190.605,323.393,193.963,319.25,193.963z"/>
	<path style="fill:#19303F;" d="M192.749,193.963c-4.143,0-7.5-3.357-7.5-7.5v-2.219c0-4.143,3.357-7.5,7.5-7.5s7.5,3.357,7.5,7.5
		v2.219C200.249,190.605,196.893,193.963,192.749,193.963z"/>
	<path style="fill:#19303F;" d="M255.999,275.979c-14.701,0-28.48-7.225-36.86-19.327c-2.358-3.405-1.509-8.077,1.896-10.436
		c3.406-2.359,8.078-1.51,10.436,1.896c5.579,8.057,14.748,12.866,24.528,12.866c9.78,0,18.949-4.81,24.528-12.866
		c2.358-3.405,7.028-4.256,10.436-1.896c3.405,2.358,4.255,7.03,1.897,10.436C284.479,268.755,270.701,275.979,255.999,275.979z"/>
</g>
<g>
	<path style="fill:#A1513D;" d="M321.596,474.967c-15.022,0-30.044-4.058-42.578-12.171c-3.478-2.251-4.472-6.895-2.221-10.371
		c2.251-3.479,6.893-4.472,10.371-2.221c20.272,13.121,48.584,13.121,68.854,0c3.475-2.251,8.12-1.257,10.371,2.221
		c2.251,3.477,1.257,8.12-2.221,10.371C351.638,470.909,336.617,474.967,321.596,474.967z"/>
	<path style="fill:#A1513D;" d="M190.404,474.967c-15.021,0-30.043-4.058-42.577-12.171c-3.478-2.251-4.472-6.895-2.221-10.371
		c2.251-3.479,6.894-4.472,10.371-2.221c20.271,13.121,48.582,13.121,68.855,0c3.476-2.251,8.121-1.257,10.371,2.221
		c2.251,3.477,1.257,8.12-2.221,10.371C220.447,470.909,205.426,474.967,190.404,474.967z"/>
</g>
<path style="fill:#F0EEEE;" d="M261.954,76.828c13.561-21.739,22.071-47.736,23.613-75.85C280.263,0.338,274.867,0,269.393,0
	h-26.785c-5.475,0-10.871,0.338-16.176,0.978c1.543,28.114,10.053,54.111,23.613,75.85
	C252.792,81.233,259.208,81.233,261.954,76.828z"/>
<g>
</g>
<g>
</g>
<g>
</g>
<g>
</g>
<g>
</g>
<g>
</g>
<g>
</g>
<g>
</g>
<g>
</g>
<g>
</g>
<g>
</g>
<g>
</g>
<g>
</g>
<g>
</g>
<g>
</g>
</svg>
