<?xml version="1.0" encoding="iso-8859-1"?>
<!-- Generator: Adobe Illustrator 19.0.0, SVG Export Plug-In . SVG Version: 6.00 Build 0)  -->
<svg version="1.1" id="Capa_1" xmlns="http://www.w3.org/2000/svg" xmlns:xlink="http://www.w3.org/1999/xlink" x="0px" y="0px"
	 viewBox="0 0 512 512" style="enable-background:new 0 0 512 512;" xml:space="preserve">
<path style="fill:#E7CF90;" d="M255.998,0c-93.606,0-169.76,76.154-169.76,169.76v18.494c0,64.731,52.533,142.913,117.77,142.913
	h103.98c65.237,0,117.77-78.182,117.77-142.913V169.76C425.758,76.154,349.604,0,255.998,0z"/>
<path style="fill:#B19D7D;" d="M308.925,355.943H203.071c-45.69,0-82.862,37.172-82.862,82.862V504.5c0,4.143,3.358,7.5,7.5,7.5
	h256.578c4.142,0,7.5-3.357,7.5-7.5v-65.694C391.787,393.115,354.615,355.943,308.925,355.943z"/>
<path style="fill:#968163;" d="M308.925,355.943h-25.833c45.69,0,82.862,37.172,82.862,82.862V504.5c0,4.143-3.358,7.5-7.5,7.5
	h25.833c4.142,0,7.5-3.357,7.5-7.5v-65.694C391.787,393.115,354.615,355.943,308.925,355.943z"/>
<path style="fill:#CCB89B;" d="M349.542,365.706l-31.566-46.267c-1.17-1.715-2.997-2.868-5.049-3.186
	c-2.049-0.313-4.142,0.23-5.775,1.511l-51.154,40.125l-51.153-40.125c-1.633-1.28-3.725-1.827-5.775-1.511
	c-2.051,0.317-3.879,1.471-5.049,3.186l-31.566,46.267c-1.944,2.849-1.694,6.655,0.605,9.227l31.566,35.296
	c1.476,1.65,3.527,2.5,5.594,2.5c1.623,0,3.256-0.525,4.625-1.599l51.153-40.125l51.153,40.125c1.369,1.074,3.002,1.599,4.626,1.599
	c2.066,0,4.118-0.85,5.594-2.5l31.566-35.296C351.236,372.361,351.486,368.555,349.542,365.706z"/>
<g>
	<path style="fill:#484655;" d="M366.248,40.784c-8.774-7.511-18.319-14.143-28.5-19.761V147.5h28.5V40.784z"/>
	<path style="fill:#484655;" d="M145.748,40.784V147.5h28.5V21.022C164.067,26.641,154.522,33.273,145.748,40.784z"/>
</g>
<path style="fill:#FB403F;" d="M255.998,0c-8.355,0-16.567,0.617-24.602,1.789L238.122,141h35.751l6.726-139.211
	C272.565,0.617,264.353,0,255.998,0z"/>
<path style="fill:#696970;" d="M306.679,209.667H205.316l-23.133,89.266c-3.214,12.403,0.474,25.577,9.66,34.509l46.319,45.034
	h35.67l46.319-45.034c9.187-8.932,12.874-22.106,9.66-34.509L306.679,209.667z"/>
<path style="fill:#484655;" d="M283.831,512V363.123c0-15.348-12.486-27.833-27.833-27.833s-27.833,12.485-27.833,27.833V512
	H283.831z"/>
<g>
	<path style="fill:#35343F;" d="M255.998,375.29c-15.348,0-27.833,12.485-27.833,27.833v19.5c0-15.348,12.486-27.833,27.833-27.833
		s27.833,12.485,27.833,27.833v-19.5C283.831,387.775,271.346,375.29,255.998,375.29z"/>
	<path style="fill:#35343F;" d="M255.998,423.645c-15.348,0-27.833,12.485-27.833,27.833v19.5c0-15.348,12.486-27.833,27.833-27.833
		s27.833,12.485,27.833,27.833v-19.5C283.831,436.13,271.346,423.645,255.998,423.645z"/>
	<path style="fill:#35343F;" d="M255.998,472c-15.348,0-27.833,12.485-27.833,27.833V512h0.987c3.227-11.8,14.036-20.5,26.846-20.5
		c12.81,0,23.619,8.7,26.846,20.5h0.987v-12.167C283.831,484.485,271.346,472,255.998,472z"/>
</g>
<path style="fill:#5880A2;" d="M397.929,111.521c-94.179-22.877-189.684-22.877-283.862,0
	c-18.784,4.563-31.902,21.297-31.902,40.694v44.146c0,13.438,5.238,26.068,14.75,35.564c42.874,42.793,74.814,53.482,90.037,56.045
	c25.46,4.292,36.735-15.288,45.79-31.017c8.043-13.973,13.622-22.457,23.258-22.457c6.428,0,11.2,1.512,23.258,22.457
	c8.194,14.234,18.198,31.618,38.9,31.616c2.174,0,4.47-0.191,6.89-0.6c15.223-2.563,47.163-13.252,90.037-56.046
	c9.511-9.494,14.749-22.125,14.749-35.563v-44.146C429.831,132.818,416.713,116.084,397.929,111.521z"/>
<g>
	<path style="fill:#35343F;" d="M299.592,323.168c-2.305,0-4.578-1.059-6.048-3.058l-12.99-17.667
		c-2.454-3.338-1.737-8.032,1.6-10.485c3.336-2.455,8.031-1.738,10.485,1.599l12.99,17.667c2.454,3.338,1.737,8.032-1.6,10.485
		C302.691,322.693,301.134,323.168,299.592,323.168z"/>
	<path style="fill:#35343F;" d="M212.404,323.168c-1.543,0-3.099-0.475-4.437-1.459c-3.337-2.453-4.053-7.148-1.6-10.485
		l12.99-17.667c2.453-3.336,7.148-4.054,10.485-1.599c3.337,2.453,4.053,7.147,1.6,10.485l-12.99,17.667
		C216.983,322.108,214.708,323.168,212.404,323.168z"/>
</g>
<path style="fill:#E7CF90;" d="M351.844,437.406h-41.779c-3.235,0-5.857,2.622-5.857,5.858v17.848c0,2.005,1.026,3.871,2.719,4.945
	l12.295,7.802c0.939,0.596,2.027,0.912,3.139,0.912h17.189c1.112,0,2.2-0.317,3.139-0.911l12.295-7.802
	c1.693-1.075,2.719-2.941,2.719-4.946v-17.848C357.701,440.028,355.079,437.406,351.844,437.406z"/>
<g>
</g>
<g>
</g>
<g>
</g>
<g>
</g>
<g>
</g>
<g>
</g>
<g>
</g>
<g>
</g>
<g>
</g>
<g>
</g>
<g>
</g>
<g>
</g>
<g>
</g>
<g>
</g>
<g>
</g>
</svg>
