<?xml version="1.0" encoding="iso-8859-1"?>
<!-- Generator: Adobe Illustrator 19.0.0, SVG Export Plug-In . SVG Version: 6.00 Build 0)  -->
<svg version="1.1" id="Capa_1" xmlns="http://www.w3.org/2000/svg" xmlns:xlink="http://www.w3.org/1999/xlink" x="0px" y="0px"
	 viewBox="0 0 512 512" style="enable-background:new 0 0 512 512;" xml:space="preserve">
<path style="fill:#78D6D1;" d="M308.928,355.944H203.072c-45.689,0-82.861,37.172-82.861,82.862V504.5c0,4.142,3.357,7.5,7.5,7.5
	h256.578c4.143,0,7.5-3.358,7.5-7.5v-65.694C391.789,393.116,354.617,355.944,308.928,355.944z"/>
<path style="fill:#53BCB7;" d="M308.928,355.944H281.84c45.689,0,82.861,37.172,82.861,82.862V504.5c0,4.142-3.357,7.5-7.5,7.5
	h27.088c4.143,0,7.5-3.358,7.5-7.5v-65.694C391.789,393.116,354.617,355.944,308.928,355.944z"/>
<path style="fill:#F3F3F3;" d="M203.609,413.185c14.354,13.147,32.96,20.387,52.391,20.387s38.037-7.24,52.391-20.387
	c14.259-13.059,23.104-30.792,24.908-49.933c0.127-1.348-0.104-2.65-0.608-3.818c-7.532-2.259-15.505-3.49-23.762-3.49H203.072
	c-8.258,0-16.23,1.23-23.762,3.49c-0.504,1.168-0.735,2.471-0.608,3.818C180.505,382.393,189.35,400.126,203.609,413.185z"/>
<path style="fill:#D9D4D4;" d="M333.298,363.252c0.127-1.348-0.104-2.65-0.608-3.818c-1.627-0.488-3.279-0.918-4.946-1.308
	c-0.371-0.087-0.741-0.176-1.114-0.258c-0.689-0.151-1.382-0.291-2.077-0.425c-0.546-0.105-1.094-0.201-1.644-0.295
	c-0.593-0.102-1.185-0.209-1.783-0.298c-1.098-0.163-2.203-0.303-3.314-0.423c-0.434-0.047-0.871-0.081-1.306-0.121
	c-0.864-0.079-1.732-0.147-2.603-0.199c-0.4-0.024-0.799-0.049-1.201-0.067c-1.252-0.056-2.508-0.096-3.773-0.096H281.84
	c18.745,0,36.049,6.265,49.947,16.799C332.478,369.627,332.996,366.462,333.298,363.252z"/>
<path style="fill:#FA9E3E;" d="M213.904,267.729v90.668c0,23.249,18.847,42.096,42.096,42.096l0,0
	c23.249,0,42.096-18.847,42.096-42.096v-90.668H213.904z"/>
<path style="fill:#CB715B;" d="M120.205,75.42c-10.872,57.476-13.36,115.923-5.205,172.875c94,0,188,0,282,0
	c8.155-56.952,5.667-115.399-5.205-172.875c-1.992-10.531-10.028-18.887-20.442-21.424c-82.123-20.001-148.583-20.001-230.706,0
	C130.233,56.532,122.197,64.888,120.205,75.42z"/>
<g>
	<path style="fill:#FA9E3E;" d="M125.839,223.99h49.369v56.61h-49.369c-15.632,0-28.305-12.673-28.305-28.305
		S110.207,223.99,125.839,223.99z"/>
	<path style="fill:#FA9E3E;" d="M386.161,223.99h-49.369v56.61h49.369c15.632,0,28.305-12.673,28.305-28.305
		S401.793,223.99,386.161,223.99z"/>
</g>
<path style="fill:#FFB56B;" d="M256,342.79L256,342.79c-61.919,0-112.115-50.195-112.115-112.115V117.281h224.229v113.394
	C368.115,292.595,317.919,342.79,256,342.79z"/>
<path style="fill:#EF9245;" d="M344.781,117.281v125.062c0,53.578-41.949,97.354-94.795,100.286
	c1.992,0.105,3.996,0.161,6.014,0.161l0,0c61.919,0,112.115-50.195,112.115-112.115V117.281H344.781z"/>
<g>
	<path style="fill:#19303F;" d="M310.323,226.962c-4.143,0-7.5-3.358-7.5-7.5v-2c0-4.142,3.357-7.5,7.5-7.5s7.5,3.358,7.5,7.5v2
		C317.823,223.605,314.466,226.962,310.323,226.962z"/>
	<path style="fill:#19303F;" d="M201.677,226.962c-4.143,0-7.5-3.358-7.5-7.5v-2c0-4.142,3.357-7.5,7.5-7.5s7.5,3.358,7.5,7.5v2
		C209.177,223.605,205.819,226.962,201.677,226.962z"/>
</g>
<path style="fill:#78D6D1;" d="M399.168,74.021c-2.538-13.364-12.763-24.083-26.043-27.307
	c-83.19-20.272-151.058-20.271-234.244-0.002c-13.286,3.226-23.511,13.945-26.05,27.314c-6.154,32.548-9.546,64.943-10.08,96.286
	c-0.041,2.395,1.064,4.665,2.975,6.109c1.909,1.445,4.396,1.891,6.688,1.2c47.079-14.187,95.05-21.379,142.598-21.379
	c0.079,0,0.164,0,0.243,0c47.64,0.025,96.215,7.271,144.374,21.539c0.7,0.208,1.417,0.309,2.131,0.309
	c1.62,0,3.218-0.525,4.538-1.529c1.902-1.445,3.002-3.71,2.961-6.099C408.725,139.051,405.33,106.605,399.168,74.021z"/>
<path style="fill:#53BCB7;" d="M399.168,74.021c-2.538-13.364-12.763-24.083-26.043-27.307c-18.293-4.458-35.845-7.933-52.982-10.43
	c8.21,1.677,16.538,3.547,25.014,5.613c14.382,3.491,25.454,15.1,28.203,29.572c6.515,34.449,10.164,68.752,10.873,102.012
	c5.135,1.36,10.268,2.782,15.396,4.301c0.7,0.208,1.417,0.309,2.131,0.309c1.62,0,3.218-0.525,4.538-1.529
	c1.902-1.445,3.002-3.71,2.961-6.099C408.725,139.051,405.33,106.605,399.168,74.021z"/>
<path style="fill:#F0EEEE;" d="M256,0c-33.222,0-60.25,27.028-60.25,60.25S222.778,120.5,256,120.5s60.25-27.028,60.25-60.25
	S289.222,0,256,0z"/>
<g>
	<path style="fill:#78D6D1;" d="M254.495,263.921c-38.745,0-76.98-11.161-114.448-33.489c-3.559-2.121-4.725-6.724-2.604-10.282
		c2.119-3.559,6.725-4.724,10.281-2.604C182.749,238.417,218.673,249,254.5,249c35.889,0,72.873-10.612,109.926-31.54
		c3.606-2.037,8.183-0.765,10.219,2.842c2.037,3.606,0.765,8.182-2.842,10.219C332.383,252.786,293.184,263.921,254.495,263.921z"/>
	<path style="fill:#78D6D1;" d="M332.497,240.882c-1.496-3.751-5.693-5.647-9.498-4.282c-45.299,16.239-90.454,16.438-134.204,0.589
		c-3.832-1.386-8.062,0.533-9.541,4.324c-4.209,10.781-6.344,22.227-6.344,34.017c0,20.064,6.154,39.004,17.796,54.775
		c0.561,0.76,1.262,1.407,2.063,1.908C211.715,344.039,233.58,350.29,256,350.29c11.387,0,22.638-1.598,33.432-4.747
		c10.486-3.045,20.513-7.531,29.801-13.331c0.801-0.5,1.5-1.147,2.062-1.907c11.642-15.77,17.796-34.711,17.796-54.775
		C339.09,263.512,336.872,251.855,332.497,240.882z"/>
</g>
<path style="fill:#5880A2;" d="M256,67.75c-1.97,0-3.91-0.8-5.3-2.2c-0.351-0.34-0.66-0.73-0.94-1.14c-0.27-0.4-0.5-0.84-0.69-1.29
	c-0.18-0.45-0.329-0.93-0.42-1.4c-0.1-0.49-0.149-0.98-0.149-1.47s0.05-0.98,0.149-1.47c0.091-0.47,0.24-0.95,0.42-1.4
	c0.19-0.45,0.421-0.89,0.69-1.29c0.28-0.41,0.59-0.8,0.94-1.14c1.39-1.4,3.319-2.2,5.3-2.2c1.979,0,3.91,0.8,5.3,2.2
	c0.35,0.34,0.66,0.73,0.94,1.14c0.27,0.4,0.5,0.84,0.689,1.29c0.18,0.45,0.33,0.93,0.42,1.4c0.101,0.49,0.15,0.98,0.15,1.47
	s-0.05,0.98-0.15,1.47c-0.09,0.47-0.24,0.95-0.42,1.4c-0.189,0.45-0.42,0.89-0.689,1.29c-0.28,0.41-0.591,0.8-0.94,1.14
	C259.91,66.95,257.97,67.75,256,67.75z"/>
<g>
</g>
<g>
</g>
<g>
</g>
<g>
</g>
<g>
</g>
<g>
</g>
<g>
</g>
<g>
</g>
<g>
</g>
<g>
</g>
<g>
</g>
<g>
</g>
<g>
</g>
<g>
</g>
<g>
</g>
</svg>
