<?xml version="1.0" encoding="iso-8859-1"?>
<!-- Generator: Adobe Illustrator 19.0.0, SVG Export Plug-In . SVG Version: 6.00 Build 0)  -->
<svg version="1.1" id="Capa_1" xmlns="http://www.w3.org/2000/svg" xmlns:xlink="http://www.w3.org/1999/xlink" x="0px" y="0px"
	 viewBox="0 0 512.001 512.001" style="enable-background:new 0 0 512.001 512.001;" xml:space="preserve">
<g>
	<path style="fill:#F0EEEE;" d="M130.139,512c-4.137,0-7.493-3.35-7.5-7.487l-0.113-65.694c-0.078-45.69,37.029-82.926,82.72-83.004
		l0.013,7.5l-0.013-7.5l105.855-0.182c0.047,0,0.097,0,0.145,0c45.625,0,82.781,37.077,82.859,82.72l0.112,65.694
		c0.007,4.142-3.345,7.506-7.487,7.513L130.151,512C130.148,512,130.143,512,130.139,512z M311.243,370.633
		c-0.041,0-0.077,0-0.118,0l-105.855,0.182c-18.126,0.031-35.155,7.119-47.951,19.959c-12.795,12.839-19.825,29.893-19.794,48.02
		l0.101,58.194l241.577-0.415l-0.1-58.194C379.039,401,348.606,370.633,311.243,370.633z"/>
	<path style="fill:#F0EEEE;" d="M394.103,438.353c-0.078-45.643-37.234-82.72-82.859-82.72c-0.048,0-0.098,0-0.145,0l-105.855,0.182
		c-45.69,0.078-82.798,37.313-82.72,83.004l0.113,65.694c0.007,4.138,3.363,7.487,7.5,7.487c0.004,0,0.009,0,0.013,0l256.577-0.44
		c4.143-0.007,7.494-3.371,7.487-7.513L394.103,438.353z"/>
</g>
<path style="fill:#D9D4D4;" d="M394.103,438.353c-0.078-45.643-37.234-82.72-82.859-82.72c-0.048,0-0.098,0-0.145,0l-24.516,0.042
	c44.86,0.89,81.122,37.592,81.199,82.678l0.112,65.694c0.007,4.142-3.345,7.506-7.487,7.513l-231.069,0.397
	c0.263,0.028,0.529,0.044,0.8,0.044c0.004,0,0.009,0,0.013,0l256.577-0.44c4.143-0.007,7.494-3.371,7.487-7.513L394.103,438.353z"/>
<path style="fill:#696970;" d="M382.076,395.537c5.328,8.753,9.061,18.573,10.84,29.052H123.748
	c1.804-10.482,5.567-20.301,10.925-29.052H382.076z M394.177,481.059l-0.05-29.052H122.548l0.05,29.052H394.177z"/>
<g>
	<polygon style="fill:#484655;" points="394.128,452.007 367.806,452.007 367.856,481.059 394.177,481.059 	"/>
	<path style="fill:#484655;" d="M355.74,395.537c5.332,8.753,9.075,18.57,10.854,29.052h26.322v-0.001
		c-0.889-5.237-2.267-10.311-4.087-15.168c-0.004-0.01-0.008-0.02-0.012-0.031c-0.45-1.2-0.927-2.386-1.431-3.558
		c-0.038-0.087-0.08-0.172-0.117-0.259c-0.476-1.098-0.971-2.187-1.493-3.26c-0.085-0.173-0.179-0.341-0.265-0.514
		c-1.033-2.085-2.145-4.124-3.345-6.105c-0.031-0.051-0.058-0.104-0.089-0.155L355.74,395.537L355.74,395.537z"/>
</g>
<path style="fill:#FA9E3E;" d="M300.288,364.688l-0.167-97.25l-84.2,0.145l0.167,97.25c0.04,23.251,18.921,42.068,42.172,42.028l0,0
	C281.511,406.82,300.328,387.939,300.288,364.688z"/>
<path style="fill:#484655;" d="M286.091,0h-56.182c-64.464,0-116.908,52.445-116.908,116.909v13.062c0,4.143,3.357,7.5,7.5,7.5
	h274.998c4.143,0,7.5-3.357,7.5-7.5v-13.062C402.999,52.445,350.555,0,286.091,0z"/>
<path style="fill:#35343F;" d="M286.091,0h-31.217c64.464,0,116.908,52.445,116.908,116.909v13.062c0,4.143-3.357,7.5-7.5,7.5H395.5
	c4.143,0,7.5-3.357,7.5-7.5v-13.062C402.999,52.445,350.555,0,286.091,0z"/>
<polygon style="fill:#FFB700;" points="113.745,117.835 113.999,255.747 401.999,255.252 401.744,117.34 "/>
<g>
	<path style="fill:#FA9E3E;" d="M127.785,224.713l49.369-0.085l0.097,56.61l-49.369,0.085
		c-15.632,0.027-28.327-12.624-28.354-28.256C99.502,237.434,112.152,224.74,127.785,224.713z"/>
	<path style="fill:#FA9E3E;" d="M388.106,224.266l-49.369,0.085l0.097,56.61l49.369-0.085c15.632-0.027,28.283-12.721,28.256-28.354
		C416.434,236.889,403.738,224.239,388.106,224.266z"/>
</g>
<path style="fill:#FFB56B;" d="M258.15,343.289L258.15,343.289c-61.919,0.106-112.201-50.003-112.307-111.922l-0.195-113.394
	l224.229-0.385l0.195,113.394C370.178,292.901,320.069,343.183,258.15,343.289z"/>
<path style="fill:#EF9245;" d="M346.543,117.628l0.215,125.061c0.092,53.578-41.782,97.426-94.622,100.449
	c1.992,0.102,3.996,0.155,6.014,0.151l0,0c61.919-0.106,112.028-50.388,111.922-112.307l-0.195-113.394L346.543,117.628z"/>
<path style="fill:#19303F;" d="M257.985,306.731c-13.468,0-26.096-6.605-33.793-17.681c-2.363-3.401-1.522-8.075,1.879-10.44
	c3.402-2.362,8.075-1.521,10.439,1.879c4.893,7.041,12.919,11.241,21.475,11.241c0.016,0,0.029,0,0.045,0
	c8.573-0.015,16.603-4.245,21.481-11.315c2.354-3.41,7.025-4.267,10.433-1.914c3.41,2.351,4.267,7.022,1.914,10.432
	c-7.672,11.121-20.309,17.774-33.803,17.798C258.033,306.731,258.009,306.731,257.985,306.731z"/>
<path style="fill:#35343F;" d="M377.599,168.863H138.401c-4.143,0-7.5,3.357-7.5,7.5v33.89c0,34.524,28.088,62.612,62.612,62.612
	h15.061c11.787,0,23.537-4.379,33.085-12.33c4.294-3.576,10.098-5.546,16.341-5.546s12.047,1.97,16.341,5.545
	c9.548,7.952,21.298,12.331,33.085,12.331h15.06c34.524,0,62.612-28.088,62.612-62.612v-33.89
	C385.099,172.221,381.741,168.863,377.599,168.863z"/>
<g>
	<path style="fill:#F0EEEE;" d="M240.996,217.902c0,12.13-17.187,21.964-38.389,21.964c-21.201,0-30.607-9.834-30.607-21.964
		c0-12.131,9.406-21.964,30.607-21.964C223.809,195.938,240.996,205.771,240.996,217.902z"/>
	<path style="fill:#F0EEEE;" d="M275.004,217.902c0,12.13,17.187,21.964,38.389,21.964c21.201,0,30.607-9.834,30.607-21.964
		c0-12.131-9.406-21.964-30.607-21.964C292.191,195.938,275.004,205.771,275.004,217.902z"/>
</g>
<path style="fill:#595866;" d="M399.674,108.352H112.326c-13.711,0-24.826,11.115-24.826,24.826v21.428
	c0,13.711,11.115,24.826,24.826,24.826h287.348c13.711,0,24.826-11.115,24.826-24.826v-21.428
	C424.5,119.467,413.385,108.352,399.674,108.352z"/>
<g>
	<path style="fill:#484655;" d="M399.674,108.352h-22.45c13.711,0,24.826,11.115,24.826,24.826v21.428
		c0,13.711-11.115,24.826-24.826,24.826h22.45c13.711,0,24.826-11.115,24.826-24.826v-21.428
		C424.5,119.467,413.385,108.352,399.674,108.352z"/>
	<path style="fill:#484655;" d="M169.796,171.933c-2.607,0-7.395-6.578-7.395-17.326v-21.428c0-10.748,4.788-17.326,7.395-17.326
		c4.143,0,7.5-3.357,7.5-7.5l0,0h-21.99c-4.861,5.885-7.905,14.746-7.905,24.826v21.428c0,10.08,3.045,18.941,7.905,24.826h21.99
		C177.296,175.29,173.939,171.933,169.796,171.933z"/>
	<path style="fill:#484655;" d="M334.704,108.353c0,4.143,3.357,7.5,7.5,7.5c2.607,0,7.396,6.578,7.396,17.326v21.428
		c0,10.748-4.788,17.326-7.396,17.326c-4.143,0-7.5,3.357-7.5,7.5h21.991c4.86-5.885,7.905-14.746,7.905-24.826v-21.428
		c0-10.08-3.045-18.942-7.905-24.826H334.704L334.704,108.353z"/>
	<path style="fill:#484655;" d="M280.21,173.451c-1.808,1.369-2.975,3.539-2.976,5.981h16.742c0.92-2.293,1.371-4.54,1.624-5.801
		c1.032-5.158,1.601-11.915,1.601-19.025v-21.428c0-7.11-0.568-13.867-1.601-19.025c-0.252-1.261-0.704-3.508-1.624-5.801h-16.742
		l0,0c0,2.442,1.168,4.612,2.976,5.981c0.799,2.465,1.99,8.917,1.99,18.845v21.428C282.201,164.534,281.009,170.986,280.21,173.451z
		"/>
	<path style="fill:#484655;" d="M231.79,173.451c-0.799-2.465-1.99-8.917-1.99-18.845v-21.428c0-9.928,1.191-16.38,1.99-18.845
		c1.808-1.369,2.976-3.539,2.976-5.981l0,0h-16.741c-0.92,2.293-1.372,4.54-1.624,5.801c-1.032,5.158-1.601,11.915-1.601,19.025
		v21.428c0,7.11,0.568,13.867,1.601,19.025c0.252,1.26,0.703,3.508,1.623,5.801h16.742
		C234.766,176.99,233.598,174.82,231.79,173.451z"/>
</g>
<g>
</g>
<g>
</g>
<g>
</g>
<g>
</g>
<g>
</g>
<g>
</g>
<g>
</g>
<g>
</g>
<g>
</g>
<g>
</g>
<g>
</g>
<g>
</g>
<g>
</g>
<g>
</g>
<g>
</g>
</svg>
