<?xml version="1.0" encoding="iso-8859-1"?>
<!-- Generator: Adobe Illustrator 19.0.0, SVG Export Plug-In . SVG Version: 6.00 Build 0)  -->
<svg version="1.1" id="Capa_1" xmlns="http://www.w3.org/2000/svg" xmlns:xlink="http://www.w3.org/1999/xlink" x="0px" y="0px"
	 viewBox="0 0 512 512" style="enable-background:new 0 0 512 512;" xml:space="preserve">
<path style="fill:#F4A45B;" d="M288.631,355.943h-3.326V267.73c0-4.143-3.357-7.5-7.5-7.5h-84.2c-4.143,0-7.5,3.357-7.5,7.5v88.213
	h-3.327c-45.69,0-82.862,37.172-82.862,82.862V504.5c0,4.143,3.357,7.5,7.5,7.5h256.578c4.143,0,7.5-3.357,7.5-7.5v-65.694
	C371.493,393.115,334.321,355.943,288.631,355.943z"/>
<path style="fill:#E58945;" d="M288.631,355.943h-3.326v3.037c34.954,9.723,60.689,41.815,60.689,79.825V504.5
	c0,4.143-3.357,7.5-7.5,7.5h25.5c4.143,0,7.5-3.357,7.5-7.5v-65.694C371.493,393.115,334.321,355.943,288.631,355.943z"/>
<path style="fill:#35343F;" d="M430.463,195.919c-9.642,0-17.485-7.844-17.485-17.485V84.026C412.977,37.694,375.283,0,328.95,0
	c-46.332,0-84.026,37.694-84.026,84.026v140.977c0,53.221,43.299,96.519,96.52,96.519s96.52-43.298,96.52-96.519v-21.584
	C437.963,199.276,434.605,195.919,430.463,195.919z"/>
<path style="fill:#5CDBF1;" d="M314.668,27.07c-29.555,0-53.599,24.044-53.599,53.599s24.044,53.599,53.599,53.599
	s53.599-24.044,53.599-53.599C368.266,51.114,344.223,27.07,314.668,27.07z"/>
<path style="fill:#484655;" d="M97.462,167.378v88.635h276.484v-88.635c0-76.349-61.893-138.242-138.242-138.242l0,0
	C159.354,29.136,97.462,91.029,97.462,167.378z"/>
<g>
	<path style="fill:#FA9E3E;" d="M105.543,220.99h49.369v56.61h-49.369c-15.632,0-28.305-12.673-28.305-28.305
		S89.911,220.99,105.543,220.99z"/>
	<path style="fill:#FA9E3E;" d="M365.865,220.99h-49.369v56.61h49.369c15.632,0,28.305-12.673,28.305-28.305
		S381.497,220.99,365.865,220.99z"/>
</g>
<path style="fill:#FFB56B;" d="M235.703,342.79L235.703,342.79c-61.919,0-112.115-50.195-112.115-112.115V192.76
	c0-32.297,26.182-58.479,58.479-58.479h107.271c32.297,0,58.479,26.182,58.479,58.479v37.915
	C347.819,292.595,297.622,342.79,235.703,342.79z"/>
<path style="fill:#EF9245;" d="M347.819,230.675V192.76c0-19.105-9.165-36.067-23.334-46.739v96.321
	c0,53.578-41.949,97.354-94.794,100.286h0.001c0.981,0.052,1.965,0.091,2.951,0.118c0.016,0,0.032,0.001,0.048,0.002
	c1.001,0.027,2.005,0.041,3.013,0.041l0,0c5.805,0,11.507-0.441,17.074-1.292C306.594,333.275,347.819,286.79,347.819,230.675z"/>
<g>
	<path style="fill:#19303F;" d="M290.027,232.962c-4.143,0-7.5-3.357-7.5-7.5v-2c0-4.143,3.357-7.5,7.5-7.5s7.5,3.357,7.5,7.5v2
		C297.527,229.605,294.17,232.962,290.027,232.962z"/>
	<path style="fill:#19303F;" d="M181.38,232.962c-4.143,0-7.5-3.357-7.5-7.5v-2c0-4.143,3.357-7.5,7.5-7.5s7.5,3.357,7.5,7.5v2
		C188.88,229.605,185.522,232.962,181.38,232.962z"/>
	<path style="fill:#19303F;" d="M235.703,288.484c-13.494,0-26.142-6.632-33.833-17.739c-2.358-3.405-1.509-8.077,1.896-10.435
		c3.406-2.359,8.078-1.51,10.436,1.896c4.891,7.063,12.928,11.278,21.501,11.278c8.573,0,16.61-4.216,21.501-11.278
		c2.357-3.404,7.029-4.256,10.435-1.896c3.405,2.358,4.255,7.03,1.897,10.435C261.846,281.853,249.198,288.484,235.703,288.484z"/>
</g>
<path style="fill:#F0EEEE;" d="M74.037,144.117v8.945c0,10.757,8.72,19.477,19.477,19.477h284.379
	c10.757,0,19.477-8.72,19.477-19.477v-8.945c0-10.757-8.72-19.477-19.477-19.477H93.515C82.758,124.64,74.037,133.36,74.037,144.117
	z"/>
<g>
	<path style="fill:#EF9AD3;" d="M74.037,144.117v8.945c0,1.033,0.104,2.039,0.259,3.028h322.816
		c0.155-0.989,0.259-1.995,0.259-3.028v-8.945c0-1.033-0.104-2.038-0.259-3.027H74.296
		C74.141,142.079,74.037,143.085,74.037,144.117z"/>
	<path style="fill:#EF9AD3;" d="M345.786,500.05c-13.123-17.799-20.059-38.926-20.059-61.097c0-19.621,5.536-38.706,16.01-55.19
		c2.06-3.241,1.338-7.514-1.67-9.899c-11.814-9.368-25.929-15.33-40.817-17.24c-2.144-0.274-4.291,0.384-5.909,1.808
		s-2.546,3.476-2.546,5.631v19.739c0,30.377-24.714,55.091-55.091,55.091s-55.091-24.714-55.091-55.091v-19.739
		c0-2.155-0.928-4.207-2.546-5.631c-1.618-1.425-3.771-2.083-5.909-1.808c-14.889,1.91-29.004,7.872-40.817,17.24
		c-3.008,2.386-3.729,6.658-1.67,9.899c10.474,16.484,16.01,35.569,16.01,55.19c0,22.171-6.936,43.298-20.059,61.097
		c-1.679,2.277-1.934,5.306-0.657,7.832c1.275,2.525,3.864,4.118,6.694,4.118h208.09c2.83,0,5.419-1.593,6.694-4.118
		C347.72,505.355,347.465,502.327,345.786,500.05z"/>
</g>
<g>
	<path style="fill:#D67ABC;" d="M331.545,367.945c-2.175-1.322-4.419-2.541-6.719-3.662c-0.198-0.096-0.396-0.193-0.595-0.288
		c-2.189-1.046-4.431-1.996-6.72-2.85c-0.316-0.118-0.633-0.232-0.951-0.346c-0.919-0.33-1.846-0.644-2.78-0.942
		c-0.237-0.076-0.472-0.158-0.71-0.231c-1.103-0.341-2.219-0.655-3.341-0.951c-0.353-0.093-0.707-0.179-1.062-0.268
		c-0.899-0.224-1.803-0.433-2.714-0.628c-0.303-0.065-0.604-0.135-0.907-0.196c-1.141-0.23-2.292-0.435-3.449-0.618
		c-0.344-0.054-0.689-0.101-1.034-0.151c-0.586-0.085-1.177-0.153-1.767-0.225c-1.991-0.134-3.954,0.517-5.458,1.841
		c-0.807,0.71-1.442,1.576-1.876,2.534c18.224,6.653,33.474,19.525,43.172,36.037c2.034-4.561,4.4-8.988,7.101-13.239
		c1.928-3.034,1.418-6.971-1.121-9.419c-2.86-2.311-5.866-4.447-9.02-6.368C331.579,367.966,331.562,367.955,331.545,367.945z"/>
	<path style="fill:#D67ABC;" d="M346.443,507.882c1.218-2.41,1.026-5.27-0.45-7.506v4.124c0,4.143-3.357,7.5-7.5,7.5h1.256
		C342.579,512,345.168,510.407,346.443,507.882z"/>
</g>
<g>
</g>
<g>
</g>
<g>
</g>
<g>
</g>
<g>
</g>
<g>
</g>
<g>
</g>
<g>
</g>
<g>
</g>
<g>
</g>
<g>
</g>
<g>
</g>
<g>
</g>
<g>
</g>
<g>
</g>
</svg>
