<?xml version="1.0" encoding="iso-8859-1"?>
<!-- Generator: Adobe Illustrator 19.0.0, SVG Export Plug-In . SVG Version: 6.00 Build 0)  -->
<svg version="1.1" id="Capa_1" xmlns="http://www.w3.org/2000/svg" xmlns:xlink="http://www.w3.org/1999/xlink" x="0px" y="0px"
	 viewBox="0 0 511.999 511.999" style="enable-background:new 0 0 511.999 511.999;" xml:space="preserve">
<path style="fill:#FA8500;" d="M395.377,58.384c-24.512-30.608-58.373-50.041-97.923-56.198
	c-41.957-6.532-78.309,3.056-96.244,9.352c-21.36,7.499-43.964,19.889-50.269,34.065c-14.151,0.53-26.827,7.386-36.188,19.728
	C89.135,99.105,90.5,167.298,118.228,239.059c1.032,2.67,3.494,4.521,6.346,4.769l19.639,1.71c2.184,0.184,4.343-0.585,5.908-2.123
	c1.564-1.537,2.377-3.682,2.225-5.87c-0.154-2.208-0.232-4.513-0.232-6.849v-25.329c20.819-18.771,31.503-45.269,30.053-73.504
	c26.151,22.566,82.33,55.89,179.159,45.546v53.287c0,8.431-1.001,16.789-2.975,24.844c-0.521,2.127-0.086,4.375,1.189,6.154
	c1.275,1.78,3.265,2.913,5.446,3.103l10.71,0.931c0.219,0.02,0.436,0.028,0.652,0.028c2.919,0,5.6-1.703,6.825-4.396
	c0.64-1.406,15.768-34.928,25.148-76.473C421.213,127.776,416.859,85.216,395.377,58.384z"/>
<path style="fill:#CE6A06;" d="M395.377,58.384c-24.512-30.608-58.373-50.041-97.923-56.198
	c-14.959-2.329-29.199-2.602-42.153-1.713c4.969,0.352,10.045,0.909,15.206,1.713c39.55,6.157,73.411,25.59,97.923,56.198
	c21.481,26.832,25.836,69.393,12.941,126.502c-7.525,33.33-18.743,61.477-23.219,72.039c-0.09,1.688,0.385,3.372,1.385,4.768
	c1.275,1.78,3.265,2.913,5.446,3.103l10.71,0.931c0.219,0.02,0.436,0.028,0.652,0.028c2.919,0,5.6-1.703,6.825-4.396
	c0.64-1.406,15.768-34.928,25.148-76.473C421.213,127.776,416.859,85.216,395.377,58.384z"/>
<g>
	<path style="fill:#FA9E3E;" d="M126.563,224.001h49.367v56.608h-49.367c-15.631,0-28.304-12.672-28.304-28.304
		S110.93,224.001,126.563,224.001z"/>
	<path style="fill:#FA9E3E;" d="M386.873,224.001h-49.367v56.608h49.367c15.631,0,28.304-12.672,28.304-28.304
		S402.505,224.001,386.873,224.001z"/>
</g>
<path style="fill:#484655;" d="M309.643,355.95H203.793c-45.688,0-82.859,37.17-82.859,82.859V504.5c0,4.143,3.358,7.5,7.5,7.5
	h256.568c4.142,0,7.5-3.357,7.5-7.5v-65.691C392.502,393.12,355.331,355.95,309.643,355.95z"/>
<g>
	<path style="fill:#35343F;" d="M309.643,355.95h-24.49c45.688,0,82.859,37.17,82.859,82.859V504.5c0,4.143-3.358,7.5-7.5,7.5h24.49
		c4.142,0,7.5-3.357,7.5-7.5v-65.691C392.502,393.12,355.331,355.95,309.643,355.95z"/>
	<path style="fill:#35343F;" d="M298.817,267.739v95.346c-28.066,23.004-56.131,23.004-84.197,0v-95.346H298.817z"/>
</g>
<path style="fill:#F0EEEE;" d="M238.385,377.065c12.221,4.362,24.443,4.362,36.665,0v-59.391h-36.665V377.065z"/>
<path style="fill:#FFB56B;" d="M368.824,168.963c0,2.718,0,5.436,0,8.155c0,6.207,0,12.413,0,18.62c0,6.775,0,13.548,0,20.323
	c0,4.421,0,8.842,0,13.262c0,7.693-0.618,15.313-2.068,22.876c-2.327,12.135-6.756,23.909-12.963,34.591
	c-6.163,10.605-14.015,20.12-23.215,28.228c-6.139,5.41-12.903,10.115-20.074,14.052c-6.222,3.417-12.806,6.287-19.588,8.389
	c-8.529,2.643-17.208,4.342-26.115,5.042c-9.504,0.747-19.162,0.156-28.529-1.574c-12.008-2.217-23.606-6.418-34.264-12.375
	c-10.815-6.044-20.605-13.915-28.86-23.151c-7.793-8.72-14.219-18.638-18.959-29.331c-4.91-11.078-7.986-22.946-9.091-35.012
	c-0.571-6.234-0.485-12.475-0.485-18.724c0-6.178,0-12.355,0-18.533c0-0.484-0.163-1.308,0-1.772c0.175-0.5,1.113-1.031,1.53-1.396
	c1.117-0.975,2.209-1.977,3.276-3.007c3.934-3.796,7.513-7.96,10.638-12.447c5.752-8.26,9.902-17.576,12.27-27.354
	c2.202-9.088,2.886-18.522,2.19-27.841c-0.266-3.564-0.733-7.113-1.399-10.624c-0.204-1.078,0.593-2.083,1.689-2.102
	c1.167-0.021,2.639,0.035,2.639,0.035s0.401,0.173,0.669,0.45c1.085,1.123,2.192,2.224,3.318,3.306
	c2.71,2.605,5.529,5.096,8.435,7.48c7.732,6.346,16.072,11.941,24.804,16.813c11.448,6.389,23.576,11.53,36.067,15.5
	c15.706,4.993,31.973,8.135,48.368,9.722c20.318,1.967,40.825,1.56,61.111-0.587C363.089,169.676,365.958,169.337,368.824,168.963z"
	/>
<path style="fill:#19303F;" d="M256.718,288.494c-13.493,0-26.141-6.632-33.832-17.738c-2.358-3.405-1.509-8.078,1.897-10.435
	c3.405-2.358,8.078-1.51,10.435,1.896c4.89,7.063,12.926,11.278,21.5,11.278c8.573,0,16.61-4.216,21.499-11.278
	c2.358-3.404,7.029-4.256,10.436-1.896c3.405,2.357,4.254,7.03,1.896,10.435C282.859,281.862,270.212,288.494,256.718,288.494z"/>
<path style="fill:#EF9245;" d="M368.824,168.963c0,2.813,0,5.625,0,8.438c0,6.411,0,12.821,0,19.231c0,6.847,0,13.693,0,20.54
	c0,4.216,0,8.433,0,12.648c0,9.352-1.026,18.616-3.242,27.707c-3.014,12.36-8.211,24.187-15.214,34.805
	c-6.893,10.449-15.53,19.689-25.44,27.33c-6.215,4.792-12.978,8.949-20.078,12.297c-5.872,2.769-11.97,5.098-18.24,6.8
	c-9.357,2.54-18.952,3.895-28.645,4.022c-2.418,0.031-4.83-0.039-7.245-0.144c10.348-0.576,20.594-2.754,30.272-6.464
	c9.348-3.583,18.144-8.579,26.019-14.758c7.854-6.163,14.783-13.492,20.493-21.681c5.747-8.242,10.247-17.343,13.29-26.919
	c3.128-9.842,4.689-20.141,4.702-30.465c0.004-2.803,0-5.605,0-8.408c0-6.441,0-12.88,0-19.321c0-7.414,0-14.827,0-22.241
	c0-5.616,0-11.232,0-16.846c0-1.245-0.199-2.678,0-3.91c0.013-0.079-0.044-0.275,0-0.341c0.18-0.268,1.467-0.155,1.85-0.181
	c3.589-0.245,7.175-0.547,10.754-0.904C361.679,169.841,365.255,169.428,368.824,168.963z"/>
<g>
	<path style="fill:#19303F;" d="M311.039,232.973c-4.142,0-7.5-3.357-7.5-7.5v-2c0-4.143,3.358-7.5,7.5-7.5
		c4.142,0,7.5,3.357,7.5,7.5v2C318.539,229.616,315.181,232.973,311.039,232.973z"/>
	<path style="fill:#19303F;" d="M202.397,232.973c-4.142,0-7.5-3.357-7.5-7.5v-2c0-4.143,3.358-7.5,7.5-7.5s7.5,3.357,7.5,7.5v2
		C209.896,229.616,206.538,232.973,202.397,232.973z"/>
</g>
<g>
	<path style="fill:#F0EEEE;" d="M256.724,426.476c-2.393,0-4.745-1.143-6.197-3.267c-2.338-3.419-1.463-8.086,1.956-10.425
		l83.289-56.97c3.419-2.339,8.087-1.462,10.425,1.956c2.338,3.419,1.463,8.086-1.956,10.425l-83.289,56.97
		C259.657,426.051,258.183,426.476,256.724,426.476z"/>
	<path style="fill:#F0EEEE;" d="M255.212,426.476c-1.458,0-2.933-0.425-4.228-1.311l-83.289-56.97
		c-3.419-2.339-4.294-7.006-1.956-10.425c2.338-3.419,7.006-4.295,10.425-1.956l83.289,56.97c3.419,2.339,4.294,7.006,1.956,10.425
		C259.955,425.334,257.603,426.476,255.212,426.476z"/>
</g>
<path style="fill:#FFB700;" d="M275.051,426.475h-10.833v-7.5c0-4.143-3.358-7.5-7.5-7.5c-4.142,0-7.5,3.357-7.5,7.5v7.5h-10.834
	c-4.142,0-7.5,3.357-7.5,7.5c0,4.143,3.358,7.5,7.5,7.5h10.834v29.194c0,4.143,3.358,7.5,7.5,7.5c4.142,0,7.5-3.357,7.5-7.5v-29.194
	h10.833c4.142,0,7.5-3.357,7.5-7.5C282.55,429.833,279.193,426.475,275.051,426.475z"/>
<g>
</g>
<g>
</g>
<g>
</g>
<g>
</g>
<g>
</g>
<g>
</g>
<g>
</g>
<g>
</g>
<g>
</g>
<g>
</g>
<g>
</g>
<g>
</g>
<g>
</g>
<g>
</g>
<g>
</g>
</svg>
