<?xml version="1.0" encoding="iso-8859-1"?>
<!-- Generator: Adobe Illustrator 19.0.0, SVG Export Plug-In . SVG Version: 6.00 Build 0)  -->
<svg version="1.1" id="Capa_1" xmlns="http://www.w3.org/2000/svg" xmlns:xlink="http://www.w3.org/1999/xlink" x="0px" y="0px"
	 viewBox="0 0 512 512" style="enable-background:new 0 0 512 512;" xml:space="preserve">
<g>
	<path style="fill:#9E9D9D;" d="M407.195,155.833h-23.55c-4.142,0-7.5,3.358-7.5,7.5v39.333c0,4.142,3.358,7.5,7.5,7.5h23.55
		c12.839,0,23.283-10.445,23.283-23.284v-7.766C430.477,166.278,420.032,155.833,407.195,155.833z"/>
	<path style="fill:#9E9D9D;" d="M128.355,155.833h-23.549c-12.839,0-23.284,10.445-23.284,23.284v7.766
		c0,12.839,10.445,23.284,23.284,23.284h23.549c4.142,0,7.5-3.358,7.5-7.5v-39.333C135.855,159.191,132.497,155.833,128.355,155.833
		z"/>
</g>
<path style="fill:#49B6F2;" d="M308.927,355.944H203.072c-45.69,0-82.862,37.172-82.862,82.862V504.5c0,4.142,3.358,7.5,7.5,7.5
	h256.578c4.143,0,7.5-3.358,7.5-7.5v-65.694C391.789,393.116,354.617,355.944,308.927,355.944z"/>
<path style="fill:#2E93CC;" d="M308.927,355.944h-27.333c45.69,0,82.861,37.172,82.861,82.862V504.5c0,4.142-3.357,7.5-7.5,7.5
	h27.333c4.143,0,7.5-3.358,7.5-7.5v-65.694C391.789,393.116,354.617,355.944,308.927,355.944z"/>
<path style="fill:#C7C7C7;" d="M356.346,512l-8.731-58.503c-0.648-4.342-3.754-7.497-7.379-7.497h-168.47
	c-3.625,0-6.731,3.156-7.379,7.497L155.654,512H356.346z"/>
<g>
	<path style="fill:#19303F;" d="M322.69,476.5c-4.142,0-7.5-3.358-7.5-7.5V364.7c0-4.142,3.358-7.5,7.5-7.5
		c4.143,0,7.5,3.358,7.5,7.5V469C330.19,473.142,326.833,476.5,322.69,476.5z"/>
	<path style="fill:#19303F;" d="M189.309,476.5c-4.142,0-7.5-3.358-7.5-7.5V364.7c0-4.142,3.358-7.5,7.5-7.5s7.5,3.358,7.5,7.5V469
		C196.809,473.142,193.451,476.5,189.309,476.5z"/>
</g>
<path style="fill:#FFB56B;" d="M208.257,258.913v102.829c0,22.289,15.275,41.008,35.928,46.266l11.814-11.814l11.815,11.814
	c20.652-5.258,35.928-23.977,35.928-46.266V258.913H208.257z"/>
<g>
	<path style="fill:#68C8FC;" d="M328.539,359.391l-14.585-13.833c-2.605-2.473-6.601-2.749-9.525-0.658l-52.793,37.774
		c-1.792,1.282-2.93,3.288-3.11,5.484c-0.181,2.196,0.613,4.361,2.171,5.919l39.314,39.315c1.42,1.419,3.333,2.197,5.304,2.197
		c0.456,0,0.915-0.042,1.372-0.126c2.43-0.452,4.482-2.073,5.483-4.332l28.064-63.255
		C331.521,364.973,330.841,361.576,328.539,359.391z"/>
	<path style="fill:#68C8FC;" d="M263.474,388.158c-0.181-2.196-1.318-4.202-3.11-5.484L207.57,344.9
		c-2.924-2.092-6.919-1.815-9.525,0.658l-14.585,13.833c-2.303,2.184-2.981,5.582-1.694,8.483l28.063,63.255
		c1.002,2.259,3.054,3.88,5.484,4.332c0.457,0.085,0.915,0.126,1.371,0.126c1.971,0,3.884-0.777,5.303-2.197l39.315-39.315
		C262.862,392.519,263.656,390.354,263.474,388.158z"/>
</g>
<path style="fill:#C7C7C7;" d="M297.539,0H214.46c-56.773,0-102.961,46.188-102.961,102.961v187.378
	c0,25.927,19.334,48.203,44.973,51.816c33.021,4.653,66.274,6.98,99.527,6.98s66.507-2.327,99.527-6.98
	c25.639-3.613,44.973-25.889,44.973-51.816V102.961C400.5,46.188,354.312,0,297.539,0z"/>
<path style="fill:#B2B1AF;" d="M297.539,0h-26.5C327.812,0,374,46.188,374,102.961v187.378c0,25.927-19.334,48.203-44.973,51.816
	c-28.635,4.035-57.445,6.314-86.277,6.85c4.416,0.082,8.833,0.13,13.25,0.13c33.253,0,66.507-2.327,99.527-6.98
	c25.639-3.613,44.973-25.889,44.973-51.816V102.961C400.5,46.188,354.312,0,297.539,0z"/>
<path style="fill:#5880A2;" d="M351.425,151.677H160.574c-4.142,0-7.5,3.358-7.5,7.5v74.669c0,4.142,3.358,7.5,7.5,7.5h190.852
	c4.143,0,7.5-3.358,7.5-7.5v-74.669C358.925,155.035,355.568,151.677,351.425,151.677z"/>
<g>
</g>
<g>
</g>
<g>
</g>
<g>
</g>
<g>
</g>
<g>
</g>
<g>
</g>
<g>
</g>
<g>
</g>
<g>
</g>
<g>
</g>
<g>
</g>
<g>
</g>
<g>
</g>
<g>
</g>
</svg>
