<?xml version="1.0" encoding="iso-8859-1"?>
<!-- Generator: Adobe Illustrator 19.0.0, SVG Export Plug-In . SVG Version: 6.00 Build 0)  -->
<svg version="1.1" id="Capa_1" xmlns="http://www.w3.org/2000/svg" xmlns:xlink="http://www.w3.org/1999/xlink" x="0px" y="0px"
	 viewBox="0 0 512 512" style="enable-background:new 0 0 512 512;" xml:space="preserve">
<path style="fill:#484655;" d="M279.138,38.109h-46.276c-72.934,0-132.27,59.336-132.27,132.271v90.301
	c0,76.18,61.977,138.157,138.156,138.157h34.505c76.18,0,138.156-61.978,138.156-138.157V170.38
	C411.409,97.445,352.073,38.109,279.138,38.109z"/>
<path style="fill:#35343F;" d="M279.138,38.109h-27.12c72.934,0,132.271,59.336,132.271,132.271v90.301
	c0,76.18-61.977,138.157-138.156,138.157h27.12c76.18,0,138.156-61.978,138.156-138.157V170.38
	C411.409,97.445,352.073,38.109,279.138,38.109z"/>
<path style="fill:#FB403F;" d="M308.927,355.944H203.073c-45.69,0-82.862,37.172-82.862,82.862V504.5c0,4.143,3.358,7.5,7.5,7.5
	h256.578c4.142,0,7.5-3.357,7.5-7.5v-65.694C391.789,393.116,354.617,355.944,308.927,355.944z"/>
<path style="fill:#C21C1C;" d="M308.927,355.944H285.25c45.69,0,82.862,37.172,82.862,82.862V504.5c0,4.143-3.358,7.5-7.5,7.5
	h23.677c4.142,0,7.5-3.357,7.5-7.5v-65.694C391.789,393.116,354.617,355.944,308.927,355.944z"/>
<path style="fill:#F0EEEE;" d="M352.955,434.145l-48.233-90.667c-1.302-2.448-3.849-3.978-6.622-3.978h-84.2
	c-2.773,0-5.319,1.529-6.622,3.978l-48.233,90.667c-1.294,2.432-1.15,5.377,0.373,7.672c1.524,2.294,4.177,3.579,6.926,3.319
	l37.245-3.384l47.196,45.64c1.454,1.405,3.334,2.108,5.214,2.108c1.88,0,3.76-0.703,5.214-2.108l47.196-45.64l37.245,3.384
	c2.743,0.259,5.402-1.025,6.926-3.319C354.105,439.522,354.249,436.577,352.955,434.145z"/>
<g>
	<path style="fill:#FA9E3E;" d="M298.1,363.081v-95.35h-84.2v95.35l38.772,109.518c1.11,3.137,5.546,3.137,6.657,0L298.1,363.081z"
		/>
	<path style="fill:#FA9E3E;" d="M125.839,228.99h49.369v56.61h-49.369c-15.632,0-28.305-12.672-28.305-28.305
		S110.207,228.99,125.839,228.99z"/>
	<path style="fill:#FA9E3E;" d="M386.161,228.99h-49.369v56.61h49.369c15.632,0,28.305-12.672,28.305-28.305
		S401.794,228.99,386.161,228.99z"/>
</g>
<path style="fill:#FFB56B;" d="M332.879,117.281c19.458,0,35.231,15.774,35.231,35.231v78.169c0,61.91-50.19,112.11-112.11,112.11
	s-112.11-50.2-112.11-112.11v-19.497c0-6.26,3.721-11.92,9.468-14.402l20.842-9.001c5.77-2.49,11.99-3.78,18.29-3.78h50.56
	c40.87,0,75.08-28.5,83.83-66.72C326.88,117.281,332.879,117.281,332.879,117.281z"/>
<path style="fill:#EF9245;" d="M368.11,230.681v-78.169c0-15.28-9.729-28.284-23.329-33.165v122.996
	c0,53.578-41.949,97.354-94.794,100.286h0.002c0.98,0.052,1.962,0.091,2.948,0.118c0.017,0.001,0.034,0.002,0.05,0.002
	c1.001,0.027,2.004,0.041,3.011,0.041c0.001,0,0.001,0,0.002,0C317.92,342.791,368.11,292.591,368.11,230.681z"/>
<g>
	<path style="fill:#19303F;" d="M310.324,232.962c-4.142,0-7.5-3.357-7.5-7.5v-2c0-4.143,3.358-7.5,7.5-7.5s7.5,3.357,7.5,7.5v2
		C317.824,229.605,314.466,232.962,310.324,232.962z"/>
	<path style="fill:#19303F;" d="M201.677,232.962c-4.142,0-7.5-3.357-7.5-7.5v-2c0-4.143,3.358-7.5,7.5-7.5s7.5,3.357,7.5,7.5v2
		C209.177,229.605,205.819,232.962,201.677,232.962z"/>
	<path style="fill:#19303F;" d="M256,288.485c-13.494,0-26.142-6.632-33.833-17.739c-2.358-3.405-1.509-8.078,1.897-10.436
		c3.405-2.358,8.078-1.509,10.435,1.897c4.89,7.063,12.927,11.278,21.501,11.278c8.573,0,16.611-4.216,21.5-11.278
		c2.358-3.404,7.029-4.256,10.436-1.897c3.405,2.357,4.254,7.03,1.896,10.436C282.142,281.853,269.494,288.485,256,288.485z"/>
</g>
<path style="fill:#FB403F;" d="M372.216,72.169l-46.5-68.866c-1.702-2.519-4.757-3.759-7.731-3.148l-61.976,12.79L194.708,0.159
	c-2.983-0.623-6.043,0.621-7.747,3.145l-46.5,68.866c-1.426,2.112-1.682,4.803-0.68,7.146c1.001,2.343,3.124,4.017,5.636,4.445
	l109.324,18.634c0.417,0.071,0.839,0.106,1.26,0.106c0.419,0,0.838-0.035,1.252-0.105l110-18.634
	c2.514-0.426,4.639-2.099,5.642-4.442C373.898,76.975,373.642,74.283,372.216,72.169z"/>
<path style="fill:#C21C1C;" d="M372.216,72.169l-46.5-68.866c-1.702-2.519-4.757-3.759-7.731-3.148l-21.409,4.418
	c0.481,0.432,0.926,0.91,1.299,1.461l49.752,73.682c1.44,2.134,1.75,4.817,0.878,7.221l18.748-3.176
	c2.514-0.426,4.639-2.099,5.642-4.442C373.898,76.975,373.642,74.283,372.216,72.169z"/>
<path style="fill:#F0EEEE;" d="M304.667,45.834h-34c-1.989,0-3.897,0.79-5.303,2.197l-9.194,9.194l-9.195-9.195
	c-1.406-1.406-3.314-2.196-5.303-2.196h-34c-4.142,0-7.5,3.357-7.5,7.5s3.358,7.5,7.5,7.5h30.893l10.993,10.993
	c0.313,0.526,0.687,1.025,1.139,1.477c1.464,1.464,3.384,2.196,5.303,2.196c0.056,0,0.113-0.007,0.169-0.008
	c0.056,0.001,0.113,0.008,0.169,0.008c1.919,0,3.839-0.732,5.303-2.196c0.453-0.453,0.827-0.953,1.14-1.479l10.991-10.991h30.894
	c4.142,0,7.5-3.357,7.5-7.5S308.809,45.834,304.667,45.834z"/>
<g>
</g>
<g>
</g>
<g>
</g>
<g>
</g>
<g>
</g>
<g>
</g>
<g>
</g>
<g>
</g>
<g>
</g>
<g>
</g>
<g>
</g>
<g>
</g>
<g>
</g>
<g>
</g>
<g>
</g>
</svg>
