<?xml version="1.0" encoding="iso-8859-1"?>
<!-- Generator: Adobe Illustrator 19.0.0, SVG Export Plug-In . SVG Version: 6.00 Build 0)  -->
<svg version="1.1" id="Capa_1" xmlns="http://www.w3.org/2000/svg" xmlns:xlink="http://www.w3.org/1999/xlink" x="0px" y="0px"
	 viewBox="0 0 512 512" style="enable-background:new 0 0 512 512;" xml:space="preserve">
<path style="fill:#5CDBF1;" d="M308.927,355.943H203.073c-45.69,0-82.862,37.172-82.862,82.862V504.5c0,4.143,3.358,7.5,7.5,7.5
	h256.578c4.142,0,7.5-3.357,7.5-7.5v-65.694C391.789,393.115,354.617,355.943,308.927,355.943z"/>
<path style="fill:#37B7C4;" d="M308.927,355.943h-28c45.69,0,82.862,37.172,82.862,82.862V504.5c0,4.143-3.358,7.5-7.5,7.5h28
	c4.142,0,7.5-3.357,7.5-7.5v-65.694C391.789,393.115,354.617,355.943,308.927,355.943z"/>
<path style="fill:#5880A2;" d="M357.5,512V375.633c0-2.371-1.13-4.58-3.012-5.991c-6.379-4.216-13.364-7.584-20.805-9.919
	c-0.075-0.024-0.15-0.049-0.225-0.072c-1.104-0.343-2.222-0.655-3.345-0.952c-0.343-0.09-0.686-0.179-1.03-0.265
	c-0.945-0.237-1.897-0.456-2.855-0.661c-0.576-0.122-1.154-0.233-1.733-0.343c-0.433-0.083-0.868-0.158-1.303-0.233
	c-1.132-0.195-2.269-0.371-3.415-0.521c-0.15-0.02-0.301-0.039-0.451-0.057c-2.874-0.329-5.687,1.005-7.227,3.459l-56.107,89.436
	L199.7,360.093c-1.545-2.453-4.361-3.786-7.239-3.446c-0.127,0.016-0.254,0.032-0.381,0.048c-1.139,0.151-2.269,0.329-3.394,0.525
	c-0.412,0.072-0.824,0.142-1.234,0.221c-0.592,0.113-1.183,0.23-1.771,0.355c-0.932,0.2-1.859,0.412-2.778,0.643
	c-0.36,0.09-0.718,0.185-1.077,0.279c-1.103,0.293-2.201,0.598-3.285,0.935c-0.077,0.024-0.153,0.05-0.23,0.074
	c-7.437,2.334-14.418,5.701-20.794,9.915c-1.883,1.41-3.013,3.62-3.013,5.992V512H357.5z"/>
<g>
	<path style="fill:#3F6582;" d="M357.5,407.172v-31.54c0-2.371-1.13-4.58-3.012-5.991c-1.395-0.922-2.824-1.796-4.275-2.635
		c-0.297-0.171-0.592-0.345-0.891-0.513c-0.621-0.349-1.248-0.689-1.878-1.022c-0.423-0.223-0.85-0.439-1.277-0.655
		c-0.72-0.365-1.444-0.722-2.175-1.066c-0.78-0.366-1.564-0.725-2.358-1.068c-0.467-0.202-0.94-0.392-1.412-0.586
		c-0.669-0.274-1.341-0.541-2.019-0.798c-0.436-0.165-0.872-0.332-1.312-0.49c-1.059-0.381-2.125-0.748-3.204-1.086
		c-0.001,0-0.003-0.001-0.004-0.001c-0.075-0.024-0.15-0.049-0.225-0.072c-1.104-0.343-2.222-0.655-3.345-0.952
		c-0.343-0.09-0.686-0.179-1.03-0.265c-0.945-0.237-1.897-0.456-2.855-0.661c-0.576-0.122-1.154-0.233-1.733-0.343
		c-0.337-0.064-0.675-0.122-1.014-0.182c-0.097-0.017-0.193-0.035-0.29-0.052c-1.131-0.195-2.269-0.371-3.414-0.521
		c-0.151-0.02-0.302-0.039-0.453-0.058c-2.874-0.329-5.687,1.005-7.227,3.459l-0.991,1.58
		C332.067,369.887,348.889,386.405,357.5,407.172z"/>
	<path style="fill:#3F6582;" d="M356.289,512h1.211v-0.106C357.105,511.958,356.702,512,356.289,512z"/>
</g>
<path style="fill:#FA9E3E;" d="M298.1,356.357V267.73h-84.2v88.627c0,4.332,1.585,8.515,4.455,11.759l13.037,14.736
	c13.076,14.78,36.139,14.78,49.215,0l13.038-14.736C296.515,364.871,298.1,360.689,298.1,356.357z"/>
<path style="fill:#FFB56B;" d="M256,342.79L256,342.79c-61.919,0-112.115-50.195-112.115-112.115V117.281h224.229v113.394
	C368.115,292.595,317.919,342.79,256,342.79z"/>
<path style="fill:#EF9245;" d="M344.781,117.281v125.062c0,53.578-41.949,97.354-94.795,100.286
	c1.992,0.105,3.996,0.161,6.014,0.161l0,0c61.919,0,112.115-50.195,112.115-112.115V117.281H344.781z"/>
<g>
	<path style="fill:#19303F;" d="M310.324,232.962c-4.142,0-7.5-3.357-7.5-7.5v-2c0-4.143,3.358-7.5,7.5-7.5s7.5,3.357,7.5,7.5v2
		C317.824,229.605,314.466,232.962,310.324,232.962z"/>
	<path style="fill:#19303F;" d="M201.676,232.962c-4.142,0-7.5-3.357-7.5-7.5v-2c0-4.143,3.358-7.5,7.5-7.5s7.5,3.357,7.5,7.5v2
		C209.176,229.605,205.818,232.962,201.676,232.962z"/>
	<path style="fill:#19303F;" d="M256,288.484c-13.494,0-26.142-6.632-33.833-17.739c-2.358-3.405-1.509-8.078,1.896-10.435
		c3.406-2.358,8.078-1.509,10.436,1.896c4.89,7.063,12.927,11.278,21.501,11.278c8.573,0,16.611-4.216,21.5-11.278
		c2.358-3.404,7.029-4.256,10.436-1.896c3.405,2.357,4.254,7.03,1.896,10.435C282.142,281.853,269.494,288.484,256,288.484z"/>
</g>
<path style="fill:#FA8500;" d="M256,26.427c-81.883,0-148.5,76.309-148.5,170.104c0,47.5,17.515,93.173,48.054,125.309
	c2.274,2.396,5.848,3.021,8.8,1.537c2.952-1.482,4.587-4.72,4.028-7.975c-6.445-37.473-4.135-95.685,15.069-140.39
	c14.024,12.742,43.001,33.804,79.597,40.157c2.921,0.505,5.871-0.756,7.519-3.224c1.648-2.467,1.687-5.674,0.099-8.18
	c-2.194-3.463-5.468-12.428-7.297-21.861c3.532,3.355,7.569,6.744,12.012,10.054c8.836,6.582,26.678,18.255,46.884,22.481
	c1.737,0.363,6.268,3.012,10.982,10.433c18.249,28.73,9.679,76.285,5.147,95.398c-0.766,3.23,0.683,6.58,3.562,8.233
	c1.166,0.67,2.454,0.997,3.734,0.997c1.88,0,3.742-0.706,5.173-2.067C384.95,294.989,404.5,247.277,404.5,196.53
	C404.5,102.735,337.883,26.427,256,26.427z"/>
<path style="fill:#CE6A06;" d="M256,26.427c-4.21,0-8.377,0.213-12.5,0.608c76.055,7.296,136,80.523,136,169.495
	c0,43.113-14.117,84.028-39.263,115.258c-0.637,3.214-1.272,6.074-1.842,8.481c-0.766,3.23,0.683,6.58,3.562,8.233
	c1.166,0.67,2.454,0.997,3.734,0.997c1.88,0,3.742-0.706,5.173-2.067C384.95,294.989,404.5,247.277,404.5,196.53
	C404.5,102.735,337.883,26.427,256,26.427z"/>
<path style="fill:#5CDBF1;" d="M353.908,66.631l-5.281-45.271C347.206,9.183,336.889,0,324.629,0H187.371
	c-12.26,0-22.577,9.183-23.998,21.36l0,0l-5.282,45.271c-0.248,2.126,0.424,4.257,1.847,5.855c1.423,1.599,3.461,2.514,5.602,2.514
	h180.917c2.141,0,4.179-0.915,5.602-2.514C353.484,70.888,354.156,68.757,353.908,66.631z"/>
<path style="fill:#37B7C4;" d="M353.908,66.631l-5.281-45.271C347.206,9.183,336.889,0,324.629,0h-30.566
	c12.26,0,22.577,9.183,23.998,21.36l5.281,45.271c0.248,2.126-0.424,4.257-1.847,5.855c-1.423,1.599-3.461,2.514-5.602,2.514h30.566
	c2.141,0,4.179-0.915,5.602-2.514C353.484,70.888,354.156,68.757,353.908,66.631z"/>
<path style="fill:#5880A2;" d="M368.886,66.196l-6-34C362.253,28.612,359.139,26,355.5,26h-199c-3.639,0-6.753,2.612-7.386,6.196
	l-6,34c-0.385,2.184,0.215,4.426,1.64,6.124c1.425,1.699,3.528,2.68,5.746,2.68h211c2.217,0,4.321-0.98,5.746-2.68
	C368.671,70.622,369.271,68.38,368.886,66.196z"/>
<path style="fill:#3F6582;" d="M368.886,66.196l-6-34C362.253,28.612,359.139,26,355.5,26h-31.808c3.639,0,6.753,2.612,7.386,6.196
	l6,34c0.385,2.184-0.215,4.426-1.64,6.124c-1.425,1.699-3.528,2.68-5.746,2.68H361.5c2.217,0,4.321-0.98,5.746-2.68
	C368.671,70.622,369.271,68.38,368.886,66.196z"/>
<g>
	<path style="fill:#F0EEEE;" d="M268.435,375.386l-4.196,19.078c-0.719,19.493,14.198,26.368,24.177,23.794
		c18.859-4.863,24.102,11.816,28.768,19.402c1.49,2.423,5.134,1.885,5.893-0.856C340.9,372.44,289.163,357.891,268.435,375.386z"/>
	<path style="fill:#F0EEEE;" d="M243.565,375.386l4.196,19.078c0.719,19.493-14.198,26.368-24.177,23.794
		c-18.859-4.863-24.102,11.816-28.768,19.402c-1.49,2.423-5.134,1.885-5.893-0.856C171.1,372.44,222.837,357.891,243.565,375.386z"
		/>
</g>
<path style="fill:#D9D4D4;" d="M256,363.807c-9.081,0-16.443,7.362-16.443,16.444v17.871c0,9.081,7.362,16.443,16.443,16.443
	c9.082,0,16.443-7.362,16.443-16.443v-17.871C272.443,371.169,265.082,363.807,256,363.807z"/>
<line style="fill:none;stroke:#FFB700;stroke-width:15;stroke-linecap:round;stroke-linejoin:round;stroke-miterlimit:10;" x1="233.75" y1="477.25" x2="233.75" y2="477.25"/>
<path style="fill:#5CDBF1;" d="M392.894,65.528C390.536,62.066,386.627,60,382.439,60H129.561c-4.188,0-8.097,2.066-10.455,5.528
	s-2.851,7.855-1.317,11.753v0.001l3.925,9.975c4.36,11.082,14.873,18.243,26.783,18.243h215.008c11.91,0,22.423-7.161,26.783-18.243
	l3.924-9.975C395.745,73.384,395.252,68.99,392.894,65.528z"/>
<path style="fill:#37B7C4;" d="M392.894,65.528C390.536,62.066,386.627,60,382.439,60h-33.708c4.188,0,8.097,2.066,10.455,5.528
	c2.358,3.462,2.851,7.855,1.317,11.753l-3.924,9.975c-4.36,11.082-14.874,18.243-26.783,18.243h33.708
	c11.91,0,22.423-7.161,26.783-18.243l3.924-9.975C395.745,73.384,395.252,68.99,392.894,65.528z"/>
<g>
</g>
<g>
</g>
<g>
</g>
<g>
</g>
<g>
</g>
<g>
</g>
<g>
</g>
<g>
</g>
<g>
</g>
<g>
</g>
<g>
</g>
<g>
</g>
<g>
</g>
<g>
</g>
<g>
</g>
</svg>
