<?xml version="1.0" encoding="iso-8859-1"?>
<!-- Generator: Adobe Illustrator 19.0.0, SVG Export Plug-In . SVG Version: 6.00 Build 0)  -->
<svg version="1.1" id="Capa_1" xmlns="http://www.w3.org/2000/svg" xmlns:xlink="http://www.w3.org/1999/xlink" x="0px" y="0px"
	 viewBox="0 0 512 512" style="enable-background:new 0 0 512 512;" xml:space="preserve">
<path style="fill:#F0EEEE;" d="M310.857,350.8H201.143c-47.205,0-85.609,38.404-85.609,85.61v68.09c0,4.142,3.357,7.5,7.5,7.5
	h265.934c4.143,0,7.5-3.358,7.5-7.5v-68.09C396.467,389.204,358.063,350.8,310.857,350.8z"/>
<path style="fill:#D9D4D4;" d="M310.857,350.8H283.19c47.205,0,85.609,38.404,85.609,85.61v68.09c0,4.142-3.357,7.5-7.5,7.5h27.667
	c4.143,0,7.5-3.358,7.5-7.5v-68.09C396.467,389.204,358.063,350.8,310.857,350.8z"/>
<path style="fill:#FB403F;" d="M371.945,376.452c-16.238-16.542-37.933-25.652-61.088-25.652H201.143
	c-23.155,0-44.85,9.11-61.088,25.652c-2.02,2.058-2.681,5.092-1.701,7.804c9.091,25.148,14.428,54.236,15.029,81.908
	c0.088,4.078,3.419,7.337,7.498,7.337h190.238c4.079,0,7.41-3.259,7.498-7.337c0.602-27.671,5.939-56.76,15.029-81.908
	C374.626,381.543,373.965,378.509,371.945,376.452z"/>
<path style="fill:#2A434F;" d="M263.5,512V372.5c0-4.142-3.357-7.5-7.5-7.5s-7.5,3.358-7.5,7.5V512H263.5z"/>
<g>
	<path style="fill:#C21C1C;" d="M365.384,412.524c2.247-9.762,5.009-19.27,8.262-28.268c0.895-2.478,0.406-5.216-1.223-7.242
		c-14.601-15.13-34.693-24.924-57.044-26.093c-0.043-0.002-0.086-0.007-0.129-0.01c-1.455-0.074-2.92-0.111-4.393-0.111H283.19
		C322.106,350.8,355.017,376.909,365.384,412.524z"/>
	<path style="fill:#C21C1C;" d="M310.5,299.5h-109c-4.143,0-7.5,3.358-7.5,7.5v51.3c0,2.795,1.555,5.359,4.034,6.651
		c19.231,10.022,38.599,15.033,57.966,15.033s38.734-5.011,57.966-15.033c2.48-1.292,4.034-3.855,4.034-6.651V307
		C318,302.858,314.643,299.5,310.5,299.5z"/>
</g>
<path style="fill:#F0EEEE;" d="M256,0C160.534,0,82.866,77.668,82.866,173.134c0,95.467,77.668,173.134,173.134,173.134
	S429.134,268.6,429.134,173.134S351.466,0,256,0z"/>
<path style="fill:#D9D4D4;" d="M256,0c-5.5,0-10.938,0.269-16.309,0.774c87.845,8.247,156.825,82.394,156.825,172.36
	c0,89.967-68.98,164.114-156.825,172.361c5.371,0.504,10.808,0.774,16.309,0.774c95.466,0,173.134-77.668,173.134-173.134
	C429.134,77.668,351.466,0,256,0z"/>
<path style="fill:#3D5868;" d="M425.72,138.784c-0.266-1.321-0.883-2.545-1.785-3.545C379.888,86.436,311.05,80.178,256,80.178
	s-123.888,6.258-167.935,55.061c-0.902,1-1.52,2.224-1.785,3.545c-2.266,11.254-3.414,22.811-3.414,34.35
	c0,27.907,6.809,55.652,19.688,80.235c0.698,1.332,1.779,2.423,3.105,3.132c34.86,18.652,84.037,27.718,150.34,27.718
	s115.479-9.066,150.34-27.718c1.326-0.709,2.407-1.8,3.105-3.132c12.88-24.583,19.688-52.329,19.688-80.235
	C429.134,161.595,427.985,150.038,425.72,138.784z"/>
<path style="fill:#2A434F;" d="M428.986,166.268c-0.024-0.618-0.04-1.237-0.071-1.853c-0.049-0.981-0.117-1.961-0.182-2.941
	c-0.031-0.466-0.054-0.934-0.089-1.398c-0.071-0.952-0.161-1.903-0.248-2.854c-0.046-0.5-0.084-1.002-0.134-1.501
	c-0.082-0.817-0.18-1.632-0.274-2.447c-0.074-0.643-0.141-1.289-0.221-1.93c-0.076-0.608-0.167-1.213-0.25-1.82
	c-0.118-0.86-0.231-1.721-0.362-2.577c-0.052-0.344-0.113-0.686-0.167-1.029c-0.179-1.127-0.36-2.254-0.561-3.374
	c-0.007-0.039-0.015-0.079-0.022-0.118c-0.229-1.277-0.476-2.548-0.733-3.816c-0.284-1.253-0.876-2.416-1.738-3.371
	c-12.365-13.7-26.683-24.046-42.102-31.844c9.433,21.346,14.684,44.939,14.684,69.739c0,36.89-11.604,71.115-31.345,99.233
	c15.493-4.169,29.178-9.45,41.168-15.866c1.091-0.583,2.002-1.436,2.685-2.457c2.935-5.528,5.585-11.229,7.918-17.091
	c0.109-0.276,0.219-0.551,0.326-0.827c0.375-0.956,0.739-1.917,1.097-2.88c0.308-0.835,0.609-1.672,0.904-2.511
	c0.187-0.528,0.377-1.053,0.559-1.583c4.425-12.981,7.314-26.5,8.575-40.198c0.011-0.121,0.022-0.242,0.032-0.363
	c0.133-1.479,0.243-2.961,0.338-4.443c0.02-0.315,0.042-0.629,0.06-0.944c0.078-1.328,0.135-2.658,0.182-3.989
	c0.013-0.375,0.032-0.749,0.043-1.125c0.048-1.65,0.076-3.301,0.076-4.953c0-1.463-0.019-2.921-0.056-4.375
	C429.057,167.928,429.018,167.098,428.986,166.268z"/>
<g>
</g>
<g>
</g>
<g>
</g>
<g>
</g>
<g>
</g>
<g>
</g>
<g>
</g>
<g>
</g>
<g>
</g>
<g>
</g>
<g>
</g>
<g>
</g>
<g>
</g>
<g>
</g>
<g>
</g>
</svg>
