<?xml version="1.0" encoding="iso-8859-1"?>
<!-- Generator: Adobe Illustrator 19.0.0, SVG Export Plug-In . SVG Version: 6.00 Build 0)  -->
<svg version="1.1" id="Capa_1" xmlns="http://www.w3.org/2000/svg" xmlns:xlink="http://www.w3.org/1999/xlink" x="0px" y="0px"
	 viewBox="0 0 512 512" style="enable-background:new 0 0 512 512;" xml:space="preserve">
<path style="fill:#3D5868;" d="M438.826,153.5c-4.143,0-7.5-3.358-7.5-7.5V79c0-4.142,3.357-7.5,7.5-7.5s7.5,3.358,7.5,7.5v67
	C446.326,150.142,442.968,153.5,438.826,153.5z"/>
<g>
	<path style="fill:#D9D4D4;" d="M102.936,138.5h-26.76c-15.776,0-28.611,12.835-28.611,28.611v55.112
		c0,15.776,12.835,28.611,28.611,28.611h26.76c4.142,0,7.5-3.358,7.5-7.5V146C110.436,141.858,107.079,138.5,102.936,138.5z"/>
	<path style="fill:#D9D4D4;" d="M435.826,138.5h-26.761c-4.143,0-7.5,3.358-7.5,7.5v97.333c0,4.142,3.357,7.5,7.5,7.5h26.761
		c15.775,0,28.61-12.835,28.61-28.611V167.11C464.436,151.335,451.602,138.5,435.826,138.5z"/>
</g>
<path style="fill:#F0EEEE;" d="M314.475,341.16h-116.95c-50.045,0-90.76,40.715-90.76,90.76v72.58c0,4.142,3.358,7.5,7.5,7.5
	h283.469c4.143,0,7.5-3.358,7.5-7.5v-72.58C405.234,381.875,364.52,341.16,314.475,341.16z"/>
<path style="fill:#D9D4D4;" d="M314.475,341.16h-28.833c50.045,0,90.76,40.715,90.76,90.76v72.58c0,4.142-3.357,7.5-7.5,7.5h28.833
	c4.143,0,7.5-3.358,7.5-7.5v-72.58C405.234,381.875,364.52,341.16,314.475,341.16z"/>
<g>
	<circle style="fill:#F0EEEE;" cx="256" cy="177.38" r="169.88"/>
	<path style="fill:#F0EEEE;" d="M256,0C158.191,0,78.617,79.574,78.617,177.384S158.191,354.768,256,354.768
		s177.384-79.574,177.384-177.384S353.81,0,256,0z"/>
</g>
<path style="fill:#D9D4D4;" d="M256,0c-5.363,0-10.667,0.253-15.91,0.721c90.383,8.073,161.474,84.215,161.474,176.662
	s-71.092,168.59-161.474,176.663c5.243,0.468,10.547,0.721,15.91,0.721c97.81,0,177.384-79.574,177.384-177.384
	C433.384,79.574,353.81,0,256,0z"/>
<ellipse style="fill:#FA8500;" cx="256" cy="330.03" rx="128.29" ry="56.3"/>
<path style="fill:#CE6A06;" d="M256,273.729c-2.058,0-4.104,0.023-6.138,0.065c61.791,1.406,110.996,26.044,110.996,56.235
	s-49.205,54.829-110.996,56.235c2.035,0.042,4.08,0.065,6.138,0.065c70.852,0,128.289-25.207,128.289-56.301
	S326.852,273.729,256,273.729z"/>
<path style="fill:#5880A2;" d="M428.576,136.241c-0.269-1.13-0.796-2.182-1.54-3.074c-20.398-24.428-45.906-43.192-75.816-55.769
	C322.559,65.346,290.521,59.235,256,59.235s-66.558,6.111-95.22,18.163c-29.91,12.577-55.418,31.34-75.816,55.769
	c-0.745,0.892-1.271,1.944-1.54,3.074c-3.19,13.43-4.808,27.272-4.808,41.143c0,97.81,79.574,177.384,177.384,177.384
	s177.384-79.574,177.384-177.384C433.384,163.511,431.767,149.669,428.576,136.241z"/>
<path style="fill:#3F6582;" d="M433.313,172.45c-0.013-0.467-0.037-0.931-0.053-1.397c-0.042-1.187-0.09-2.374-0.156-3.56
	c-0.029-0.528-0.067-1.055-0.1-1.582c-0.073-1.129-0.153-2.258-0.247-3.385c-0.045-0.536-0.094-1.072-0.143-1.607
	c-0.104-1.123-0.219-2.244-0.344-3.364c-0.059-0.528-0.118-1.056-0.181-1.582c-0.137-1.132-0.288-2.262-0.446-3.391
	c-0.072-0.51-0.138-1.02-0.214-1.529c-0.175-1.175-0.369-2.348-0.568-3.519c-0.078-0.455-0.146-0.913-0.227-1.368
	c-0.269-1.515-0.56-3.026-0.868-4.532c-0.185-0.903-0.389-1.798-0.588-2.696c-0.135-0.612-0.266-1.225-0.408-1.836
	c-0.095-0.407-0.2-0.809-0.297-1.215c-0.289-0.995-0.769-1.924-1.435-2.722c-13.596-16.281-29.473-30.031-47.399-41.125
	c13.966,25.335,21.927,54.423,21.927,85.342c0,92.447-71.092,168.59-161.474,176.663c1.28,0.114,2.564,0.215,3.852,0.303
	c0.101,0.007,0.202,0.013,0.302,0.019c1.185,0.079,2.372,0.147,3.563,0.203c0.414,0.019,0.829,0.031,1.244,0.047
	c0.917,0.037,1.833,0.073,2.753,0.095c1.395,0.033,2.793,0.053,4.196,0.053c97.81,0,177.384-79.574,177.384-177.384
	C433.384,175.738,433.357,174.094,433.313,172.45z"/>
<circle style="fill:#FB403F;" cx="179.251" cy="436.33" r="20.333"/>
<path style="fill:#5880A2;" d="M334.879,414.5h-42.758c-11.113,0-20.121,9.009-20.121,20.121v27.424
	c0,11.113,9.008,20.121,20.121,20.121h42.758c11.113,0,20.121-9.009,20.121-20.121v-27.424C355,423.509,345.992,414.5,334.879,414.5
	z"/>
<g>
	<path style="fill:#F0EEEE;" d="M329.667,443.833h-34.334c-4.143,0-7.5-3.358-7.5-7.5s3.357-7.5,7.5-7.5h34.334
		c4.143,0,7.5,3.358,7.5,7.5S333.81,443.833,329.667,443.833z"/>
	<path style="fill:#F0EEEE;" d="M329.667,467.833h-34.334c-4.143,0-7.5-3.358-7.5-7.5s3.357-7.5,7.5-7.5h34.334
		c4.143,0,7.5,3.358,7.5,7.5S333.81,467.833,329.667,467.833z"/>
</g>
<g>
</g>
<g>
</g>
<g>
</g>
<g>
</g>
<g>
</g>
<g>
</g>
<g>
</g>
<g>
</g>
<g>
</g>
<g>
</g>
<g>
</g>
<g>
</g>
<g>
</g>
<g>
</g>
<g>
</g>
</svg>
