<?xml version="1.0" encoding="iso-8859-1"?>
<!-- Generator: Adobe Illustrator 19.0.0, SVG Export Plug-In . SVG Version: 6.00 Build 0)  -->
<svg version="1.1" id="Capa_1" xmlns="http://www.w3.org/2000/svg" xmlns:xlink="http://www.w3.org/1999/xlink" x="0px" y="0px"
	 viewBox="0 0 512 512" style="enable-background:new 0 0 512 512;" xml:space="preserve">
<path style="fill:#FB403F;" d="M308.928,355.944H203.072c-45.689,0-82.861,37.172-82.861,82.862V504.5c0,4.142,3.357,7.5,7.5,7.5
	h256.578c4.143,0,7.5-3.358,7.5-7.5v-65.694C391.789,393.116,354.617,355.944,308.928,355.944z"/>
<path style="fill:#C21C1C;" d="M308.928,355.944h-26.5c45.689,0,82.861,37.172,82.861,82.862V504.5c0,4.142-3.357,7.5-7.5,7.5h26.5
	c4.143,0,7.5-3.358,7.5-7.5v-65.694C391.789,393.116,354.617,355.944,308.928,355.944z"/>
<g>
	<path style="fill:#FF6464;" d="M318.375,352.683l-25.333-16.21c-1.895-1.212-4.232-1.509-6.369-0.813
		c-2.139,0.698-3.85,2.318-4.664,4.414l-19.24,49.54c-1.235,3.18-0.168,6.793,2.596,8.792l40.563,29.337
		c1.302,0.941,2.844,1.423,4.396,1.423c1.087,0,2.179-0.236,3.196-0.715c2.471-1.165,4.113-3.58,4.287-6.306l4.01-62.667
		C321.992,356.756,320.674,354.153,318.375,352.683z"/>
	<path style="fill:#FF6464;" d="M229.991,340.075c-0.814-2.096-2.525-3.716-4.664-4.414c-2.135-0.696-4.475-0.4-6.369,0.813
		l-25.333,16.21c-2.299,1.471-3.617,4.073-3.442,6.796l4.01,62.667c0.174,2.726,1.816,5.141,4.287,6.306
		c1.018,0.479,2.109,0.715,3.196,0.715c1.553,0,3.095-0.481,4.396-1.423l40.563-29.337c2.764-1.999,3.831-5.612,2.596-8.792
		L229.991,340.075z"/>
</g>
<polygon style="fill:#FA9E3E;" points="298.1,267.73 298.1,363.08 269.76,392.33 242.24,392.33 213.9,363.08 213.9,267.73 "/>
<rect x="112" y="159" style="fill:#696970;" width="288" height="96"/>
<g>
	<path style="fill:#FA9E3E;" d="M125.839,223.99h49.369v56.61h-49.369c-15.632,0-28.305-12.672-28.305-28.305
		S110.207,223.99,125.839,223.99z"/>
	<path style="fill:#FA9E3E;" d="M386.161,223.99h-49.369v56.61h49.369c15.632,0,28.305-12.672,28.305-28.305
		S401.793,223.99,386.161,223.99z"/>
</g>
<path style="fill:#FFB56B;" d="M256,342.79L256,342.79c-61.919,0-112.115-50.195-112.115-112.115V117.281h224.229v113.394
	C368.115,292.595,317.919,342.79,256,342.79z"/>
<path style="fill:#EF9245;" d="M344.781,117.281v125.062c0,53.578-41.949,97.354-94.795,100.286
	c1.992,0.105,3.996,0.161,6.014,0.161l0,0c61.919,0,112.115-50.195,112.115-112.115V117.281H344.781z"/>
<g>
	<path style="fill:#19303F;" d="M310.323,232.962c-4.143,0-7.5-3.358-7.5-7.5v-2c0-4.142,3.357-7.5,7.5-7.5s7.5,3.358,7.5,7.5v2
		C317.823,229.605,314.466,232.962,310.323,232.962z"/>
	<path style="fill:#19303F;" d="M201.677,232.962c-4.143,0-7.5-3.358-7.5-7.5v-2c0-4.142,3.357-7.5,7.5-7.5s7.5,3.358,7.5,7.5v2
		C209.177,229.605,205.819,232.962,201.677,232.962z"/>
	<path style="fill:#19303F;" d="M256,288.484c-13.493,0-26.142-6.631-33.833-17.739c-2.358-3.405-1.509-8.077,1.896-10.436
		c3.403-2.358,8.078-1.509,10.435,1.896c4.891,7.063,12.928,11.279,21.501,11.279c8.573,0,16.61-4.216,21.501-11.279
		c2.358-3.405,7.029-4.254,10.435-1.896c3.405,2.358,4.255,7.03,1.897,10.436C282.142,281.853,269.493,288.484,256,288.484z"/>
</g>
<g>
	<path style="fill:#F0EEEE;" d="M353.385,512l-7.9-72.209c0.004-0.097,0.015-0.192,0.015-0.291V361c0-4.142-3.357-7.5-7.5-7.5
		s-7.5,3.358-7.5,7.5v71h-149v-71c0-4.142-3.357-7.5-7.5-7.5s-7.5,3.358-7.5,7.5v78.5c0,0.098,0.011,0.193,0.015,0.291l-7.9,72.209
		H353.385z"/>
	<path style="fill:#F0EEEE;" d="M407.328,157.376l-33-151.473C373.577,2.458,370.527,0,367,0H145c-3.527,0-6.577,2.458-7.328,5.903
		l-33,151.473c-0.455,2.087,0.002,4.27,1.256,5.999c1.254,1.73,3.186,2.842,5.311,3.059l144,14.694
		c0.254,0.026,0.508,0.039,0.762,0.039s0.508-0.013,0.762-0.039l144-14.694c2.125-0.217,4.057-1.33,5.311-3.059
		C407.326,161.646,407.783,159.463,407.328,157.376z"/>
</g>
<path style="fill:#D9D4D4;" d="M407.328,157.376l-33-151.473C373.577,2.458,370.527,0,367,0h-23.857
	c0.988,1.037,1.712,2.341,2.034,3.821l35.305,162.054c0.19,0.868,0.227,1.751,0.128,2.616l20.151-2.056
	c2.125-0.217,4.057-1.33,5.311-3.059C407.326,161.646,407.783,159.463,407.328,157.376z"/>
<path style="fill:#FB403F;" d="M256,134.104l-143.077-14.602l-3.435,15.769l145.698,14.869c0.27,0.028,0.543,0.041,0.814,0.041
	c0.272,0,0.544-0.014,0.814-0.041l145.698-14.869l-3.435-15.769L256,134.104z"/>
<g>
</g>
<g>
</g>
<g>
</g>
<g>
</g>
<g>
</g>
<g>
</g>
<g>
</g>
<g>
</g>
<g>
</g>
<g>
</g>
<g>
</g>
<g>
</g>
<g>
</g>
<g>
</g>
<g>
</g>
</svg>
