<?xml version="1.0" encoding="iso-8859-1"?>
<!-- Generator: Adobe Illustrator 19.0.0, SVG Export Plug-In . SVG Version: 6.00 Build 0)  -->
<svg version="1.1" id="Capa_1" xmlns="http://www.w3.org/2000/svg" xmlns:xlink="http://www.w3.org/1999/xlink" x="0px" y="0px"
	 viewBox="0 0 511.999 511.999" style="enable-background:new 0 0 511.999 511.999;" xml:space="preserve">
<g>
	<path style="fill:#484655;" d="M430.283,166.077c0-35.217-28.651-63.868-63.868-63.868c-32.006,0-58.957,23.61-63.263,55.146
		c-3.264,6.59-4.983,13.925-4.983,21.309c0,15.53,7.578,30.177,20.275,39.184l0.415,0.295c0.365,0.253,0.734,0.5,1.104,0.742
		c0.235,0.154,0.471,0.305,0.713,0.457c0.333,0.209,0.666,0.416,1.002,0.616c0.29,0.173,0.585,0.34,0.92,0.529l0.176,0.1
		c0.239,0.136,0.478,0.272,0.711,0.397c0.587,0.316,1.181,0.621,1.787,0.915c0.161,0.078,0.325,0.153,0.489,0.228l0.125,0.057
		c0.452,0.211,0.905,0.419,1.358,0.613c0.22,0.095,0.442,0.186,0.665,0.276l0.145,0.059c0.404,0.165,0.81,0.326,1.213,0.478
		c0.284,0.106,0.568,0.21,0.859,0.314c0.405,0.143,0.812,0.281,1.227,0.415l0.112,0.037c0.244,0.079,0.488,0.158,0.745,0.236
		c0.458,0.139,0.92,0.268,1.379,0.392l0.157,0.044c0.191,0.054,0.382,0.107,0.565,0.153c0.675,0.172,1.355,0.329,2.048,0.473
		c0.222,0.046,0.445,0.087,0.669,0.129l0.196,0.036c0.43,0.081,0.859,0.16,1.287,0.229c0.334,0.054,0.67,0.102,1.015,0.149
		c0.397,0.055,0.796,0.106,1.18,0.149c0.348,0.04,0.695,0.077,1.058,0.11c0.115,0.01,0.229,0.02,0.344,0.029v3.909
		c0,44.329-28.066,84.021-69.839,98.769c-2.793,0.986-4.744,3.524-4.979,6.478c-0.235,2.953,1.291,5.768,3.893,7.183
		c16.626,9.044,35.457,14.991,54.458,17.197c0.29,0.034,0.58,0.05,0.867,0.05c2.641,0,5.117-1.396,6.472-3.713
		c1.502-2.569,1.344-5.784-0.405-8.193c-4.907-6.758,0.241-17.538,6.135-24.708c3.401-4.128,7.477-7.799,11.791-11.686
		c4.222-3.803,8.574-7.724,12.463-12.268c19.049-8.452,31.249-27.109,31.249-48.068c0-8.857-2.233-17.498-6.416-25.165
		C412.974,217.446,430.283,193.674,430.283,166.077z"/>
	<path style="fill:#484655;" d="M364.116,27.149C339.488,9.642,306.875,0,272.284,0c-49.73,0-94.857,20.284-117.061,52.135
		c-5.913-1.712-12.02-2.577-18.23-2.577c-36.241,0-65.726,29.484-65.726,65.726c0,12.826,3.761,25.316,10.719,35.951
		c-13.123,9.841-20.989,25.286-20.989,42.044c0,19.764,11.198,37.802,28.448,46.74c-0.769,5.763-0.317,11.834,1.359,17.635
		c3.5,12.036,10.935,21.677,18.125,31l1.04,1.35c6.822,8.863,13.095,17.628,14.893,27.41c1.479,8.05-1.339,18.374-8.617,21.718
		c-2.86,1.314-4.595,4.273-4.346,7.41c0.25,3.137,2.432,5.785,5.463,6.629c3.314,0.924,7.062,1.346,11.103,1.346
		c18.373-0.001,42.768-8.735,59.626-18.808c2.317-1.384,3.711-3.907,3.651-6.605s-1.565-5.156-3.941-6.436
		c-34.006-18.321-55.131-53.67-55.131-92.253V219.9c2.183,0.291,4.439,0.383,6.653,0.272c0.17-0.008,0.339-0.021,0.592-0.041
		c0.406-0.026,0.811-0.054,1.214-0.094c0.182-0.019,0.362-0.041,0.542-0.064l0.228-0.028c0.338-0.04,0.676-0.081,1.024-0.133
		c0.187-0.028,0.372-0.061,0.556-0.095l0.219-0.038c0.322-0.055,0.644-0.11,0.971-0.176c0.189-0.038,0.375-0.08,0.561-0.123
		l0.313-0.07c0.281-0.063,0.562-0.126,0.859-0.202c0.191-0.049,0.38-0.102,0.57-0.155l0.321-0.089
		c0.262-0.072,0.523-0.146,0.778-0.224c0.223-0.068,0.443-0.142,0.664-0.215l0.287-0.096c0.234-0.078,0.468-0.156,0.688-0.235
		c0.247-0.088,0.49-0.183,0.734-0.278l0.227-0.088c0.219-0.084,0.439-0.17,0.641-0.255c0.275-0.114,0.547-0.234,0.819-0.356
		l0.227-0.102c0.173-0.077,0.346-0.155,0.515-0.235c0.322-0.152,0.638-0.312,0.994-0.492l0.099-0.05
		c0.147-0.075,0.294-0.149,0.413-0.213c0.356-0.189,0.706-0.387,1.056-0.587c0.003-0.002,0.084-0.048,0.087-0.05l0.315-0.182
		c0.383-0.227,0.76-0.463,1.194-0.741l0.212-0.136c0.415-0.272,0.823-0.554,1.206-0.829c0.032-0.022,0.115-0.081,0.146-0.103
		c9.353-6.765,14.937-17.682,14.937-29.203c0-4.41-0.795-8.728-2.334-12.779c3.478-2.118,6.74-4.551,9.766-7.284
		c24.339,17.097,57.201,26.803,91.321,26.803c29.742,0,57.766-7.018,81.035-20.291c31.899-18.162,50.194-45.562,50.194-75.174
		C403.513,69.472,389.522,45.21,364.116,27.149z"/>
</g>
<path style="fill:#35343F;" d="M364.116,27.149c-0.704-0.501-1.438-0.972-2.155-1.46c10.868,14.086,16.652,30.068,16.652,46.768
	c0,29.612-18.295,57.012-50.194,75.174c-23.27,13.273-51.293,20.291-81.035,20.291c-23.668,0-46.728-4.674-66.76-13.242
	l17.866,19.777c19.067,9.384,41.38,15.045,64.596,16.233l42.61-10.505c35.053-9.927,82.554-28.427,95.706-67.509
	c1.388-5.616,2.111-11.37,2.111-17.213C403.513,69.472,389.522,45.21,364.116,27.149z"/>
<path style="fill:#FB403F;" d="M290.368,355.806H184.412c-45.73,0-82.934,37.204-82.934,82.935v65.758c0,4.142,3.358,7.5,7.5,7.5
	h256.825c4.142,0,7.5-3.358,7.5-7.5v-65.758C373.303,393.01,336.099,355.806,290.368,355.806z"/>
<path style="fill:#C21C1C;" d="M290.368,355.806h-27.315c45.73,0,82.935,37.204,82.935,82.935v65.758c0,4.142-3.358,7.5-7.5,7.5
	h27.315c4.142,0,7.5-3.358,7.5-7.5v-65.758C373.303,393.01,336.099,355.806,290.368,355.806z"/>
<path style="fill:#D9D4D4;" d="M345.718,444.95l-21.741-78.885c-0.639-2.32-2.353-4.192-4.607-5.034
	c-7.136-2.664-14.552-4.309-22.121-4.933c-0.157-0.013-0.316-0.019-0.473-0.031c-0.964-0.074-1.929-0.143-2.898-0.184
	c-1.164-0.05-2.333-0.078-3.509-0.078h-2.859H187.271h-2.859c-1.1,0-2.192,0.028-3.281,0.073c-0.571,0.022-1.139,0.06-1.708,0.094
	c-0.451,0.028-0.902,0.055-1.35,0.09c-0.774,0.059-1.546,0.13-2.317,0.21c-0.13,0.014-0.26,0.029-0.39,0.043
	c-6.817,0.742-13.5,2.306-19.954,4.715c-2.254,0.842-3.968,2.714-4.607,5.034l-21.741,78.885c-0.756,2.742,0.105,5.676,2.222,7.575
	c2.117,1.9,5.126,2.438,7.771,1.39l42.457-16.825l49.714,71.683c0.019,0.027,0.041,0.049,0.06,0.075
	c0.32,0.449,0.69,0.865,1.108,1.239c0.063,0.056,0.127,0.109,0.191,0.162c0.148,0.123,0.301,0.241,0.459,0.353
	c0.074,0.053,0.148,0.107,0.223,0.157c0.19,0.125,0.387,0.241,0.59,0.35c0.301,0.161,0.609,0.304,0.928,0.422
	c0.193,0.072,0.389,0.124,0.584,0.179c0.087,0.024,0.172,0.057,0.26,0.079c0.58,0.14,1.169,0.21,1.754,0.21c0.002,0,0.003,0,0.004,0
	c0.001,0,0.003,0,0.004,0c0.294,0,0.588-0.018,0.883-0.053c0.01-0.001,0.02-0.004,0.031-0.005c0.282-0.035,0.563-0.084,0.842-0.152
	c0.072-0.017,0.141-0.045,0.213-0.064c0.212-0.058,0.424-0.116,0.633-0.194c0.314-0.116,0.618-0.257,0.914-0.415
	c0.208-0.111,0.41-0.23,0.604-0.358c0.075-0.049,0.147-0.102,0.22-0.154c0.16-0.114,0.314-0.232,0.464-0.357
	c0.063-0.053,0.127-0.104,0.188-0.16c0.42-0.375,0.791-0.792,1.112-1.243c0.018-0.025,0.039-0.047,0.057-0.072l49.714-71.682
	l42.457,16.825c2.646,1.048,5.655,0.51,7.772-1.39C345.613,450.626,346.474,447.692,345.718,444.95z"/>
<path style="fill:#FA9E3E;" d="M279.527,355.806v-5.051v-28.133V267.5h-84.273v83.255c0,1.711,0.114,3.394,0.312,5.051h-8.295
	l50.119,148.692l50.119-148.692L279.527,355.806L279.527,355.806z"/>
<path style="fill:#FFB56B;" d="M349.608,219.034v11.381c0,48.867-31.24,90.447-74.842,105.842
	c-9.769,3.453-20.169,5.585-30.97,6.186c-2.122,0.13-4.254,0.19-6.406,0.19c-61.98,0-112.218-50.248-112.218-112.218V216.15
	c0-2.87,2.696-4.947,5.483-4.259c2.192,0.541,4.485,0.827,6.849,0.827c7.657,0,14.604-3.013,19.729-7.938
	c5.425-5.175,8.799-12.492,8.799-20.59c0-4.393-0.995-8.559-2.774-12.281c-0.982-2.054-0.147-4.537,1.847-5.637
	c5.7-3.146,10.809-7.217,15.131-12.021c22.652,17.917,55.493,29.178,92.049,29.178c11.581,0,22.792-1.131,33.412-3.243
	c0.46,12.562,6.646,23.663,16.025,30.77c6.797,5.175,15.285,8.228,24.474,8.228C347.346,219.184,348.487,219.134,349.608,219.034z"
	/>
<path style="fill:#EF9245;" d="M326.256,213.94v28.148c0,53.629-41.989,97.447-94.884,100.383c0.002,0,0.004,0,0.007,0
	c0.958,0.051,1.92,0.089,2.884,0.116c0.039,0.001,0.078,0.003,0.117,0.004c0.959,0.026,1.922,0.038,2.887,0.039
	c0.041,0,0.082,0.002,0.124,0.002c1.043,0,2.08-0.016,3.114-0.045c0.145-0.004,0.289-0.012,0.434-0.017
	c0.955-0.031,1.908-0.07,2.858-0.129c1.339-0.074,2.672-0.173,3.999-0.294c0.018-0.002,0.037-0.003,0.055-0.005
	c2.579-0.237,5.132-0.565,7.659-0.974c0.185-0.03,0.37-0.061,0.555-0.092c1.149-0.192,2.294-0.4,3.431-0.626
	c0.076-0.015,0.152-0.028,0.227-0.044c1.191-0.24,2.374-0.502,3.551-0.78c0.239-0.056,0.476-0.116,0.714-0.174
	c0.951-0.231,1.897-0.474,2.839-0.73c0.258-0.07,0.517-0.138,0.774-0.209c1.132-0.316,2.257-0.646,3.374-0.996
	c0.141-0.044,0.28-0.092,0.42-0.137c0.999-0.318,1.992-0.65,2.978-0.994c0.237-0.083,0.474-0.166,0.71-0.25
	c1.235-0.44,2.463-0.897,3.678-1.379c0.075-0.03,0.149-0.062,0.225-0.092c1.159-0.463,2.307-0.948,3.447-1.448
	c0.193-0.085,0.388-0.168,0.581-0.254c1.174-0.523,2.338-1.065,3.49-1.627c0.176-0.086,0.349-0.174,0.525-0.261
	c1.083-0.535,2.158-1.086,3.221-1.655c0.117-0.063,0.235-0.122,0.351-0.185c1.13-0.61,2.247-1.241,3.353-1.888
	c0.203-0.119,0.405-0.239,0.608-0.359c2.229-1.322,4.408-2.719,6.534-4.188c0.19-0.131,0.38-0.262,0.569-0.394
	c1.051-0.736,2.092-1.487,3.117-2.257c0.09-0.068,0.178-0.138,0.268-0.206c0.971-0.735,1.929-1.487,2.876-2.253
	c0.143-0.116,0.287-0.23,0.43-0.346c0.991-0.81,1.968-1.637,2.931-2.48c0.142-0.124,0.283-0.251,0.424-0.376
	c0.934-0.826,1.855-1.664,2.761-2.52c0.051-0.048,0.102-0.094,0.153-0.142c0.941-0.893,1.865-1.806,2.775-2.731
	c0.147-0.15,0.294-0.301,0.441-0.452c1.821-1.872,3.577-3.808,5.265-5.803c0.122-0.145,0.245-0.289,0.367-0.434
	c0.838-1,1.66-2.014,2.463-3.043c0.062-0.08,0.122-0.161,0.184-0.241c0.774-0.999,1.532-2.011,2.273-3.036
	c0.073-0.101,0.148-0.201,0.221-0.303c0.765-1.066,1.511-2.146,2.239-3.239c0.091-0.137,0.181-0.275,0.271-0.412
	c1.462-2.216,2.849-4.487,4.154-6.81c0.087-0.154,0.173-0.308,0.259-0.462c1.299-2.337,2.518-4.725,3.651-7.161
	c0.064-0.137,0.128-0.273,0.191-0.41c0.561-1.219,1.102-2.448,1.621-3.69c0.036-0.087,0.071-0.175,0.107-0.262
	c0.508-1.226,0.995-2.462,1.461-3.709c0.024-0.064,0.049-0.128,0.073-0.193c0.472-1.273,0.92-2.558,1.347-3.853
	c0.047-0.142,0.092-0.285,0.139-0.428c0.844-2.595,1.596-5.231,2.252-7.904c0.038-0.155,0.076-0.31,0.114-0.466
	c0.65-2.697,1.202-5.431,1.653-8.2c0.02-0.121,0.041-0.242,0.06-0.363c0.22-1.381,0.416-2.77,0.585-4.168
	c0.012-0.099,0.022-0.199,0.034-0.299c0.167-1.406,0.31-2.82,0.424-4.242c0.001-0.013,0.003-0.026,0.004-0.039
	c0.114-1.427,0.198-2.862,0.258-4.304c0.006-0.147,0.011-0.294,0.017-0.44c0.054-1.433,0.086-2.871,0.086-4.317v-11.381
	c-1.121,0.1-2.262,0.15-3.413,0.15C338.95,219.184,332.145,217.279,326.256,213.94z"/>
<g>
	<path style="fill:#19303F;" d="M291.766,226.686c-4.142,0-7.5-3.358-7.5-7.5v-2.001c0-4.142,3.358-7.5,7.5-7.5s7.5,3.358,7.5,7.5
		v2.001C299.266,223.328,295.908,226.686,291.766,226.686z"/>
	<path style="fill:#19303F;" d="M183.014,226.686c-4.142,0-7.5-3.358-7.5-7.5v-2.001c0-4.142,3.358-7.5,7.5-7.5s7.5,3.358,7.5,7.5
		v2.001C190.514,223.328,187.156,226.686,183.014,226.686z"/>
	<path style="fill:#19303F;" d="M237.39,288.268c-13.504,0-26.162-6.637-33.859-17.753c-2.358-3.405-1.509-8.078,1.896-10.436
		c3.404-2.359,8.078-1.509,10.436,1.897c4.896,7.071,12.944,11.292,21.527,11.292s16.631-4.222,21.527-11.293
		c2.358-3.405,7.029-4.255,10.436-1.896c3.405,2.358,4.254,7.03,1.896,10.436C263.552,281.631,250.894,288.268,237.39,288.268z"/>
</g>
<path style="fill:#3D5868;" d="M312.455,491.137l-19.56-19.56c-3.033-3.033-3.199-7.896-0.382-11.129l80.477-92.345l42.938,42.938
	l-92.345,80.477C320.351,494.336,315.488,494.17,312.455,491.137z"/>
<circle style="fill:#5CDBF1;" cx="407.27" cy="376.76" r="43.732"/>
<path style="fill:#35343F;" d="M345.635,445.897c-1.919,0-3.839-0.732-5.303-2.197c-2.929-2.929-2.929-7.678,0-10.606l10.326-10.326
	c2.929-2.929,7.678-2.929,10.606,0c2.929,2.929,2.929,7.678,0,10.606L350.938,443.7
	C349.474,445.165,347.554,445.897,345.635,445.897z"/>
<g>
</g>
<g>
</g>
<g>
</g>
<g>
</g>
<g>
</g>
<g>
</g>
<g>
</g>
<g>
</g>
<g>
</g>
<g>
</g>
<g>
</g>
<g>
</g>
<g>
</g>
<g>
</g>
<g>
</g>
</svg>
