<?xml version="1.0" encoding="iso-8859-1"?>
<!-- Generator: Adobe Illustrator 19.0.0, SVG Export Plug-In . SVG Version: 6.00 Build 0)  -->
<svg version="1.1" id="Capa_1" xmlns="http://www.w3.org/2000/svg" xmlns:xlink="http://www.w3.org/1999/xlink" x="0px" y="0px"
	 viewBox="0 0 512 512" style="enable-background:new 0 0 512 512;" xml:space="preserve">
<path style="fill:#13B98C;" d="M310.909,350.649H201.092c-47.25,0-85.69,38.44-85.69,85.69v68.154c0,4.146,3.361,7.507,7.507,7.507
	h266.184c4.146,0,7.507-3.361,7.507-7.507v-68.154C396.599,389.089,358.159,350.649,310.909,350.649z"/>
<g>
	<rect x="248.492" y="426.418" style="fill:#049B64;" width="15.014" height="85.58"/>
	<path style="fill:#049B64;" d="M310.909,350.649h-26.553c47.25,0,85.69,38.44,85.69,85.69v68.154c0,4.146-3.361,7.507-7.507,7.507
		h26.553c4.146,0,7.507-3.361,7.507-7.507v-68.154C396.599,389.089,358.159,350.649,310.909,350.649z"/>
</g>
<g>
	<path style="fill:#50D8AB;" d="M327.56,343.199l-38.73-10.72c-1.941-0.537-4.011-0.273-5.752,0.731
		c-1.742,1.004-3.008,2.665-3.515,4.611l-17.291,66.396c-0.826,3.172,0.5,6.512,3.278,8.253l51.871,32.507
		c1.215,0.762,2.599,1.146,3.987,1.146c1.192,0,2.387-0.284,3.479-0.855c2.363-1.236,3.894-3.634,4.019-6.299l4.15-88.182
		C333.222,347.285,330.94,344.134,327.56,343.199z"/>
	<path style="fill:#50D8AB;" d="M232.439,337.821c-0.506-1.946-1.773-3.607-3.515-4.611c-1.742-1.004-3.815-1.267-5.752-0.731
		l-38.73,10.72c-3.379,0.935-5.66,4.086-5.496,7.588l4.15,88.182c0.126,2.664,1.656,5.063,4.019,6.299
		c1.092,0.572,2.287,0.855,3.479,0.855c1.387,0,2.772-0.384,3.987-1.146l51.871-32.507c2.778-1.74,4.105-5.081,3.278-8.253
		L232.439,337.821z"/>
</g>
<path style="fill:#FA9E3E;" d="M212.329,292.338v75.107c0,19.04,27.213,54.47,38.676,68.55c2.58,3.169,7.411,3.169,9.99,0
	c11.463-14.079,38.676-49.51,38.676-68.55v-75.107H212.329z"/>
<path style="fill:#D9D4D4;" d="M256.001,394.482c-14.06,0-27.301-3.479-38.939-9.598c8.281,18.457,25.33,40.521,33.854,50.999
	c2.623,3.225,7.547,3.225,10.171,0c8.524-10.478,25.573-32.541,33.854-50.999C283.302,391.003,270.061,394.482,256.001,394.482z"/>
<path style="fill:#F0EEEE;" d="M416.729,55.475c-6.256-19.501-24.569-33.145-45.473-33.145c-26.335,0-47.759,21.425-47.759,47.759
	c0,14.747,6.736,28.485,18.21,37.513v68.585c0,4.146,3.361,7.507,7.507,7.507h28.871c21.874,0,40.73-15.159,45.771-36.002
	c19.243-6.52,32.29-24.447,32.29-45.191C456.145,79.116,439.232,59.438,416.729,55.475z"/>
<path style="fill:#D9D4D4;" d="M416.729,55.475c-6.256-19.501-24.569-33.145-45.473-33.145c-3.747,0-7.388,0.447-10.888,1.267
	c16.166,3.798,29.444,15.857,34.584,31.878c22.503,3.964,39.417,23.641,39.417,47.025c0,20.745-13.048,38.671-32.29,45.191
	c-5.041,20.842-23.895,36.002-45.771,36.002h21.777c21.874,0,40.73-15.159,45.771-36.002c19.243-6.52,32.29-24.447,32.29-45.191
	C456.145,79.116,439.232,59.438,416.729,55.475z"/>
<path style="fill:#F0EEEE;" d="M140.745,22.33c-20.905,0-39.218,13.644-45.473,33.145C72.768,59.438,55.855,79.116,55.855,102.5
	c0,20.745,13.048,38.671,32.29,45.191c5.041,20.842,23.895,36.002,45.771,36.002h28.871c4.146,0,7.507-3.361,7.507-7.507V107.6
	c11.473-9.028,18.21-22.766,18.21-37.513C188.503,43.754,167.079,22.33,140.745,22.33z"/>
<g>
	<path style="fill:#FA9E3E;" d="M114.399,199.328h53.708v61.585h-53.708c-17.007,0-30.793-13.786-30.793-30.793
		S97.393,199.328,114.399,199.328z"/>
	<path style="fill:#FA9E3E;" d="M168.107,268.421h-53.708c-21.119,0-38.3-17.181-38.3-38.3s17.181-38.3,38.3-38.3h53.708
		c4.146,0,7.507,3.361,7.507,7.507v61.585C175.614,265.059,172.253,268.421,168.107,268.421z M114.399,206.835
		c-12.84,0-23.286,10.446-23.286,23.286s10.446,23.286,23.286,23.286H160.6v-46.571L114.399,206.835L114.399,206.835z"/>
	<path style="fill:#FA9E3E;" d="M397.602,199.328h-53.708v61.585h53.708c17.007,0,30.793-13.786,30.793-30.793
		S414.608,199.328,397.602,199.328z"/>
	<path style="fill:#FA9E3E;" d="M397.602,268.421h-53.708c-4.146,0-7.507-3.361-7.507-7.507v-61.585
		c0-4.146,3.361-7.507,7.507-7.507h53.708c21.119,0,38.3,17.181,38.3,38.3C435.901,251.24,418.72,268.421,397.602,268.421z
		 M351.401,253.407h46.201c12.84,0,23.286-10.446,23.286-23.286c0-12.84-10.446-23.286-23.286-23.286h-46.201V253.407z"/>
</g>
<path style="fill:#FFB56B;" d="M272.464,0h-32.927c-62.312,0-113.007,50.695-113.007,113.008v92.274
	c0,71.879,57.88,130.554,129.023,130.794c0.15,0,0.3,0,0.45,0c34.502,0,66.943-13.402,91.389-37.765
	c24.555-24.473,38.078-57.04,38.078-91.706v-93.598C385.471,50.695,334.776,0,272.464,0z"/>
<path style="fill:#EF9245;" d="M272.464,0H246.72c62.312,0,113.007,50.695,113.007,113.008v93.598
	c0,34.664-13.523,67.233-38.078,91.706c-21.356,21.284-48.812,34.2-78.413,37.126c4.056,0.403,8.164,0.625,12.319,0.639
	c0.15,0,0.3,0,0.45,0c34.502,0,66.942-13.402,91.389-37.765c24.555-24.473,38.078-57.04,38.078-91.706v-93.598
	C385.471,50.695,334.776,0,272.464,0z"/>
<g>
	<circle style="fill:#F0EEEE;" cx="309.99" cy="187.875" r="31.69"/>
	<circle style="fill:#F0EEEE;" cx="202.009" cy="187.875" r="31.69"/>
</g>
<path style="fill:#3D5868;" d="M363.552,175.246c-2.073-3.59-6.664-4.82-10.255-2.748l-5.976,3.45
	c-5.059-15.798-19.88-27.268-37.335-27.268c-19.045,0-34.955,13.656-38.467,31.69h-31.038c-3.513-18.033-19.422-31.69-38.468-31.69
	c-17.455,0-32.276,11.471-37.335,27.268l-5.976-3.45c-3.59-2.074-8.182-0.843-10.255,2.748c-2.073,3.59-0.843,8.182,2.748,10.255
	l11.886,6.862c2.234,19.506,18.837,34.709,38.931,34.709c19.045,0,34.955-13.656,38.468-31.69h31.038
	c3.513,18.033,19.422,31.69,38.467,31.69c20.095,0,36.697-15.203,38.931-34.709l11.886-6.862
	C364.395,183.427,365.625,178.836,363.552,175.246z M202.014,212.057c-13.334,0-24.183-10.848-24.183-24.183
	s10.848-24.183,24.183-24.183s24.183,10.848,24.183,24.183C226.197,201.21,215.349,212.057,202.014,212.057z M309.987,212.057
	c-13.334,0-24.183-10.848-24.183-24.183s10.848-24.183,24.183-24.183s24.183,10.848,24.183,24.183
	C334.169,201.21,323.321,212.057,309.987,212.057z"/>
<g>
	<path style="fill:#F0EEEE;" d="M405.561,125.74c0-8.99-5.746-16.619-13.759-19.468c4.929-5.467,7.93-12.706,7.93-20.646
		c0-14.47-9.963-26.607-23.403-29.939c0.036-0.299,0.06-0.602,0.06-0.911c0-4.146-3.361-7.507-7.507-7.507
		c-21.15,0-38.356,17.206-38.356,38.356c0,16.783,11.049,31.357,26.405,36.433c-0.159,1.212-0.239,2.44-0.239,3.681
		c0,15.542,12.645,28.187,28.187,28.187c4.146,0,7.507-3.361,7.507-7.507c0-0.471-0.049-0.931-0.132-1.378
		C400.03,142.069,405.561,134.56,405.561,125.74z"/>
	<path style="fill:#F0EEEE;" d="M143.117,47.269c-4.146,0-7.507,3.361-7.507,7.507c0,0.309,0.024,0.612,0.061,0.911
		c-13.44,3.332-23.403,15.469-23.403,29.939c0,7.94,3.002,15.179,7.93,20.646c-8.012,2.85-13.759,10.478-13.759,19.468
		c0,8.819,5.531,16.329,13.305,19.302c-0.083,0.447-0.132,0.907-0.132,1.378c0,4.146,3.361,7.507,7.507,7.507
		c15.543,0,28.187-12.645,28.187-28.187c0-1.241-0.08-2.469-0.239-3.681c15.355-5.076,26.405-19.65,26.405-36.433
		C181.473,64.476,164.267,47.269,143.117,47.269z"/>
	<path style="fill:#F0EEEE;" d="M264.35,223.968H247.65c-19.476,0-35.321,15.845-35.321,35.322v11.582
		c0,2.548,1.436,4.879,3.712,6.024c2.277,1.145,5.003,0.909,7.05-0.609c23.243-17.251,44.69-17.316,65.561-0.201
		c1.23,1.009,2.747,1.529,4.277,1.529c0.979,0,1.964-0.213,2.884-0.648c2.356-1.115,3.859-3.488,3.859-6.096V259.29
		C299.672,239.813,283.826,223.968,264.35,223.968z"/>
</g>
<g>
	<path style="fill:#EF9245;" d="M282.575,122.592c-8.211,0-12.691-1.954-16.29-3.523c-3.025-1.318-5.21-2.271-10.29-2.271
		c-5.078,0-7.263,0.953-10.287,2.271c-3.599,1.569-8.079,3.523-16.288,3.523s-12.689-1.954-16.288-3.523
		c-3.024-1.319-5.208-2.271-10.286-2.271c-4.146,0-7.507-3.361-7.507-7.507s3.361-7.507,7.507-7.507
		c8.21,0,12.689,1.954,16.288,3.523c3.024,1.318,5.209,2.272,10.287,2.272s7.263-0.953,10.287-2.272
		c3.599-1.569,8.079-3.523,16.288-3.523c8.211,0,12.691,1.954,16.29,3.523c3.025,1.318,5.21,2.272,10.29,2.272
		c5.08,0,7.265-0.953,10.29-2.272c3.599-1.569,8.08-3.523,16.289-3.523c4.146,0,7.507,3.361,7.507,7.507s-3.361,7.507-7.507,7.507
		c-5.079,0-7.264,0.953-10.289,2.271C295.266,120.639,290.786,122.592,282.575,122.592z"/>
	<path style="fill:#EF9245;" d="M282.575,96.209c-8.211,0-12.691-1.954-16.29-3.523c-3.025-1.318-5.21-2.272-10.29-2.272
		c-5.078,0-7.263,0.953-10.287,2.272c-3.599,1.569-8.079,3.523-16.288,3.523c-4.146,0-7.507-3.361-7.507-7.507
		c0-4.146,3.361-7.507,7.507-7.507c5.078,0,7.263-0.953,10.287-2.272c3.599-1.569,8.079-3.523,16.288-3.523
		c8.211,0,12.691,1.954,16.29,3.523c3.025,1.318,5.21,2.272,10.29,2.272c4.146,0,7.507,3.361,7.507,7.507
		C290.082,92.848,286.721,96.209,282.575,96.209z"/>
</g>
<g>
</g>
<g>
</g>
<g>
</g>
<g>
</g>
<g>
</g>
<g>
</g>
<g>
</g>
<g>
</g>
<g>
</g>
<g>
</g>
<g>
</g>
<g>
</g>
<g>
</g>
<g>
</g>
<g>
</g>
</svg>
