<?xml version="1.0" encoding="iso-8859-1"?>
<!-- Generator: Adobe Illustrator 19.0.0, SVG Export Plug-In . SVG Version: 6.00 Build 0)  -->
<svg version="1.1" id="Capa_1" xmlns="http://www.w3.org/2000/svg" xmlns:xlink="http://www.w3.org/1999/xlink" x="0px" y="0px"
	 viewBox="0 0 512 512" style="enable-background:new 0 0 512 512;" xml:space="preserve">
<polygon style="fill:#FA9E3E;" points="298.1,363.08 298.1,267.73 213.9,267.73 213.9,363.08 256,387.67 "/>
<path style="fill:#F0EEEE;" d="M308.927,355.944H203.073c-45.69,0-82.862,37.172-82.862,82.862V504.5c0,4.142,3.358,7.5,7.5,7.5
	h256.578c4.142,0,7.5-3.358,7.5-7.5v-65.694C391.789,393.116,354.617,355.944,308.927,355.944z"/>
<path style="fill:#D9D4D4;" d="M308.927,355.944h-28.652c45.69,0,82.862,37.172,82.862,82.862V504.5c0,4.142-3.358,7.5-7.5,7.5
	h28.652c4.142,0,7.5-3.358,7.5-7.5v-65.694C391.789,393.116,354.617,355.944,308.927,355.944z"/>
<path style="fill:#5B5BB2;" d="M384.767,34.896C348.606,12.393,302.875,0,256,0s-92.606,12.393-128.767,34.896
	C92.132,56.739,72,84.463,72,110.96c0,26.184,19.848,50.359,55.887,68.072C162.233,195.913,207.731,205.21,256,205.21
	s93.767-9.297,128.113-26.178C420.152,161.319,440,137.144,440,110.96C440,84.463,419.868,56.739,384.767,34.896z"/>
<path style="fill:#3F3F93;" d="M384.767,34.896C348.606,12.393,302.875,0,256,0c-2.686,0-5.368,0.046-8.045,0.127
	c40.349,1.332,79.374,13.556,110.607,34.769c32.16,21.843,50.605,49.567,50.605,76.064c0,26.184-18.185,50.359-51.205,68.072
	c-29.713,15.94-68.538,25.113-110.007,26.087c2.673,0.057,5.354,0.091,8.045,0.091c48.269,0,93.767-9.297,128.113-26.178
	C420.152,161.319,440,137.144,440,110.96C440,84.463,419.868,56.739,384.767,34.896z"/>
<path style="fill:#F0EEEE;" d="M115,135.888v112.407h282V135.888c0-16.114-13.063-29.178-29.178-29.178H144.178
	C128.063,106.71,115,119.773,115,135.888z"/>
<g>
	<path style="fill:#FA9E3E;" d="M125.839,223.99h49.369v56.61h-49.369c-15.632,0-28.305-12.673-28.305-28.305
		S110.207,223.99,125.839,223.99z"/>
	<path style="fill:#FA9E3E;" d="M386.161,223.99h-49.369v56.61h49.369c15.632,0,28.305-12.673,28.305-28.305
		S401.793,223.99,386.161,223.99z"/>
</g>
<path style="fill:#FFB56B;" d="M256,342.79L256,342.79c-61.919,0-112.115-50.195-112.115-112.115V117.281h224.229v113.394
	C368.115,292.595,317.919,342.79,256,342.79z"/>
<path style="fill:#EF9245;" d="M344.781,117.281v125.062c0,53.578-41.949,97.354-94.794,100.286
	c1.992,0.105,3.996,0.161,6.014,0.161l0,0c61.919,0,112.115-50.195,112.115-112.115V117.281H344.781z"/>
<g>
	<path style="fill:#19303F;" d="M310.324,232.962c-4.142,0-7.5-3.358-7.5-7.5v-2c0-4.142,3.358-7.5,7.5-7.5s7.5,3.358,7.5,7.5v2
		C317.824,229.605,314.466,232.962,310.324,232.962z"/>
	<path style="fill:#19303F;" d="M201.676,232.962c-4.142,0-7.5-3.358-7.5-7.5v-2c0-4.142,3.358-7.5,7.5-7.5s7.5,3.358,7.5,7.5v2
		C209.176,229.605,205.818,232.962,201.676,232.962z"/>
</g>
<path style="fill:#484655;" d="M377.26,142.611c-0.054-4.104-3.396-7.401-7.5-7.401H142.24c-4.091,0-7.427,3.251-7.498,7.342
	c-0.007,0.163-0.011,0.328-0.011,0.492c0,16.674,13.414,31.83,37.771,42.678c22.428,9.988,52.081,15.489,83.499,15.489
	s61.071-5.501,83.498-15.489c24.357-10.847,37.771-26.004,37.771-42.678C377.27,142.885,377.265,142.727,377.26,142.611z"/>
<g>
	<path style="fill:#FFB700;" d="M115,135.888v6.822h282v-6.822c0-16.114-13.063-29.178-29.178-29.178H144.178
		C128.063,106.71,115,119.773,115,135.888z"/>
	<path style="fill:#FFB700;" d="M397,150.21H115c-4.142,0-7.5-3.358-7.5-7.5v-6.822c0-20.224,16.454-36.678,36.678-36.678h223.645
		c20.224,0,36.678,16.454,36.678,36.678v6.822C404.5,146.852,401.142,150.21,397,150.21z M122.51,135.21h266.98
		c-0.36-11.641-9.941-21-21.667-21H144.178C132.452,114.21,122.87,123.569,122.51,135.21z"/>
</g>
<path style="fill:#F0EEEE;" d="M270.424,239.265h-28.848c-18.996,0-34.451,15.455-34.451,34.451v7.243
	c0,3.715,3.011,6.726,6.726,6.726h84.298c3.715,0,6.726-3.011,6.726-6.726v-7.243C304.875,254.72,289.42,239.265,270.424,239.265z"
	/>
<g>
	<circle style="fill:#FFB700;" cx="213.9" cy="410.99" r="13.448"/>
	<circle style="fill:#FFB700;" cx="213.9" cy="469.79" r="13.448"/>
</g>
<path style="fill:#EF9245;" d="M324.5,463.208c-4.142,0-7.5-3.358-7.5-7.5v-15.674c0-4.142,3.358-7.5,7.5-7.5s7.5,3.358,7.5,7.5
	v15.674C332,459.85,328.642,463.208,324.5,463.208z"/>
<path style="fill:#FFB700;" d="M355.666,410.452h-62.333c-4.142,0-7.5,3.358-7.5,7.5v22.082c0,4.142,3.358,7.5,7.5,7.5h62.333
	c4.142,0,7.5-3.358,7.5-7.5v-22.082C363.166,413.81,359.809,410.452,355.666,410.452z"/>
<circle style="fill:#FFD100;" cx="324.5" cy="469.79" r="14.09"/>
<path style="fill:#F0EEEE;" d="M256,19.46c-31.085,0-56.375,25.29-56.375,56.375S224.915,132.21,256,132.21
	s56.375-25.29,56.375-56.375S287.085,19.46,256,19.46z"/>
<path style="fill:#484655;" d="M281.15,85.141c-2.958-2.899-7.707-2.852-10.606,0.105c-2.033,2.074-4.43,3.642-7.043,4.678V73.619
	c6.756-2.915,11.5-9.637,11.5-17.451c0-10.477-8.523-19-19-19c-10.477,0-19,8.523-19,19c0,7.813,4.744,14.536,11.5,17.451v16.305
	c-2.613-1.036-5.011-2.604-7.044-4.678c-2.9-2.957-7.648-3.004-10.606-0.105c-2.957,2.9-3.005,7.648-0.105,10.606
	c4.92,5.019,11.057,8.376,17.755,9.814v1.44c0,4.142,3.358,7.5,7.5,7.5s7.5-3.358,7.5-7.5v-1.44
	c6.698-1.438,12.835-4.796,17.755-9.814C284.155,92.79,284.107,88.041,281.15,85.141z M256,52.168c2.206,0,4,1.794,4,4s-1.794,4-4,4
	s-4-1.794-4-4C252,53.963,253.794,52.168,256,52.168z"/>
<g>
</g>
<g>
</g>
<g>
</g>
<g>
</g>
<g>
</g>
<g>
</g>
<g>
</g>
<g>
</g>
<g>
</g>
<g>
</g>
<g>
</g>
<g>
</g>
<g>
</g>
<g>
</g>
<g>
</g>
</svg>
