<?xml version="1.0" encoding="iso-8859-1"?>
<!-- Generator: Adobe Illustrator 19.0.0, SVG Export Plug-In . SVG Version: 6.00 Build 0)  -->
<svg version="1.1" id="Capa_1" xmlns="http://www.w3.org/2000/svg" xmlns:xlink="http://www.w3.org/1999/xlink" x="0px" y="0px"
	 viewBox="0 0 512 512" style="enable-background:new 0 0 512 512;" xml:space="preserve">
<path style="fill:#F0EEEE;" d="M308.938,355.914H203.062c-45.699,0-82.878,37.179-82.878,82.878v65.707
	c0,4.143,3.359,7.501,7.502,7.501h256.628c4.143,0,7.501-3.359,7.501-7.501v-65.707
	C391.816,393.094,354.636,355.914,308.938,355.914z"/>
<path style="fill:#D9D4D4;" d="M308.938,355.914h-26.672c45.699,0,82.878,37.179,82.878,82.878v65.707
	c0,4.143-3.359,7.501-7.501,7.501h26.672c4.143,0,7.501-3.359,7.501-7.501v-65.707C391.816,393.094,354.636,355.914,308.938,355.914
	z"/>
<path style="fill:#484655;" d="M151.823,345.607h208.354c26.639,0,47.943-22.134,46.927-48.753l-7.37-192.99
	c-1.423-37.276-32.056-66.761-69.359-66.761H181.626c-37.303,0-67.936,29.485-69.359,66.761l-7.37,192.99
	C103.88,323.474,125.185,345.607,151.823,345.607z"/>
<path style="fill:#78D6D1;" d="M252.948,475.306c0.973,0.459,2.012,0.688,3.052,0.688c1.039,0,2.079-0.229,3.052-0.688
	c25.921-12.224,45.26-32.938,55.926-59.902c7.249-18.325,10.282-39.122,8.62-58.165c-4.762-0.854-9.656-1.325-14.66-1.325H203.062
	c-5.004,0-9.898,0.471-14.66,1.325c-1.663,19.043,1.371,39.84,8.62,58.165C207.688,442.368,227.027,463.081,252.948,475.306z"/>
<path style="fill:#5AA8A2;" d="M323.598,357.239C323.597,357.239,323.597,357.239,323.598,357.239
	c-1.16-0.208-2.327-0.391-3.502-0.552c-0.102-0.014-0.205-0.026-0.307-0.039c-1.074-0.143-2.155-0.267-3.241-0.37
	c-0.398-0.036-0.799-0.061-1.199-0.091c-0.832-0.066-1.664-0.132-2.502-0.173c-1.296-0.06-2.598-0.099-3.909-0.099h-26.672
	c15.225,0,29.492,4.145,41.766,11.338C324.022,363.878,323.885,360.531,323.598,357.239z"/>
<g>
	<path style="fill:#FA9E3E;" d="M213.896,267.683v90.686c0,23.254,18.851,42.104,42.104,42.104l0,0
		c23.253,0,42.104-18.851,42.104-42.104v-90.686H213.896z"/>
	<path style="fill:#FA9E3E;" d="M125.814,223.935h49.379v56.621h-49.379c-15.635,0-28.31-12.675-28.31-28.311
		C97.503,236.61,110.178,223.935,125.814,223.935z"/>
	<path style="fill:#FA9E3E;" d="M386.186,223.935h-49.379v56.621h49.379c15.635,0,28.31-12.675,28.31-28.311
		C414.497,236.61,401.822,223.935,386.186,223.935z"/>
</g>
<path style="fill:#FFB56B;" d="M365.305,190.591c1.708,0.768,2.827,2.439,2.827,4.312v35.723c0,30.966-12.552,58.991-32.836,79.285
	c-20.294,20.294-48.329,32.846-79.296,32.846c-0.97,0-1.93-0.01-2.891-0.04h-0.13c-0.92-0.02-1.84-0.06-2.751-0.11
	c-0.07,0-0.13,0-0.2-0.01h-0.04c-59.142-3.121-106.121-52.07-106.121-111.972v-37.559c0-4.041,3.202-7.35,7.239-7.509
	c88.409-3.478,137.807-30.571,167.733-56.787c1.978-1.732,5.061-0.666,5.595,1.908c3.174,15.32,10.414,31.338,20.362,43.415
	C350.758,181.339,357.695,187.17,365.305,190.591z"/>
<path style="fill:#19303F;" d="M256,288.442c-13.496,0-26.147-6.633-33.839-17.743c-2.358-3.406-1.509-8.079,1.897-10.438
	c3.406-2.358,8.08-1.51,10.438,1.897c4.891,7.063,12.93,11.281,21.505,11.281c8.574,0,16.614-4.217,21.505-11.281
	c2.358-3.406,7.031-4.255,10.438-1.897c3.406,2.358,4.255,7.032,1.897,10.438C282.147,281.809,269.496,288.442,256,288.442z"/>
<path style="fill:#EF9245;" d="M365.305,190.591c1.708,0.768,2.827,2.439,2.827,4.312v35.723c0,30.966-12.552,58.991-32.836,79.285
	c-20.294,20.294-48.329,32.846-79.296,32.846c-0.97,0-1.93-0.01-2.891-0.04h-0.13c-0.92-0.02-1.84-0.06-2.751-0.11
	c-0.07,0-0.13,0-0.2-0.01c52.83-2.951,94.768-46.729,94.768-100.309v-68.193C350.758,181.339,357.695,187.17,365.305,190.591z"/>
<g>
	<path style="fill:#19303F;" d="M310.334,226.908c-4.143,0-7.501-3.359-7.501-7.502v-2c0-4.143,3.358-7.501,7.501-7.501
		s7.501,3.359,7.501,7.501v2C317.836,223.549,314.477,226.908,310.334,226.908z"/>
	<path style="fill:#19303F;" d="M201.666,226.908c-4.143,0-7.501-3.359-7.501-7.502v-2c0-4.143,3.359-7.501,7.501-7.501
		s7.501,3.359,7.501,7.501v2C209.167,223.549,205.809,226.908,201.666,226.908z"/>
</g>
<g>
	<path style="fill:#F0EEEE;" d="M380.358,303.794c-4.143,0-7.501-3.359-7.501-7.502v-29.864c0-4.143,3.359-7.501,7.501-7.501
		c4.143,0,7.501,3.359,7.501,7.501v29.864C387.859,300.435,384.501,303.794,380.358,303.794z"/>
	<path style="fill:#F0EEEE;" d="M131.642,303.794c-4.143,0-7.502-3.359-7.502-7.502v-29.864c0-4.143,3.359-7.501,7.502-7.501
		c4.143,0,7.501,3.359,7.501,7.501v29.864C139.144,300.435,135.785,303.794,131.642,303.794z"/>
	<path style="fill:#F0EEEE;" d="M382.778,28.348c-0.748-1.89-2.231-3.396-4.109-4.173c-77.958-32.232-167.379-32.232-245.337,0
		c-1.878,0.777-3.361,2.283-4.109,4.173c-0.748,1.891-0.696,4.003,0.142,5.855l38.994,86.097c1.669,3.686,5.96,5.383,9.7,3.838
		c49.533-20.481,106.35-20.481,155.883,0c0.937,0.387,1.907,0.571,2.863,0.57c2.86,0,5.585-1.646,6.836-4.408l38.994-86.097
		C383.474,32.351,383.525,30.238,382.778,28.348z"/>
</g>
<g>
	<path style="fill:#78D6D1;" d="M160.722,103.438l7.637,16.862c1.669,3.686,5.96,5.383,9.7,3.838
		c49.533-20.481,106.35-20.481,155.883,0c0.937,0.387,1.907,0.571,2.863,0.57c2.86,0,5.585-1.646,6.836-4.408l7.637-16.862
		C290.03,78.643,221.97,78.643,160.722,103.438z"/>
	<path style="fill:#78D6D1;" d="M135.526,47.805c76.71-31.039,164.239-31.039,240.949,0l6.161-13.603
		c0.839-1.851,0.89-3.964,0.142-5.855c-0.748-1.89-2.231-3.396-4.109-4.173c-77.958-32.232-167.379-32.232-245.337,0
		c-1.878,0.777-3.361,2.283-4.109,4.173c-0.748,1.891-0.696,4.003,0.142,5.855L135.526,47.805z"/>
</g>
<path style="fill:#3D5868;" d="M270.698,44.605h-7.196v-7.197c0-4.143-3.359-7.501-7.501-7.501c-4.143,0-7.502,3.359-7.502,7.501
	v7.197h-7.197c-4.143,0-7.501,3.359-7.501,7.501s3.359,7.501,7.501,7.501h7.197v7.197c0,4.143,3.359,7.502,7.502,7.502
	c4.143,0,7.501-3.359,7.501-7.502v-7.197h7.196c4.143,0,7.501-3.359,7.501-7.501S274.841,44.605,270.698,44.605z"/>
<g>
</g>
<g>
</g>
<g>
</g>
<g>
</g>
<g>
</g>
<g>
</g>
<g>
</g>
<g>
</g>
<g>
</g>
<g>
</g>
<g>
</g>
<g>
</g>
<g>
</g>
<g>
</g>
<g>
</g>
</svg>
