<?xml version="1.0" encoding="iso-8859-1"?>
<!-- Generator: Adobe Illustrator 19.0.0, SVG Export Plug-In . SVG Version: 6.00 Build 0)  -->
<svg version="1.1" id="Capa_1" xmlns="http://www.w3.org/2000/svg" xmlns:xlink="http://www.w3.org/1999/xlink" x="0px" y="0px"
	 viewBox="0 0 512.001 512.001" style="enable-background:new 0 0 512.001 512.001;" xml:space="preserve">
<path style="fill:#FB403F;" d="M396.059,103.659c-6.328,0-12.47,1.044-18.334,3.111c-6.949-9.14-17.747-14.593-29.543-14.593
	c-20.5,0-37.179,16.679-37.179,37.179c0,18.079,12.973,33.187,30.098,36.502c0.353,2.864,0.933,5.693,1.731,8.47
	c-7.134,8.327-11.147,19.039-11.147,30.066c0,25.461,20.715,46.175,46.176,46.175c24.633,0,44.822-19.39,46.109-43.707
	c16.829-9.855,27.466-28.135,27.466-47.827C451.435,128.501,426.593,103.659,396.059,103.659z"/>
<path style="fill:#C21C1C;" d="M396.059,103.659c-4.656,0-9.21,0.57-13.629,1.692c23.986,6.074,41.787,27.837,41.787,53.684
	c0,19.692-10.637,37.973-27.466,47.827c-1.04,19.645-14.418,36.068-32.508,41.656c4.306,1.332,8.879,2.051,13.617,2.051
	c24.633,0,44.822-19.39,46.109-43.707c16.829-9.855,27.466-28.135,27.466-47.827C451.435,128.501,426.593,103.659,396.059,103.659z"
	/>
<path style="fill:#FB403F;" d="M163.819,92.178c-11.796,0-22.594,5.453-29.543,14.593c-5.864-2.067-12.006-3.111-18.334-3.111
	c-30.535,0-55.377,24.842-55.377,55.376c0,19.692,10.637,37.973,27.466,47.827c1.287,24.317,21.476,43.707,46.109,43.707
	c25.461,0,46.176-20.714,46.176-46.175c0-11.027-4.014-21.739-11.148-30.066c0.799-2.776,1.378-5.605,1.732-8.47
	c17.125-3.315,30.098-18.423,30.098-36.502C200.998,108.856,184.319,92.178,163.819,92.178z"/>
<g>
	<path style="fill:#FA9E3E;" d="M125.839,223.99h49.369v56.61h-49.369c-15.632,0-28.305-12.673-28.305-28.305
		S110.207,223.99,125.839,223.99z"/>
	<path style="fill:#FA9E3E;" d="M386.161,223.99h-49.369v56.61h49.369c15.632,0,28.305-12.673,28.305-28.305
		S401.793,223.99,386.161,223.99z"/>
</g>
<path style="fill:#FFB700;" d="M308.93,355.94H203.07c-14.826,0-29.382,3.971-42.091,11.48c-8.3,4.898-15.634,11.158-21.8,18.611
	c-12.232,14.796-18.97,33.54-18.97,52.779v65.69c0,4.143,3.357,7.5,7.5,7.5h256.58c4.143,0,7.5-3.357,7.5-7.5v-65.69
	C391.79,393.115,354.619,355.94,308.93,355.94z"/>
<path style="fill:#49B6F2;" d="M384.29,512c4.143,0,7.5-3.357,7.5-7.5v-65.69c0-45.695-37.171-82.871-82.86-82.871H256V512H384.29z"
	/>
<path style="fill:#2E93CC;" d="M308.93,355.94h-26.547c45.689,0,82.86,37.176,82.86,82.871v65.69c0,4.143-3.357,7.5-7.5,7.5h26.547
	c4.143,0,7.5-3.357,7.5-7.5v-65.69C391.79,393.115,354.619,355.94,308.93,355.94z"/>
<path style="fill:#F0EEEE;" d="M329.524,356.823c0.058-0.723,0.087-1.447,0.087-2.17c0-18.422-18.594-33.409-41.449-33.409
	c-12.737,0-24.442,4.613-32.162,12.258c-7.72-7.645-19.425-12.258-32.162-12.258c-22.855,0-41.449,14.987-41.449,33.409
	c0,0.723,0.029,1.446,0.087,2.17c-7.021,6.968-10.971,16.372-10.971,26.419c0,20.569,16.734,37.304,37.303,37.304
	c1.01,0,2.021-0.042,3.032-0.125c9.818,14.654,26.288,23.56,44.16,23.56s34.342-8.905,44.16-23.56
	c1.011,0.083,2.022,0.125,3.032,0.125c20.568,0,37.303-16.734,37.303-37.304C340.495,373.195,336.546,363.792,329.524,356.823z"/>
<path style="fill:#FA9E3E;" d="M298.1,267.73v97.244c0,20.493-16.613,37.106-37.106,37.106h-9.989
	c-20.493,0-37.106-16.613-37.106-37.106V267.73H298.1z"/>
<path style="fill:#F0EEEE;" d="M256,342.79L256,342.79c-61.919,0-112.115-50.195-112.115-112.115v-35.29
	c0-58.048,47.057-105.104,105.104-105.104h14.021c58.047,0,105.104,47.057,105.104,105.104v35.29
	C368.115,292.595,317.919,342.79,256,342.79z"/>
<path style="fill:#D9D4D4;" d="M263.01,90.281h-11.14c52.619,0,95.276,42.657,95.276,95.276v55.603
	c0,54.401-42.744,98.819-96.479,101.501c1.768,0.083,3.545,0.129,5.333,0.129l0,0c61.919,0,112.115-50.195,112.115-112.115v-35.29
	C368.115,137.338,321.059,90.281,263.01,90.281z"/>
<g>
	<path style="fill:#19303F;" d="M256,323.894c-13.493,0-26.141-6.632-33.833-17.739c-2.358-3.405-1.509-8.077,1.896-10.435
		c3.403-2.357,8.078-1.51,10.435,1.896c4.891,7.062,12.929,11.278,21.501,11.278c8.572,0,16.61-4.217,21.501-11.278
		c2.358-3.406,7.031-4.256,10.435-1.896c3.405,2.358,4.255,7.03,1.897,10.435C282.141,317.262,269.493,323.894,256,323.894z"/>
	<path style="fill:#19303F;" d="M310.323,242.962c-4.143,0-7.5-3.357-7.5-7.5v-2c0-4.143,3.357-7.5,7.5-7.5s7.5,3.357,7.5,7.5v2
		C317.823,239.605,314.466,242.962,310.323,242.962z"/>
	<path style="fill:#19303F;" d="M201.677,242.962c-4.143,0-7.5-3.357-7.5-7.5v-2c0-4.143,3.357-7.5,7.5-7.5s7.5,3.357,7.5,7.5v2
		C209.177,239.605,205.819,242.962,201.677,242.962z"/>
</g>
<path style="fill:#49B6F2;" d="M256,0c-39.505,0-71.645,32.14-71.645,71.645V102c0,4.143,3.357,7.5,7.5,7.5h128.289
	c4.143,0,7.5-3.357,7.5-7.5V71.645C327.645,32.14,295.505,0,256,0z"/>
<path style="fill:#2E93CC;" d="M256,0c-4.853,0-9.593,0.491-14.178,1.415c32.737,6.599,57.467,35.578,57.467,70.23V102
	c0,4.143-3.357,7.5-7.5,7.5h28.355c4.143,0,7.5-3.357,7.5-7.5V71.645C327.645,32.14,295.505,0,256,0z"/>
<path style="fill:#FFB700;" d="M326.02,56.5H185.981c-1.056,4.885-1.626,9.949-1.626,15.145V102h143.289V71.645
	C327.645,66.449,327.076,61.385,326.02,56.5z"/>
<path style="fill:#D69400;" d="M327.54,67.821c-0.009-0.167-0.028-0.332-0.038-0.498c-0.068-1.118-0.153-2.232-0.272-3.336
	c-0.008-0.07-0.019-0.139-0.027-0.209c-0.274-2.463-0.669-4.891-1.184-7.275V56.5h-28.352c1.056,4.884,1.622,9.949,1.622,15.145V102
	h28.355V71.645C327.645,70.362,327.608,69.087,327.54,67.821z"/>
<path style="fill:#49B6F2;" d="M325.276,82.781H186.724c-21.076,0-38.224,17.147-38.224,38.224V127c0,4.143,3.357,7.5,7.5,7.5h200
	c4.143,0,7.5-3.357,7.5-7.5v-5.995C363.5,99.929,346.353,82.781,325.276,82.781z"/>
<path style="fill:#2E93CC;" d="M325.276,82.781h-29.167c21.076,0,38.224,17.147,38.224,38.224V127c0,4.143-3.357,7.5-7.5,7.5H356
	c4.143,0,7.5-3.357,7.5-7.5v-5.995C363.5,99.929,346.353,82.781,325.276,82.781z"/>
<circle style="fill:#FB403F;" cx="256" cy="263.83" r="23.833"/>
<g>
</g>
<g>
</g>
<g>
</g>
<g>
</g>
<g>
</g>
<g>
</g>
<g>
</g>
<g>
</g>
<g>
</g>
<g>
</g>
<g>
</g>
<g>
</g>
<g>
</g>
<g>
</g>
<g>
</g>
</svg>
