<?xml version="1.0" encoding="iso-8859-1"?>
<!-- Generator: Adobe Illustrator 19.0.0, SVG Export Plug-In . SVG Version: 6.00 Build 0)  -->
<svg version="1.1" id="Capa_1" xmlns="http://www.w3.org/2000/svg" xmlns:xlink="http://www.w3.org/1999/xlink" x="0px" y="0px"
	 viewBox="0 0 512.001 512.001" style="enable-background:new 0 0 512.001 512.001;" xml:space="preserve">
<path style="fill:#B19D7D;" d="M286.306,0c-7.984,0-21.848,6.361-29.25,10.069C249.654,6.361,235.789,0,227.806,0
	c-12.757,0-22.75,8.126-22.75,18.5s9.993,18.5,22.75,18.5c7.984,0,21.848-6.361,29.25-10.069C264.457,30.639,278.322,37,286.306,37
	c12.757,0,22.75-8.126,22.75-18.5S299.062,0,286.306,0z M227.806,22c-4.822,0-7.75-2.431-7.75-3.5s2.928-3.5,7.75-3.5
	c2.111,0,6.523,1.435,11.57,3.5C234.328,20.565,229.917,22,227.806,22z M286.306,22c-2.111,0-6.522-1.435-11.57-3.5
	c5.048-2.065,9.459-3.5,11.57-3.5c4.822,0,7.75,2.431,7.75,3.5S291.128,22,286.306,22z"/>
<g>
	<path style="fill:#FA9E3E;" d="M126.895,223.99h49.369v56.61h-49.369c-15.632,0-28.305-12.673-28.305-28.305
		S111.262,223.99,126.895,223.99z"/>
	<path style="fill:#FA9E3E;" d="M387.217,223.99h-49.369v56.61h49.369c15.632,0,28.305-12.673,28.305-28.305
		S402.849,223.99,387.217,223.99z"/>
</g>
<path style="fill:#B19D7D;" d="M309.985,355.94H204.126c-14.826,0-29.382,3.971-42.091,11.48c-8.3,4.898-15.634,11.158-21.8,18.611
	c-12.232,14.796-18.97,33.54-18.97,52.779v65.69c0,4.143,3.357,7.5,7.5,7.5h256.58c4.143,0,7.5-3.357,7.5-7.5v-65.69
	C392.846,393.115,355.675,355.94,309.985,355.94z"/>
<path style="fill:#E7CF90;" d="M309.985,355.94h-0.123c-2.271,0-4.42,1.029-5.844,2.799l-42.555,52.893
	c-1.947,2.42-2.2,5.79-0.638,8.475l51.321,88.167c1.343,2.307,3.812,3.727,6.481,3.727h66.717c4.143,0,7.5-3.357,7.5-7.5v-65.69
	C392.846,393.115,355.675,355.94,309.985,355.94z"/>
<path style="fill:#D3B97D;" d="M309.985,355.94h-0.123c-2.258,0-4.393,1.019-5.817,2.769c35.435,9.403,61.63,41.745,61.63,80.102
	v65.69c0,4.143-3.357,7.5-7.5,7.5h27.171c4.143,0,7.5-3.357,7.5-7.5v-65.69C392.846,393.115,355.675,355.94,309.985,355.94z"/>
<path style="fill:#E7CF90;" d="M252.647,411.632l-42.555-52.893c-1.424-1.77-3.572-2.799-5.844-2.799h-0.123
	c-14.826,0-29.382,3.971-42.091,11.48c-8.3,4.898-15.634,11.158-21.8,18.612c-12.232,14.797-18.97,33.54-18.97,52.778v65.69
	c0,4.143,3.357,7.5,7.5,7.5h66.717c2.67,0,5.139-1.42,6.481-3.727l51.321-88.167C254.848,417.422,254.595,414.052,252.647,411.632z"
	/>
<path style="fill:#C6AA71;" d="M360.413,450.531l-10.92-83.83V366.7c-1.502-11.516-11.393-20.2-23.008-20.2H187.626
	c-11.615,0-21.506,8.685-23.008,20.201l-10.92,83.83c-0.367,2.819,0.892,5.603,3.249,7.19c2.359,1.588,5.412,1.705,7.885,0.304
	l58.34-33.049c8.984,4.331,18.887,6.604,28.894,6.604h9.98c10.016,0,19.919-2.273,28.895-6.603l58.339,33.048
	c1.149,0.651,2.424,0.975,3.696,0.975c1.465,0,2.926-0.429,4.189-1.278C359.522,456.135,360.78,453.351,360.413,450.531z"/>
<path style="fill:#FA9E3E;" d="M299.156,267.73v97.244c0,20.493-16.613,37.106-37.106,37.106h-9.989
	c-20.493,0-37.106-16.613-37.106-37.106V267.73H299.156z"/>
<path style="fill:#484655;" d="M118.056,148.59v57.265c0,34.173,27.702,61.875,61.875,61.875h154.25
	c34.173,0,61.875-27.702,61.875-61.875V148.59H118.056z"/>
<path style="fill:#FFB56B;" d="M257.056,342.79L257.056,342.79c-61.919,0-112.115-50.195-112.115-112.115V117.281H369.17v113.394
	C369.17,292.595,318.975,342.79,257.056,342.79z"/>
<path style="fill:#19303F;" d="M257.056,288.484c-13.494,0-26.142-6.632-33.833-17.739c-2.358-3.405-1.509-8.077,1.896-10.435
	c3.406-2.358,8.078-1.51,10.436,1.896c4.891,7.063,12.928,11.278,21.501,11.278c8.573,0,16.61-4.216,21.501-11.278
	c2.357-3.404,7.029-4.255,10.435-1.896c3.405,2.358,4.255,7.03,1.897,10.435C283.197,281.853,270.55,288.484,257.056,288.484z"/>
<path style="fill:#EF9245;" d="M345.836,117.281v125.062c0,53.578-41.949,97.354-94.795,100.286
	c1.992,0.105,3.996,0.161,6.014,0.161l0,0c61.919,0,112.115-50.195,112.115-112.115V117.281H345.836z"/>
<g>
	<path style="fill:#19303F;" d="M311.379,249.962c-4.143,0-7.5-3.357-7.5-7.5v-2c0-4.143,3.357-7.5,7.5-7.5s7.5,3.357,7.5,7.5v2
		C318.879,246.605,315.522,249.962,311.379,249.962z"/>
	<path style="fill:#19303F;" d="M202.732,249.962c-4.143,0-7.5-3.357-7.5-7.5v-2c0-4.143,3.357-7.5,7.5-7.5s7.5,3.357,7.5,7.5v2
		C210.232,246.605,206.875,249.962,202.732,249.962z"/>
</g>
<path style="fill:#C6AA71;" d="M256.001,110.425c-62.194,0-110.914,28.231-110.914,64.269s48.72,64.268,110.914,64.268
	s110.914-28.23,110.914-64.268C366.915,138.655,318.195,110.425,256.001,110.425z"/>
<path style="fill:#B19D7D;" d="M417.884,126.392L417.884,126.392c-10.852-19.51-24.34-28.456-81.103-66.11
	c-9.328-6.188-19.854-13.17-31.762-21.122c-14.388-9.61-31.338-14.689-49.018-14.689s-34.63,5.079-49.018,14.688
	c-11.908,7.952-22.434,14.935-31.762,21.122c-56.764,37.654-70.251,46.6-81.103,66.11c-6.801,12.224-6.835,26.09-0.09,36.186
	c5.748,8.605,15.589,13.048,26.384,11.964H391.59c1.077,0.108,2.143,0.162,3.198,0.162c9.521,0,18.011-4.38,23.186-12.126
	C424.719,152.481,424.685,138.615,417.884,126.392z"/>
<path style="fill:#E7CF90;" d="M355.749,70.865c-31.328-28.947-69.135-44.354-88.883-50.962c-7.107-2.379-14.623-2.379-21.73,0
	h-0.001c-19.747,6.607-57.554,22.015-88.882,50.962c-30.417,28.105-45.839,60.467-45.839,96.188c0,3.12,1.932,5.914,4.85,7.017
	c46.664,17.624,94.015,26.56,140.737,26.56c46.723,0,94.073-8.936,140.737-26.56c2.918-1.103,4.85-3.896,4.85-7.017
	C401.588,131.332,386.166,98.97,355.749,70.865z"/>
<path style="fill:#C6AA71;" d="M355.749,70.865c-31.328-28.947-69.135-44.354-88.883-50.962c-3.081-1.031-6.239-1.587-9.406-1.725
	c2.542,0.184,5.074,0.843,7.547,1.99c16.368,7.59,47.704,25.288,73.67,58.54c23.548,30.155,36.249,64.577,37.823,102.424
	c6.758-2.18,13.506-4.52,20.239-7.063c2.918-1.103,4.85-3.896,4.85-7.017C401.588,131.332,386.166,98.97,355.749,70.865z"/>
<g>
	<path style="fill:#484655;" d="M257.056,456c-0.49,0-0.98-0.05-1.47-0.15c-0.471-0.09-0.95-0.24-1.4-0.43
		c-0.45-0.18-0.89-0.41-1.29-0.68c-0.42-0.28-0.8-0.591-1.14-0.94c-1.4-1.39-2.2-3.32-2.2-5.3c0-0.49,0.05-0.98,0.149-1.471
		c0.091-0.47,0.24-0.949,0.42-1.399c0.191-0.45,0.421-0.89,0.691-1.29c0.28-0.42,0.59-0.8,0.94-1.14c0.34-0.351,0.72-0.66,1.14-0.94
		c0.4-0.27,0.84-0.5,1.29-0.69c0.45-0.18,0.93-0.329,1.4-0.42c2.439-0.5,5.029,0.301,6.77,2.051c0.35,0.34,0.66,0.72,0.94,1.14
		c0.27,0.4,0.5,0.84,0.69,1.29c0.18,0.45,0.33,0.93,0.42,1.399c0.101,0.49,0.15,0.98,0.15,1.471c0,1.979-0.8,3.91-2.2,5.3
		C260.966,455.2,259.035,456,257.056,456z"/>
	<path style="fill:#484655;" d="M257.056,487c-0.49,0-0.98-0.05-1.47-0.15c-0.471-0.09-0.95-0.24-1.4-0.42
		c-0.45-0.189-0.89-0.42-1.29-0.689c-0.41-0.28-0.8-0.591-1.14-0.94c-1.4-1.39-2.2-3.32-2.2-5.3c0-0.49,0.05-0.98,0.149-1.46
		c0.091-0.48,0.24-0.96,0.42-1.41c0.191-0.45,0.421-0.89,0.691-1.29c0.28-0.41,0.59-0.8,0.94-1.14c0.34-0.351,0.729-0.66,1.14-0.94
		c0.4-0.27,0.84-0.5,1.29-0.68c0.45-0.191,0.93-0.34,1.4-0.431c2.439-0.5,5.039,0.311,6.77,2.051c0.35,0.34,0.66,0.729,0.94,1.14
		c0.27,0.4,0.5,0.84,0.69,1.29c0.18,0.45,0.33,0.93,0.42,1.41c0.101,0.479,0.15,0.97,0.15,1.46c0,1.979-0.8,3.91-2.2,5.3
		C260.966,486.2,259.035,487,257.056,487z"/>
</g>
<g>
</g>
<g>
</g>
<g>
</g>
<g>
</g>
<g>
</g>
<g>
</g>
<g>
</g>
<g>
</g>
<g>
</g>
<g>
</g>
<g>
</g>
<g>
</g>
<g>
</g>
<g>
</g>
<g>
</g>
</svg>
