<?xml version="1.0" encoding="iso-8859-1"?>
<!-- Generator: Adobe Illustrator 19.0.0, SVG Export Plug-In . SVG Version: 6.00 Build 0)  -->
<svg version="1.1" id="Capa_1" xmlns="http://www.w3.org/2000/svg" xmlns:xlink="http://www.w3.org/1999/xlink" x="0px" y="0px"
	 viewBox="0 0 512 512" style="enable-background:new 0 0 512 512;" xml:space="preserve">
<rect x="143.89" y="202.83" style="fill:#D9D4D4;" width="224.22" height="235.17"/>
<rect x="209.66" y="267.73" style="fill:#F0EEEE;" width="92.67" height="95.71"/>
<path style="fill:#484655;" d="M308.925,355.943H203.069c-45.689,0-82.861,37.172-82.861,82.862V504.5c0,4.143,3.358,7.5,7.5,7.5
	h256.578c4.143,0,7.5-3.357,7.5-7.5v-65.694C391.786,393.115,354.615,355.943,308.925,355.943z"/>
<path style="fill:#35343F;" d="M308.925,355.943h-27.667c45.689,0,82.861,37.172,82.861,82.862V504.5c0,4.143-3.357,7.5-7.5,7.5
	h27.667c4.143,0,7.5-3.357,7.5-7.5v-65.694C391.786,393.115,354.615,355.943,308.925,355.943z"/>
<path style="fill:#FFB56B;" d="M368.107,166.54v64.14c0,61.91-50.19,112.11-112.11,112.11s-112.11-50.2-112.11-112.11v-64.14
	c3.85,1.73,8.12,2.69,12.61,2.69c10.19,0,19.23-4.93,24.88-12.54c5.64,7.61,14.68,12.54,24.87,12.54c10.19,0,19.23-4.93,24.88-12.54
	c5.64,7.61,14.68,12.54,24.87,12.54s19.23-4.93,24.88-12.54c5.64,7.61,14.68,12.54,24.87,12.54s19.23-4.93,24.88-12.54
	c5.64,7.61,14.68,12.54,24.87,12.54C359.987,169.23,364.257,168.27,368.107,166.54z"/>
<path style="fill:#EF9245;" d="M344.777,167.317v75.026c0,53.578-41.949,97.354-94.794,100.286c0.99,0.052,1.983,0.092,2.98,0.119
	c0.006,0,0.012,0.001,0.019,0.001c1.002,0.027,2.007,0.041,3.015,0.041l0,0c2.841,0,5.657-0.108,8.445-0.315
	c0.144-0.011,0.289-0.023,0.433-0.034c1.704-0.134,3.397-0.306,5.079-0.515c55.332-6.872,98.152-54.062,98.152-111.246v-64.14
	c-3.85,1.73-8.12,2.69-12.61,2.69C351.728,169.23,348.118,168.552,344.777,167.317z"/>
<g>
	<path style="fill:#19303F;" d="M310.32,232.962c-4.142,0-7.5-3.357-7.5-7.5v-2c0-4.143,3.358-7.5,7.5-7.5
		c4.143,0,7.5,3.357,7.5,7.5v2C317.82,229.605,314.464,232.962,310.32,232.962z"/>
	<path style="fill:#19303F;" d="M201.674,232.962c-4.143,0-7.5-3.357-7.5-7.5v-2c0-4.143,3.357-7.5,7.5-7.5s7.5,3.357,7.5,7.5v2
		C209.174,229.605,205.816,232.962,201.674,232.962z"/>
	<path style="fill:#19303F;" d="M255.997,284.484c-13.494,0-26.142-6.632-33.833-17.739c-2.358-3.405-1.509-8.077,1.896-10.435
		c3.406-2.358,8.078-1.51,10.436,1.896c4.891,7.063,12.928,11.278,21.501,11.278c8.573,0,16.61-4.216,21.501-11.278
		c2.358-3.404,7.029-4.255,10.435-1.896c3.405,2.358,4.255,7.03,1.897,10.435C282.139,277.853,269.491,284.484,255.997,284.484z"/>
</g>
<path style="fill:#D9D4D4;" d="M311.106,436.722l-25.177-80.778h-13.573h-32.719h-13.573l-25.177,80.778
	c-2.037,6.535,2.846,13.172,9.692,13.172h16.482l-1.083,8.092c-1.241,9.272,5.971,17.514,15.326,17.514h29.387
	c9.355,0,16.567-8.242,15.326-17.514l-1.083-8.092h16.482C308.26,449.894,313.143,443.257,311.106,436.722z"/>
<path style="fill:#F0EEEE;" d="M444.391,340.208c2.143-4.916,3.257-10.237,3.257-15.668c0-7.825-2.305-15.363-6.582-21.777
	c4.277-6.409,6.582-13.948,6.582-21.782c0-9.735-3.64-19.052-10.012-26.191c5.225-6.541,8.112-14.674,8.112-23.27
	c0-7.067-1.997-13.932-5.709-19.85c3.712-5.918,5.709-12.782,5.709-19.85c0-9.63-3.782-18.837-10.261-25.71
	c6.479-6.875,10.261-16.08,10.261-25.711c0-9.968-4.031-19.506-11.001-26.476c1.536-4.78,2.311-9.755,2.311-14.854
	c0-24.083-17.61-44.374-40.906-48.18c-7.828-17.361-25.144-28.721-44.494-28.721c-5.575,0-10.975,0.915-16.125,2.727
	C326.337,13.39,312.224,6.46,297.327,6.46c-4.716,0-9.358,0.673-13.855,2.006C275.404,2.981,265.798,0,255.997,0
	c-9.801,0-19.407,2.981-27.476,8.465c-4.496-1.332-9.139-2.005-13.855-2.005c-14.896,0-29.01,6.93-38.205,18.437
	c-5.15-1.812-10.55-2.727-16.125-2.727c-19.351,0-36.666,11.359-44.494,28.721c-23.296,3.806-40.906,24.097-40.906,48.18
	c0,5.1,0.776,10.074,2.313,14.854c-6.971,6.97-11.002,16.508-11.002,26.476c0,9.631,3.781,18.836,10.261,25.711
	c-6.479,6.873-10.261,16.08-10.261,25.71c0,7.067,1.997,13.932,5.709,19.85c-3.712,5.918-5.709,12.782-5.709,19.85
	c0,8.597,2.888,16.729,8.112,23.27c-6.372,7.139-10.013,16.456-10.013,26.191c0,7.833,2.305,15.373,6.583,21.782
	c-4.278,6.414-6.583,13.952-6.583,21.777c0,5.432,1.115,10.753,3.259,15.671c-8.565,9.119-13.378,21.147-13.378,33.829
	c0,27.262,22.179,49.44,49.439,49.44h0.75c25.899,0,46.97-21.071,46.97-46.971v-195.1c0-1.568,0.732-2.626,1.345-3.236
	c0.936-0.932,2.204-1.444,3.593-1.444c0.035,0,0.138,0.001,0.173,0.001c9.152,0,17.983-3.323,24.877-9.153
	c6.887,5.83,15.718,9.153,24.873,9.153c9.152,0,17.983-3.323,24.877-9.153c6.887,5.83,15.718,9.153,24.873,9.153
	c9.152,0,17.983-3.323,24.877-9.153c6.887,5.83,15.718,9.153,24.873,9.153c9.152,0,17.983-3.323,24.877-9.153
	c6.887,5.83,15.718,9.153,24.873,9.153l0.167-0.001c0.008,0,0.016,0,0.023,0c1.37,0,2.64,0.513,3.575,1.444
	c0.613,0.61,1.345,1.668,1.345,3.236v195.1c0,25.899,21.07,46.971,46.97,46.971c13.108,0,25.545-4.994,35.023-14.07
	c9.564-9.18,14.949-21.441,15.165-34.525C457.981,361.875,453.166,349.539,444.391,340.208z"/>
<path style="fill:#D9D4D4;" d="M444.391,340.208c2.143-4.916,3.257-10.237,3.257-15.668c0-7.825-2.305-15.363-6.582-21.777
	c4.277-6.409,6.582-13.948,6.582-21.782c0-9.735-3.64-19.052-10.012-26.191c5.225-6.541,8.112-14.674,8.112-23.27
	c0-7.067-1.997-13.932-5.709-19.85c3.712-5.918,5.709-12.782,5.709-19.85c0-9.63-3.782-18.837-10.261-25.71
	c6.479-6.875,10.261-16.08,10.261-25.711c0-9.968-4.031-19.506-11.001-26.476c1.536-4.78,2.311-9.755,2.311-14.854
	c0-24.083-17.61-44.374-40.906-48.18c-7.828-17.361-25.144-28.721-44.494-28.721c-4.866,0-9.599,0.698-14.149,2.08
	c13.353,4.028,24.518,13.655,30.373,26.641c23.296,3.806,40.906,24.097,40.906,48.18c0,5.099-0.775,10.073-2.311,14.854
	c6.97,6.97,11.001,16.508,11.001,26.476c0,9.631-3.781,18.836-10.261,25.711c6.478,6.873,10.261,16.08,10.261,25.71
	c0,7.067-1.997,13.932-5.709,19.85c3.712,5.918,5.709,12.782,5.709,19.85c0,8.597-2.888,16.729-8.112,23.27
	c6.372,7.139,10.012,16.455,10.012,26.191c0,7.834-2.305,15.373-6.582,21.782c4.277,6.414,6.582,13.952,6.582,21.777
	c0,5.431-1.114,10.752-3.257,15.668c8.776,9.331,13.592,21.667,13.376,34.677c-0.216,13.084-5.602,25.346-15.165,34.525
	c-5.903,5.652-12.954,9.72-20.599,11.985c4.379,1.353,9.028,2.085,13.845,2.085c13.108,0,25.545-4.994,35.023-14.07
	c9.564-9.18,14.949-21.441,15.165-34.525C457.981,361.875,453.166,349.539,444.391,340.208z"/>
<path style="fill:#F0EEEE;" d="M239.637,355.943l-13.66,102.043c-1.241,9.272,5.971,17.514,15.326,17.514h29.386
	c9.355,0,16.567-8.242,15.326-17.514l-13.66-102.043H239.637z"/>
<g>
</g>
<g>
</g>
<g>
</g>
<g>
</g>
<g>
</g>
<g>
</g>
<g>
</g>
<g>
</g>
<g>
</g>
<g>
</g>
<g>
</g>
<g>
</g>
<g>
</g>
<g>
</g>
<g>
</g>
</svg>
