<?xml version="1.0" encoding="iso-8859-1"?>
<!-- Generator: Adobe Illustrator 19.0.0, SVG Export Plug-In . SVG Version: 6.00 Build 0)  -->
<svg version="1.1" id="Capa_1" xmlns="http://www.w3.org/2000/svg" xmlns:xlink="http://www.w3.org/1999/xlink" x="0px" y="0px"
	 viewBox="0 0 511.998 511.998" style="enable-background:new 0 0 511.998 511.998;" xml:space="preserve">
<path style="fill:#484655;" d="M339.703,368.917c-8.34-5.324-17.436-9.066-27.011-11.118c-5.701-1.242-11.605-1.872-17.548-1.872
	H189.276c-5.943,0-11.847,0.63-17.522,1.866c-9.601,2.058-18.697,5.799-27.04,11.126c-23.985,15.329-38.304,41.454-38.304,69.885
	v65.693c0,4.143,3.358,7.501,7.501,7.501h256.598c4.142,0,7.501-3.357,7.501-7.501v-65.693
	C378.009,410.373,363.691,384.249,339.703,368.917z"/>
<path style="fill:#19303F;" d="M249.71,511.998V393.49c0-4.143-3.358-7.501-7.501-7.501s-7.501,3.357-7.501,7.501v118.508H249.71z"
	/>
<g>
	<path style="fill:#35343F;" d="M339.703,368.917c-8.34-5.324-17.436-9.066-27.011-11.118c-5.701-1.242-11.605-1.872-17.548-1.872
		h-28.502c5.943,0,11.847,0.63,17.548,1.872c9.575,2.052,18.671,5.793,27.011,11.118c23.988,15.331,38.307,41.456,38.307,69.887
		v65.693c0,4.143-3.358,7.501-7.501,7.501h28.502c4.142,0,7.501-3.357,7.501-7.501v-65.693
		C378.009,410.373,363.691,384.249,339.703,368.917z"/>
	<path style="fill:#35343F;" d="M284.313,267.712v92.973c0,1.545-0.513,3.046-1.458,4.268l-19.979,25.829
		c-1.321,1.708-3.359,2.708-5.518,2.708h-30.295c-2.159,0-4.197-1-5.518-2.708l-19.979-25.829c-0.945-1.222-1.458-2.723-1.458-4.268
		v-92.973H284.313z"/>
</g>
<path style="fill:#484655;" d="M374.679,191.047L374.679,191.047c-3.124-3.1-4.881-7.32-4.881-11.721v-10.106
	c0-70.465-57.123-127.588-127.588-127.588l0,0c-70.465,0-127.588,57.123-127.588,127.588v10.106c0,4.401-1.757,8.621-4.881,11.721
	l0,0c-3.746,3.717-5.489,9.003-4.691,14.219l6.058,39.59c2.181,14.254,9.906,27.07,21.49,35.655l0,0
	c22.271,37.289,63.021,62.264,109.61,62.264l0,0c46.589,0,87.34-24.976,109.61-62.264l0,0c11.585-8.587,19.309-21.401,21.49-35.656
	l6.058-39.59C380.168,200.049,378.425,194.765,374.679,191.047z"/>
<path style="fill:#FFB56B;" d="M208.636,146.626c-37.966,0-68.743,30.777-68.743,68.743v11.54
	c0,63.984,45.806,115.867,102.318,115.867s102.317-51.883,102.317-115.867v-11.54c0-37.966-30.777-68.743-68.743-68.743
	L208.636,146.626L208.636,146.626z"/>
<g>
	<path style="fill:#19303F;" d="M298.354,229.018c-4.142,0-7.5-3.357-7.5-7.501v-2.066c0-4.143,3.358-7.501,7.5-7.501
		c4.142,0,7.501,3.357,7.501,7.501v2.066C305.854,225.66,302.497,229.018,298.354,229.018z"/>
	<path style="fill:#19303F;" d="M186.066,229.018c-4.142,0-7.501-3.357-7.501-7.501v-2.066c0-4.143,3.358-7.501,7.501-7.501
		c4.142,0,7.501,3.357,7.501,7.501v2.066C193.567,225.66,190.208,229.018,186.066,229.018z"/>
</g>
<path style="fill:#5CDBF1;" d="M333.211,14.938c-60.667-9.966-121.334-9.966-182.001,0c-22.359,3.673-38.567,20.137-38.567,39.393
	v5.489c0,35.188,30.47,65.191,71.666,70.231c0.401,0.049,0.801,0.097,1.202,0.145c12.59,1.508,25.083-3.267,32.231-12.157
	l0.383-0.476c4.033-5.015,10.743-8.018,17.916-8.018h12.338c7.174,0,13.883,3.002,17.916,8.018l0.383,0.476
	c7.148,8.89,19.641,13.666,32.231,12.157c0.401-0.048,0.801-0.096,1.202-0.145c41.196-5.04,71.666-35.043,71.666-70.231v-5.489
	C371.778,35.076,355.57,18.612,333.211,14.938z"/>
<path style="fill:#5880A2;" d="M294.222,137.978c-13.182,0-25.621-5.579-33.387-15.237l-0.386-0.479
	c-2.586-3.216-7.211-5.215-12.069-5.215h-12.338c-4.857,0-9.483,1.999-12.072,5.218l-0.38,0.474
	c-8.858,11.015-23.788,16.721-38.971,14.907l-1.152-0.14c-21.603-2.643-41.358-11.843-55.693-25.911
	c-14.594-14.322-22.632-32.709-22.632-51.774v-5.488c0-22.846,18.863-42.525,44.852-46.794c61.191-10.052,123.241-10.052,184.433,0
	l0,0c25.989,4.269,44.852,23.949,44.852,46.794v5.488c0,19.064-8.038,37.452-22.632,51.774
	c-14.335,14.068-34.089,23.268-55.625,25.902l-1.224,0.148C297.933,137.868,296.069,137.978,294.222,137.978z M236.042,102.044
	h12.338c9.431,0,18.312,4.044,23.761,10.818l0.386,0.479c5.551,6.902,15.56,10.595,25.492,9.408l1.122-0.136
	c37.161-4.547,65.137-31.539,65.137-62.794V54.33c0-15.465-13.577-28.919-32.282-31.992c-59.576-9.786-119.992-9.786-179.569,0
	c-18.706,3.073-32.282,16.527-32.282,31.992v5.488c0,31.255,27.977,58.247,65.076,62.786l1.181,0.143
	c9.935,1.193,19.943-2.504,25.497-9.41l0.38-0.474C217.728,106.088,226.611,102.044,236.042,102.044z"/>
<circle style="fill:#484655;" cx="242.206" cy="279.477" r="41.003"/>
<path style="fill:#19303F;" d="M402.28,298.76c-8.04-16.517-24.446-26.778-42.816-26.778H259.211c-4.142,0-7.501,3.357-7.501,7.501
	c0,4.143,3.358,7.5,7.501,7.5h100.253c12.774,0,23.738,6.856,29.328,18.343c5.59,11.485,4.223,24.346-3.658,34.399l-31.575,40.277
	c3.66,3.625,6.951,7.562,9.846,11.755l33.535-42.777C408.274,334.521,410.32,315.279,402.28,298.76z"/>
<circle style="fill:#49B6F2;" cx="242.206" cy="279.477" r="17.001"/>
<g>
</g>
<g>
</g>
<g>
</g>
<g>
</g>
<g>
</g>
<g>
</g>
<g>
</g>
<g>
</g>
<g>
</g>
<g>
</g>
<g>
</g>
<g>
</g>
<g>
</g>
<g>
</g>
<g>
</g>
</svg>
