<?xml version="1.0" encoding="iso-8859-1"?>
<!-- Generator: Adobe Illustrator 19.0.0, SVG Export Plug-In . SVG Version: 6.00 Build 0)  -->
<svg version="1.1" id="Capa_1" xmlns="http://www.w3.org/2000/svg" xmlns:xlink="http://www.w3.org/1999/xlink" x="0px" y="0px"
	 viewBox="0 0 512.001 512.001" style="enable-background:new 0 0 512.001 512.001;" xml:space="preserve">
<rect x="115.75" y="153.5" style="fill:#484655;" width="280.5" height="101.5"/>
<g>
	<path style="fill:#FA9E3E;" d="M125.839,223.99h49.369v56.61h-49.369c-15.632,0-28.305-12.673-28.305-28.305
		S110.207,223.99,125.839,223.99z"/>
	<path style="fill:#FA9E3E;" d="M386.161,223.99h-49.369v56.61h49.369c15.632,0,28.305-12.673,28.305-28.305
		S401.793,223.99,386.161,223.99z"/>
</g>
<path style="fill:#FB403F;" d="M353.486,368.929c-8.339-5.324-17.435-9.065-27.009-11.117c-5.701-1.242-11.604-1.872-17.547-1.872
	H203.07c-5.943,0-11.846,0.63-17.521,1.866c-9.6,2.058-18.696,5.799-27.038,11.125c-23.983,15.328-38.301,41.451-38.301,69.88v65.69
	c0,4.143,3.358,7.5,7.5,7.5h256.58c4.142,0,7.5-3.357,7.5-7.5v-65.69C391.79,410.382,377.472,384.259,353.486,368.929z"/>
<path style="fill:#C21C1C;" d="M353.486,368.929c-8.339-5.324-17.435-9.065-27.009-11.117c-5.701-1.242-11.604-1.872-17.547-1.872
	h-22.676c5.943,0,11.846,0.63,17.547,1.872c9.574,2.052,18.67,5.793,27.009,11.117c23.986,15.33,38.304,41.453,38.304,69.882v65.69
	c0,4.143-3.358,7.5-7.5,7.5h22.676c4.142,0,7.5-3.357,7.5-7.5v-65.69C391.79,410.382,377.472,384.259,353.486,368.929z"/>
<g>
	<path style="fill:#5880A2;" d="M324.88,357.486V512h24.57V366.527c-7.211-4.053-14.92-6.99-22.973-8.716
		C325.947,357.696,325.414,357.591,324.88,357.486z"/>
	<path style="fill:#5880A2;" d="M162.55,366.527V512h24.57V357.486c-0.525,0.103-1.05,0.206-1.571,0.32
		C177.475,359.536,169.763,362.473,162.55,366.527z"/>
</g>
<g>
	<path style="fill:#FFB700;" d="M310.892,446.575v15.85c0,2.343,1.899,4.242,4.242,4.242h44.066c2.343,0,4.242-1.899,4.242-4.242
		v-15.85c0-2.343-1.899-4.242-4.242-4.242h-44.067C312.791,442.333,310.892,444.232,310.892,446.575z"/>
	<path style="fill:#FFB700;" d="M148.558,446.575v15.85c0,2.343,1.899,4.242,4.242,4.242h44.067c2.343,0,4.242-1.899,4.242-4.242
		v-15.85c0-2.343-1.899-4.242-4.242-4.242H152.8C150.457,442.333,148.558,444.232,148.558,446.575z"/>
</g>
<polygon style="fill:#FA9E3E;" points="298.1,267.73 298.1,363.08 256,400 213.9,363.08 213.9,267.73 "/>
<path style="fill:#FFB56B;" d="M143.89,164v66.68c0,61.91,50.19,112.11,112.11,112.11s112.11-50.2,112.11-112.11V164H143.89z"/>
<path style="fill:#EF9245;" d="M344.781,242.342c0,53.578-41.949,97.354-94.795,100.286c0.99,0.052,1.984,0.092,2.981,0.119
	c0.006,0,0.012,0.001,0.018,0.001c1.002,0.027,2.007,0.041,3.015,0.041l0,0c2.841,0,5.657-0.108,8.445-0.315
	c0.145-0.011,0.289-0.023,0.433-0.034c1.704-0.134,3.397-0.306,5.079-0.515c55.332-6.872,98.152-54.062,98.152-111.246V164h-23.329
	L344.781,242.342L344.781,242.342z"/>
<g>
	<path style="fill:#19303F;" d="M310.324,232.962c-4.142,0-7.5-3.357-7.5-7.5v-2c0-4.143,3.358-7.5,7.5-7.5s7.5,3.357,7.5,7.5v2
		C317.824,229.605,314.466,232.962,310.324,232.962z"/>
	<path style="fill:#19303F;" d="M201.676,232.962c-4.142,0-7.5-3.357-7.5-7.5v-2c0-4.143,3.358-7.5,7.5-7.5s7.5,3.357,7.5,7.5v2
		C209.176,229.605,205.818,232.962,201.676,232.962z"/>
</g>
<path style="fill:#FB403F;" d="M287.768,0H147.912c-10.8,0-19.586,8.786-19.586,19.586s8.787,19.587,19.586,19.587h7.401
	c1.651,0,2.994,1.343,2.994,2.993s-1.343,2.993-2.994,2.993h-5.926c-15.54,0-28.182,12.643-28.182,28.182v58.188
	c0,4.143,3.358,7.5,7.5,7.5h254.591c4.142,0,7.5-3.357,7.5-7.5v-28.501C390.796,46.219,344.577,0,287.768,0z"/>
<g>
	<path style="fill:#C21C1C;" d="M287.768,0h-25.963c56.81,0,103.028,46.219,103.028,103.028v28.501c0,4.143-3.358,7.5-7.5,7.5
		h25.963c4.142,0,7.5-3.357,7.5-7.5v-28.501C390.796,46.219,344.577,0,287.768,0z"/>
	<path style="fill:#C21C1C;" d="M123.546,117.817h264.908c14.336,0,25.958,11.622,25.958,25.958v11.462
		c0,14.336-11.622,25.958-25.958,25.958H123.546c-14.336,0-25.958-11.622-25.958-25.958v-11.462
		C97.589,129.439,109.21,117.817,123.546,117.817z"/>
</g>
<path style="fill:#931111;" d="M388.454,117.817h-23.622c14.336,0,25.958,11.622,25.958,25.958v11.462
	c0,14.336-11.622,25.958-25.958,25.958h23.622c14.336,0,25.958-11.622,25.958-25.958v-11.462
	C414.411,129.439,402.79,117.817,388.454,117.817z"/>
<path style="fill:#C21C1C;" d="M191,60.159c4.142,0,7.5-3.357,7.5-7.5s-3.358-7.5-7.5-7.5h-35.687h-5.926
	c-10.78,0-20.16,6.086-24.899,15H191z"/>
<path style="fill:#484655;" d="M366.77,226.08c-5.24,33.58-25.37,62.23-53.44,78.96v-10.83c0-28.65-23.23-51.88-51.88-51.88h-10.9
	c-28.65,0-51.88,23.23-51.88,51.88v10.83c-28.07-16.73-48.2-45.38-53.44-78.96h-1.34v66.68c0,61.91,50.19,112.11,112.11,112.11
	s112.11-50.2,112.11-112.11v-66.68L366.77,226.08L366.77,226.08z M282.667,311.027c0,8.821-7.151,15.973-15.973,15.973h-21.388
	c-8.821,0-15.973-7.151-15.973-15.973v-3.761c0-14.728,11.939-26.667,26.667-26.667l0,0c14.728,0,26.667,11.939,26.667,26.667
	V311.027z"/>
<g>
	<path style="fill:#35343F;" d="M256,441.47c-0.49,0-0.98-0.05-1.46-0.15c-0.48-0.09-0.96-0.239-1.41-0.42
		c-0.45-0.189-0.89-0.42-1.29-0.689c-0.41-0.28-0.8-0.59-1.14-0.94c-0.35-0.34-0.66-0.72-0.94-1.14c-0.27-0.4-0.5-0.84-0.69-1.29
		c-0.18-0.45-0.33-0.92-0.42-1.4c-0.1-0.489-0.15-0.98-0.15-1.47s0.05-0.979,0.15-1.46c0.09-0.48,0.24-0.96,0.42-1.41
		c0.19-0.45,0.42-0.89,0.69-1.29c0.28-0.41,0.59-0.8,0.94-1.14c0.34-0.351,0.73-0.66,1.14-0.94c0.4-0.27,0.84-0.5,1.29-0.68
		c0.45-0.19,0.93-0.34,1.41-0.43c0.96-0.2,1.96-0.2,2.93,0c0.47,0.09,0.95,0.239,1.4,0.43c0.45,0.18,0.89,0.41,1.29,0.68
		c0.41,0.28,0.8,0.59,1.14,0.94c0.35,0.34,0.66,0.73,0.94,1.14c0.27,0.4,0.5,0.84,0.69,1.29c0.18,0.46,0.33,0.93,0.42,1.41
		c0.1,0.48,0.15,0.97,0.15,1.46s-0.05,0.98-0.15,1.47c-0.09,0.48-0.24,0.95-0.42,1.4c-0.19,0.45-0.42,0.89-0.69,1.29
		c-0.28,0.42-0.59,0.8-0.94,1.14c-0.34,0.351-0.73,0.66-1.14,0.94c-0.4,0.27-0.84,0.5-1.29,0.689c-0.45,0.181-0.93,0.33-1.4,0.42
		C256.98,441.42,256.49,441.47,256,441.47z"/>
	<path style="fill:#35343F;" d="M256,479.17c-0.49,0-0.98-0.05-1.47-0.15c-0.47-0.1-0.95-0.24-1.4-0.43s-0.89-0.42-1.29-0.69
		c-0.41-0.27-0.8-0.58-1.14-0.93c-0.35-0.35-0.66-0.729-0.93-1.14c-0.27-0.41-0.51-0.84-0.69-1.29c-0.19-0.46-0.34-0.931-0.43-1.41
		c-0.1-0.48-0.15-0.97-0.15-1.46s0.05-0.99,0.15-1.47c0.09-0.48,0.24-0.95,0.43-1.4c0.18-0.45,0.42-0.89,0.69-1.3
		c0.27-0.41,0.58-0.79,0.93-1.141c0.34-0.34,0.73-0.659,1.14-0.93c0.4-0.27,0.84-0.5,1.29-0.689c0.45-0.19,0.93-0.33,1.4-0.431
		c0.97-0.19,1.97-0.19,2.94,0c0.47,0.101,0.95,0.24,1.4,0.431c0.45,0.189,0.89,0.42,1.29,0.689c0.41,0.271,0.8,0.59,1.14,0.93
		c0.35,0.351,0.66,0.73,0.94,1.141c0.27,0.41,0.5,0.85,0.69,1.3c0.18,0.45,0.33,0.92,0.42,1.4c0.1,0.479,0.15,0.979,0.15,1.47
		c0,0.49-0.05,0.98-0.15,1.46c-0.09,0.479-0.24,0.95-0.42,1.41c-0.19,0.45-0.42,0.88-0.69,1.29c-0.28,0.41-0.59,0.79-0.94,1.14
		c-0.34,0.35-0.73,0.66-1.14,0.93c-0.4,0.27-0.84,0.5-1.29,0.69c-0.45,0.189-0.93,0.33-1.4,0.43
		C256.98,479.12,256.49,479.17,256,479.17z"/>
</g>
<g>
</g>
<g>
</g>
<g>
</g>
<g>
</g>
<g>
</g>
<g>
</g>
<g>
</g>
<g>
</g>
<g>
</g>
<g>
</g>
<g>
</g>
<g>
</g>
<g>
</g>
<g>
</g>
<g>
</g>
</svg>
