<?xml version="1.0" encoding="iso-8859-1"?>
<!-- Generator: Adobe Illustrator 19.0.0, SVG Export Plug-In . SVG Version: 6.00 Build 0)  -->
<svg version="1.1" id="Capa_1" xmlns="http://www.w3.org/2000/svg" xmlns:xlink="http://www.w3.org/1999/xlink" x="0px" y="0px"
	 viewBox="0 0 512 512" style="enable-background:new 0 0 512 512;" xml:space="preserve">
<path style="fill:#A1513D;" d="M308.927,355.943h-3.326V267.73c0-4.143-3.357-7.5-7.5-7.5h-84.2c-4.143,0-7.5,3.357-7.5,7.5v88.213
	h-3.327c-45.69,0-82.862,37.172-82.862,82.862V504.5c0,4.143,3.357,7.5,7.5,7.5H384.29c4.143,0,7.5-3.357,7.5-7.5v-65.694
	C391.789,393.115,354.617,355.943,308.927,355.943z"/>
<path style="fill:#884130;" d="M308.927,355.943h-3.326v2.535c35.883,9.094,62.514,41.656,62.514,80.327V504.5
	c0,4.143-3.357,7.5-7.5,7.5h23.674c4.143,0,7.5-3.357,7.5-7.5v-65.694C391.789,393.115,354.617,355.943,308.927,355.943z"/>
<path style="fill:#FB403F;" d="M359.04,466.912v-94.039c-8.368-6.376-17.98-11.19-28.403-14.024
	c-4,44.655-33.936,81.839-74.637,96.393c-40.701-14.554-70.638-51.738-74.637-96.393c-10.423,2.833-20.035,7.648-28.403,14.024
	v94.039c0,11.975-4.05,23.598-11.491,32.98L131.865,512h248.269l-9.603-12.108C363.09,490.509,359.04,478.887,359.04,466.912z"/>
<g>
	<path style="fill:#F0EEEE;" d="M152.96,372.873v42.226c13.256-5.451,27.033-9.894,41.246-13.207
		c-0.008-0.015-0.015-0.03-0.023-0.045c-0.167-0.312-0.326-0.629-0.49-0.944c-0.386-0.739-0.765-1.482-1.134-2.23
		c-0.191-0.386-0.38-0.773-0.567-1.162c-0.419-0.873-0.828-1.753-1.225-2.638c-0.088-0.195-0.18-0.389-0.266-0.585
		c-0.462-1.046-0.904-2.103-1.335-3.165c-0.13-0.322-0.258-0.644-0.385-0.967c-0.365-0.923-0.718-1.852-1.059-2.787
		c-0.074-0.202-0.151-0.403-0.224-0.606c-0.413-1.154-0.807-2.317-1.183-3.488c-0.062-0.192-0.12-0.385-0.181-0.578
		c-0.334-1.059-0.653-2.124-0.957-3.196c-0.048-0.17-0.098-0.339-0.145-0.509c-0.695-2.498-1.304-5.032-1.829-7.597
		c-0.025-0.121-0.05-0.243-0.074-0.364c-0.525-2.609-0.959-5.25-1.301-7.921c-0.01-0.074-0.018-0.148-0.028-0.222
		c-0.169-1.34-0.318-2.686-0.439-4.04C170.938,361.683,161.327,366.497,152.96,372.873z"/>
	<path style="fill:#F0EEEE;" d="M359.04,372.873c-8.367-6.375-17.978-11.19-28.401-14.023c-0.121,1.358-0.271,2.707-0.441,4.051
		c-0.008,0.067-0.017,0.135-0.025,0.202c-0.342,2.676-0.777,5.322-1.304,7.936c-0.023,0.117-0.047,0.233-0.071,0.35
		c-0.526,2.57-1.136,5.109-1.833,7.612c-0.045,0.163-0.093,0.325-0.139,0.487c-0.306,1.08-0.627,2.154-0.964,3.221
		c-0.059,0.187-0.116,0.375-0.176,0.561c-0.378,1.175-0.772,2.342-1.187,3.499c-0.07,0.195-0.144,0.387-0.215,0.581
		c-0.344,0.944-0.701,1.881-1.069,2.812c-0.126,0.318-0.251,0.636-0.379,0.953c-0.435,1.072-0.88,2.138-1.347,3.193
		c-0.081,0.183-0.167,0.363-0.249,0.545c-0.401,0.895-0.814,1.783-1.238,2.665c-0.184,0.382-0.37,0.763-0.557,1.143
		c-0.375,0.759-0.759,1.512-1.15,2.262c-0.159,0.305-0.314,0.613-0.476,0.917c-0.009,0.017-0.017,0.034-0.026,0.051
		c14.213,3.313,27.99,7.755,41.246,13.207v-42.225H359.04z"/>
</g>
<path style="fill:#D9D4D4;" d="M329.317,368.684c12.59,7.938,22.903,19.162,29.723,32.468v-28.28
	c-8.367-6.375-17.978-11.19-28.401-14.023C330.342,362.172,329.897,365.451,329.317,368.684z"/>
<path style="fill:#696970;" d="M256,0c-80.362,0-145.742,65.38-145.742,145.742v88.635c0,4.143,3.357,7.5,7.5,7.5h276.484
	c4.143,0,7.5-3.357,7.5-7.5v-88.635C401.742,65.38,336.362,0,256,0z"/>
<path style="fill:#484655;" d="M256,0c-3.4,0-6.77,0.127-10.112,0.357c75.662,5.211,135.63,68.423,135.63,145.385v88.635
	c0,4.143-3.357,7.5-7.5,7.5h20.224c4.143,0,7.5-3.357,7.5-7.5v-88.635C401.742,65.38,336.362,0,256,0z"/>
<path style="fill:#A1513D;" d="M125.839,220.99h49.369v56.61h-49.369c-15.632,0-28.305-12.673-28.305-28.305
	S110.207,220.99,125.839,220.99z"/>
<path style="fill:#884130;" d="M386.161,220.99h-49.369v56.61h49.369c15.632,0,28.305-12.673,28.305-28.305
	S401.793,220.99,386.161,220.99z"/>
<path style="fill:#B45F4A;" d="M347.121,112.886c-13.525-11.302-32.516-12.886-48.289-5.019
	c-10.885,5.429-26.051,8.799-42.832,8.799s-31.947-3.37-42.832-8.799c-15.773-7.868-34.764-6.284-48.289,5.019
	c-12.831,10.722-20.994,26.842-20.994,44.874v72.915c0,61.919,50.195,112.115,112.115,112.115l0,0
	c61.919,0,112.115-50.195,112.115-112.115V157.76C368.115,139.729,359.952,123.609,347.121,112.886z"/>
<path style="fill:#A1513D;" d="M347.121,112.886c-0.762-0.637-1.545-1.239-2.341-1.815v131.271
	c0,53.578-41.949,97.354-94.794,100.286h0.001c0.98,0.052,1.963,0.091,2.95,0.118c0.001,0,0.002,0,0.003,0
	c0.016,0,0.031,0.001,0.047,0.002c1.001,0.027,2.005,0.041,3.013,0.041l0,0c1.291,0,2.574-0.03,3.854-0.073
	c0.32-0.011,0.64-0.023,0.959-0.036c2.554-0.108,5.085-0.301,7.591-0.577c0.312-0.034,0.624-0.07,0.936-0.107
	c1.25-0.148,2.496-0.309,3.733-0.498c0.017-0.003,0.033-0.006,0.05-0.008c0.87-0.133,1.735-0.277,2.598-0.43
	c0.294-0.052,0.586-0.111,0.879-0.165c0.585-0.109,1.17-0.218,1.751-0.336c0.345-0.07,0.688-0.145,1.032-0.218
	c0.527-0.112,1.053-0.224,1.577-0.343c0.363-0.083,0.724-0.169,1.086-0.256c0.503-0.12,1.004-0.241,1.504-0.367
	c0.369-0.093,0.737-0.19,1.105-0.287c0.489-0.129,0.977-0.261,1.463-0.396c0.369-0.103,0.738-0.207,1.105-0.314
	c0.487-0.141,0.972-0.286,1.456-0.433c0.358-0.109,0.717-0.218,1.074-0.331c0.496-0.156,0.989-0.318,1.482-0.481
	c0.341-0.113,0.683-0.224,1.022-0.34c0.515-0.176,1.028-0.359,1.539-0.542c0.313-0.112,0.628-0.221,0.939-0.336
	c0.586-0.216,1.167-0.44,1.749-0.665c0.232-0.09,0.466-0.176,0.697-0.267c0.81-0.32,1.615-0.649,2.416-0.987
	c0.165-0.07,0.328-0.144,0.493-0.214c0.635-0.272,1.268-0.547,1.897-0.83c0.287-0.129,0.572-0.264,0.857-0.396
	c0.503-0.231,1.005-0.463,1.503-0.702c0.318-0.152,0.633-0.309,0.949-0.464c0.464-0.228,0.927-0.456,1.387-0.689
	c0.326-0.166,0.65-0.335,0.974-0.503c0.445-0.232,0.89-0.465,1.332-0.703c0.327-0.176,0.653-0.354,0.979-0.533
	c0.436-0.24,0.87-0.483,1.303-0.728c0.322-0.183,0.644-0.367,0.964-0.553c0.433-0.251,0.863-0.507,1.292-0.764
	c0.313-0.188,0.627-0.375,0.938-0.566c0.438-0.268,0.873-0.542,1.307-0.816c0.294-0.186,0.59-0.37,0.883-0.559
	c0.466-0.3,0.927-0.606,1.388-0.913c0.255-0.17,0.513-0.337,0.767-0.509c0.569-0.386,1.134-0.78,1.696-1.176
	c0.141-0.099,0.284-0.195,0.424-0.295c0.699-0.498,1.392-1.003,2.08-1.517c0.198-0.148,0.393-0.301,0.59-0.45
	c0.487-0.369,0.974-0.739,1.455-1.116c0.258-0.202,0.512-0.408,0.768-0.612c0.416-0.331,0.831-0.663,1.242-1
	c0.274-0.225,0.545-0.453,0.817-0.681c0.387-0.324,0.774-0.649,1.157-0.978c0.277-0.238,0.552-0.479,0.826-0.719
	c0.373-0.327,0.744-0.656,1.113-0.987c0.275-0.247,0.548-0.496,0.82-0.746c0.363-0.333,0.724-0.669,1.083-1.008
	c0.268-0.253,0.535-0.506,0.801-0.761c0.36-0.347,0.718-0.697,1.073-1.048c0.255-0.252,0.512-0.503,0.764-0.758
	c0.366-0.368,0.728-0.742,1.089-1.115c0.236-0.244,0.474-0.486,0.708-0.733c0.39-0.411,0.775-0.828,1.159-1.245
	c0.197-0.214,0.397-0.425,0.593-0.641c1.15-1.269,2.272-2.564,3.364-3.884c0.182-0.22,0.359-0.443,0.539-0.664
	c0.362-0.445,0.724-0.89,1.079-1.34c0.209-0.265,0.414-0.534,0.621-0.8c0.32-0.413,0.639-0.826,0.953-1.243
	c0.216-0.286,0.428-0.575,0.641-0.864c0.298-0.404,0.595-0.81,0.888-1.218c0.214-0.299,0.426-0.599,0.637-0.9
	c0.286-0.407,0.569-0.815,0.849-1.225c0.208-0.304,0.414-0.61,0.619-0.916c0.277-0.414,0.55-0.831,0.822-1.249
	c0.2-0.307,0.399-0.615,0.596-0.925c0.271-0.427,0.538-0.857,0.803-1.287c0.188-0.305,0.377-0.609,0.563-0.916
	c0.275-0.456,0.544-0.915,0.813-1.376c0.167-0.285,0.335-0.568,0.499-0.854c0.306-0.535,0.605-1.075,0.903-1.616
	c0.119-0.216,0.242-0.429,0.359-0.646c0.412-0.759,0.815-1.524,1.21-2.293c0.078-0.152,0.152-0.307,0.229-0.459
	c0.314-0.619,0.624-1.239,0.927-1.865c0.137-0.282,0.268-0.567,0.402-0.851c0.237-0.501,0.474-1.002,0.704-1.507
	c0.146-0.32,0.286-0.642,0.429-0.964c0.21-0.474,0.42-0.948,0.624-1.426c0.144-0.338,0.285-0.677,0.426-1.017
	c0.194-0.468,0.387-0.936,0.575-1.408c0.138-0.346,0.274-0.694,0.41-1.043c0.182-0.469,0.361-0.939,0.537-1.412
	c0.131-0.353,0.262-0.705,0.389-1.06c0.172-0.477,0.34-0.955,0.505-1.435c0.121-0.35,0.242-0.7,0.36-1.052
	c0.166-0.496,0.326-0.994,0.485-1.493c0.108-0.339,0.218-0.678,0.323-1.018c0.165-0.536,0.323-1.075,0.48-1.614
	c0.089-0.306,0.182-0.611,0.269-0.918c0.191-0.675,0.373-1.354,0.551-2.035c0.046-0.174,0.095-0.347,0.14-0.521
	c0.22-0.856,0.429-1.715,0.629-2.579c0.056-0.244,0.107-0.49,0.162-0.735c0.139-0.621,0.278-1.243,0.407-1.868
	c0.068-0.331,0.131-0.665,0.196-0.997c0.107-0.542,0.213-1.084,0.312-1.629c0.066-0.364,0.127-0.73,0.19-1.095
	c0.089-0.518,0.176-1.037,0.258-1.558c0.059-0.378,0.115-0.758,0.17-1.137c0.075-0.513,0.148-1.027,0.216-1.542
	c0.051-0.384,0.099-0.769,0.146-1.155c0.063-0.517,0.122-1.035,0.178-1.554c0.041-0.384,0.082-0.768,0.119-1.154
	c0.051-0.527,0.097-1.056,0.141-1.585c0.031-0.379,0.064-0.757,0.091-1.137c0.04-0.552,0.073-1.106,0.105-1.66
	c0.021-0.358,0.044-0.715,0.062-1.074c0.03-0.614,0.05-1.23,0.07-1.846c0.01-0.303,0.024-0.604,0.031-0.907
	c0.022-0.919,0.035-1.841,0.035-2.766V157.76C368.115,139.729,359.952,123.609,347.121,112.886z"/>
<g>
	<path style="fill:#19303F;" d="M310.323,232.962c-4.143,0-7.5-3.357-7.5-7.5v-2c0-4.143,3.357-7.5,7.5-7.5s7.5,3.357,7.5,7.5v2
		C317.823,229.605,314.466,232.962,310.323,232.962z"/>
	<path style="fill:#19303F;" d="M201.677,232.962c-4.143,0-7.5-3.357-7.5-7.5v-2c0-4.143,3.357-7.5,7.5-7.5s7.5,3.357,7.5,7.5v2
		C209.177,229.605,205.819,232.962,201.677,232.962z"/>
	<path style="fill:#19303F;" d="M256,288.484c-13.494,0-26.142-6.632-33.833-17.739c-2.358-3.405-1.509-8.077,1.896-10.435
		c3.406-2.359,8.078-1.51,10.435,1.896c4.891,7.063,12.928,11.278,21.501,11.278c8.573,0,16.61-4.216,21.501-11.278
		c2.358-3.404,7.029-4.256,10.435-1.896c3.405,2.358,4.255,7.03,1.897,10.435C282.142,281.853,269.494,288.484,256,288.484z"/>
</g>
<g>
</g>
<g>
</g>
<g>
</g>
<g>
</g>
<g>
</g>
<g>
</g>
<g>
</g>
<g>
</g>
<g>
</g>
<g>
</g>
<g>
</g>
<g>
</g>
<g>
</g>
<g>
</g>
<g>
</g>
</svg>
