<?xml version="1.0" encoding="iso-8859-1"?>
<!-- Generator: Adobe Illustrator 19.0.0, SVG Export Plug-In . SVG Version: 6.00 Build 0)  -->
<svg version="1.1" id="Capa_1" xmlns="http://www.w3.org/2000/svg" xmlns:xlink="http://www.w3.org/1999/xlink" x="0px" y="0px"
	 viewBox="0 0 512.001 512.001" style="enable-background:new 0 0 512.001 512.001;" xml:space="preserve">
<g>
	<path style="fill:#FA9E3E;" d="M125.839,223.99h49.369v56.61h-49.369c-15.632,0-28.305-12.673-28.305-28.305
		S110.207,223.99,125.839,223.99z"/>
	<path style="fill:#FA9E3E;" d="M386.161,223.99h-49.369v56.61h49.369c15.632,0,28.305-12.673,28.305-28.305
		S401.793,223.99,386.161,223.99z"/>
</g>
<path style="fill:#5B5BB2;" d="M308.93,355.94H203.07c-14.826,0-29.382,3.971-42.091,11.48
	c-8.298,4.896-15.632,11.157-21.799,18.611c-12.233,14.797-18.97,33.541-18.97,52.779v65.69c0,4.143,3.358,7.5,7.5,7.5h256.58
	c4.143,0,7.5-3.357,7.5-7.5v-65.69C391.79,393.115,354.619,355.94,308.93,355.94z"/>
<path style="fill:#3F3F93;" d="M308.93,355.94h-26.5c45.689,0,82.86,37.176,82.86,82.871v65.69c0,4.143-3.357,7.5-7.5,7.5h26.5
	c4.143,0,7.5-3.357,7.5-7.5v-65.69C391.79,393.115,354.619,355.94,308.93,355.94z"/>
<g>
	<path style="fill:#7676C1;" d="M354.302,452.286l-16.255-69.261c-4.771-20.328-22.686-34.525-43.567-34.525H256
		c-4.142,0-7.5,3.357-7.5,7.5v77.5c0,2.248,1.008,4.377,2.747,5.802s4.024,1.994,6.229,1.552l32.502-6.526l53.713,26.403
		c1.05,0.517,2.182,0.77,3.308,0.77c1.665,0,3.317-0.554,4.672-1.632C353.94,458.063,354.964,455.109,354.302,452.286z"/>
	<path style="fill:#7676C1;" d="M256,348.5h-38.48c-20.881,0-38.796,14.197-43.567,34.525l-16.255,69.261
		c-0.663,2.823,0.362,5.776,2.631,7.582c1.354,1.078,3.006,1.632,4.671,1.632c1.126,0,2.258-0.253,3.308-0.77l53.713-26.403
		l32.501,6.526c2.205,0.443,4.49-0.127,6.229-1.552c1.738-1.425,2.747-3.554,2.747-5.802V356C263.5,351.857,260.143,348.5,256,348.5
		z"/>
</g>
<path style="fill:#FA9E3E;" d="M298.1,267.73v95.35l-37.175,62.181c-2.227,3.725-7.624,3.725-9.851,0L213.9,363.08v-95.35
	L298.1,267.73L298.1,267.73z"/>
<path style="fill:#FA8500;" d="M117,148.59v57.265c0,34.173,27.702,61.875,61.875,61.875h154.25
	c34.173,0,61.875-27.702,61.875-61.875V148.59H117z"/>
<path style="fill:#FFB56B;" d="M256,342.79L256,342.79c-61.919,0-112.115-50.195-112.115-112.115V117.281h224.229v113.394
	C368.115,292.595,317.919,342.79,256,342.79z"/>
<path style="fill:#EF9245;" d="M344.781,117.281v125.062c0,53.578-41.949,97.354-94.795,100.286
	c1.992,0.105,3.996,0.161,6.014,0.161l0,0c61.919,0,112.115-50.195,112.115-112.115V117.281H344.781z"/>
<g>
	<path style="fill:#19303F;" d="M310.323,232.962c-4.143,0-7.5-3.357-7.5-7.5v-2c0-4.143,3.357-7.5,7.5-7.5s7.5,3.357,7.5,7.5v2
		C317.823,229.605,314.466,232.962,310.323,232.962z"/>
	<path style="fill:#19303F;" d="M201.676,232.962c-4.142,0-7.5-3.357-7.5-7.5v-2c0-4.143,3.358-7.5,7.5-7.5s7.5,3.357,7.5,7.5v2
		C209.176,229.605,205.818,232.962,201.676,232.962z"/>
</g>
<path style="fill:#FA8500;" d="M270.75,257.5h-29.5c-18.501,0-33.5,14.998-33.5,33.5l0,0h18.47c6.164,0,12.039-2.663,16.057-7.339
	c3.318-3.861,8.231-6.308,13.723-6.308c5.492,0,10.406,2.447,13.723,6.308c4.017,4.675,9.893,7.339,16.057,7.339h18.47l0,0
	C304.25,272.498,289.251,257.5,270.75,257.5z"/>
<path style="fill:#5B5BB2;" d="M407.442,5.718C404.368,2.084,399.874,0,395.112,0H116.887c-4.762,0-9.255,2.084-12.33,5.719
	c-3.09,3.652-4.407,8.46-3.611,13.189c4.901,29.159,6.747,64.334,5.064,96.504c-0.107,2.054,0.633,4.063,2.05,5.555
	c1.416,1.492,3.383,2.337,5.44,2.337h285c2.058,0,4.024-0.845,5.44-2.337c1.416-1.492,2.157-3.501,2.05-5.555
	c-1.684-32.169,0.162-67.343,5.064-96.504C411.85,14.178,410.533,9.371,407.442,5.718z"/>
<path style="fill:#3F3F93;" d="M407.442,5.718C404.368,2.084,399.874,0,395.112,0H368.12c4.762,0,9.256,2.084,12.33,5.718
	c3.09,3.653,4.407,8.46,3.612,13.19c-4.902,29.161-6.748,64.335-5.064,96.504c0.107,2.054-0.634,4.063-2.05,5.555
	s-3.383,2.337-5.44,2.337H398.5c2.058,0,4.024-0.845,5.44-2.337c1.416-1.492,2.157-3.501,2.05-5.555
	c-1.684-32.169,0.162-67.343,5.064-96.504C411.85,14.178,410.533,9.371,407.442,5.718z"/>
<path style="fill:#35343F;" d="M378.497,149.572c-1.227-2.653-3.884-4.352-6.807-4.352H140.31c-2.923,0-5.58,1.698-6.807,4.352
	c-1.227,2.652-0.801,5.776,1.091,8.004c30.345,35.718,74.595,56.203,121.406,56.203c46.81,0,91.061-20.485,121.406-56.203
	C379.299,155.349,379.725,152.225,378.497,149.572z"/>
<path style="fill:#FA8500;" d="M300.714,499.196L167.982,366.465c-3.874-3.872-9.021-6.005-14.492-6.005
	c-5.472,0-10.619,2.133-14.489,6.001c-3.877,3.87-6.012,9.02-6.011,14.5c0,5.479,2.135,10.629,6.006,14.492l114.351,114.351
	c1.406,1.406,3.314,2.196,5.303,2.196h36.76c3.033,0,5.769-1.827,6.929-4.63C303.5,504.567,302.858,501.342,300.714,499.196z"/>
<ellipse style="fill:#FFB700;" cx="256" cy="71.5" rx="40.08" ry="22.5"/>
<path style="fill:#484655;" d="M408,108.221H104c-4.142,0-7.5,3.357-7.5,7.5v37c0,4.143,3.358,7.5,7.5,7.5h304
	c4.143,0,7.5-3.357,7.5-7.5v-37C415.5,111.578,412.143,108.221,408,108.221z"/>
<g>
	<rect x="342.671" y="108.22" style="fill:#FFB700;" width="15" height="52"/>
	<rect x="154.33" y="108.22" style="fill:#FFB700;" width="15" height="52"/>
</g>
<path style="fill:#CE6A06;" d="M301.5,487.712L301.5,487.712l-54.476-54.485c-1.406-1.407-3.314-2.197-5.303-2.197
	c-0.001,0-0.001,0-0.001,0c-1.989,0-3.896,0.79-5.303,2.196l-30.66,30.659c-1.407,1.407-2.197,3.314-2.197,5.304
	c0,1.989,0.79,3.896,2.197,5.304l30.006,30.007l0,0l0.89,0.89l4.414,4.414c0,0,0.001,0,0.001,0.001l2.196,2.196h3.107h61.31h18.108
	L301.5,487.712z"/>
<g>
</g>
<g>
</g>
<g>
</g>
<g>
</g>
<g>
</g>
<g>
</g>
<g>
</g>
<g>
</g>
<g>
</g>
<g>
</g>
<g>
</g>
<g>
</g>
<g>
</g>
<g>
</g>
<g>
</g>
</svg>
