<?xml version="1.0" encoding="iso-8859-1"?>
<!-- Generator: Adobe Illustrator 19.0.0, SVG Export Plug-In . SVG Version: 6.00 Build 0)  -->
<svg version="1.1" id="Capa_1" xmlns="http://www.w3.org/2000/svg" xmlns:xlink="http://www.w3.org/1999/xlink" x="0px" y="0px"
	 viewBox="0 0 512 512" style="enable-background:new 0 0 512 512;" xml:space="preserve">
<path style="fill:#F0EEEE;" d="M308.928,355.943H203.074c-45.69,0-82.862,37.172-82.862,82.862V504.5c0,4.143,3.358,7.5,7.5,7.5
	H384.29c4.142,0,7.5-3.357,7.5-7.5v-65.694C391.79,393.115,354.618,355.943,308.928,355.943z"/>
<path style="fill:#D9D4D4;" d="M308.928,355.943h-17.899c45.69,0,82.862,37.172,82.862,82.862V504.5c0,4.143-3.358,7.5-7.5,7.5
	h17.899c4.142,0,7.5-3.357,7.5-7.5v-65.694C391.79,393.115,354.618,355.943,308.928,355.943z"/>
<path style="fill:#E7CF90;" d="M256.001,24.134c-4.142,0-7.5-3.357-7.5-7.5V7.5c0-4.143,3.358-7.5,7.5-7.5
	c4.142,0,7.5,3.357,7.5,7.5v9.134C263.501,20.776,260.143,24.134,256.001,24.134z"/>
<g>
	<path style="fill:#FA9E3E;" d="M125.84,223.99h49.369v56.61H125.84c-15.632,0-28.305-12.673-28.305-28.305
		S110.208,223.99,125.84,223.99z"/>
	<path style="fill:#FA9E3E;" d="M386.162,223.99h-49.369v56.61h49.369c15.632,0,28.305-12.673,28.305-28.305
		S401.794,223.99,386.162,223.99z"/>
</g>
<path style="fill:#B19D7D;" d="M380.353,396.81c-12.95-21.981-35.74-37.005-60.964-40.188c-2.176-0.272-4.368,0.419-5.991,1.898
	s-2.516,3.596-2.444,5.79c0.688,20.872-3.79,44.639-12.608,66.92c-9.65,24.383-24.22,46.069-42.344,63.105
	c-18.124-17.036-32.694-38.723-42.344-63.105c-8.818-22.281-13.296-46.048-12.608-66.92c0.072-2.194-0.821-4.31-2.444-5.79
	c-1.624-1.48-3.813-2.169-5.991-1.898c-25.224,3.184-48.015,18.207-60.964,40.188c-1.201,2.039-1.37,4.525-0.455,6.708
	c15.36,36.621,17.437,68.79,6.348,98.347c-0.864,2.304-0.544,4.884,0.857,6.906s3.705,3.228,6.165,3.228H367.44
	c2.46,0,4.764-1.206,6.165-3.228c1.401-2.023,1.722-4.603,0.857-6.906c-11.089-29.557-9.013-61.726,6.348-98.347
	C381.723,401.336,381.554,398.85,380.353,396.81z"/>
<path style="fill:#968163;" d="M372.707,385.969c-0.75-0.904-1.519-1.791-2.307-2.662c-0.21-0.231-0.425-0.457-0.638-0.686
	c-0.509-0.551-1.029-1.092-1.553-1.628c-0.722-0.737-1.456-1.461-2.204-2.169c-0.173-0.165-0.344-0.331-0.518-0.494
	c-11.461-10.676-25.839-18.057-41.345-20.962c-0.074-0.014-0.149-0.026-0.223-0.04c-1.386-0.256-2.781-0.473-4.183-0.657
	c-0.144-0.019-0.289-0.037-0.433-0.055c-2.148-0.244-4.305,0.444-5.907,1.904c-0.14,0.128-0.267,0.266-0.396,0.403
	c31.049,8.551,54.859,34.741,59.897,67.079c2.055-7.311,4.685-14.798,7.909-22.484c0.833-1.987,0.758-4.223-0.167-6.147
	c-2.268-3.91-4.83-7.629-7.685-11.102C372.873,386.169,372.79,386.069,372.707,385.969z"/>
<g>
	<path style="fill:#D9D4D4;" d="M348.744,457.412l-12.667-102.333c-0.445-3.594-3.394-6.356-7.008-6.566l-49.195-2.858
		c-3.499-0.214-6.657,2.032-7.635,5.388L248.801,431.4c-0.863,2.958,0.172,6.144,2.609,8.03c2.437,1.887,5.779,2.089,8.429,0.513
		l28.666-17.073l47.909,41.152c1.391,1.195,3.132,1.811,4.888,1.811c1.21,0,2.428-0.293,3.542-0.89
		C347.575,463.478,349.125,460.486,348.744,457.412z"/>
	<path style="fill:#D9D4D4;" d="M263.201,431.4l-23.438-80.358c-0.98-3.355-4.139-5.602-7.635-5.388l-49.195,2.858
		c-3.615,0.21-6.563,2.973-7.008,6.566l-12.667,102.333c-0.38,3.074,1.169,6.066,3.899,7.531c1.115,0.597,2.332,0.89,3.542,0.89
		c1.756,0,3.498-0.616,4.888-1.811l47.909-41.152l28.666,17.073c2.648,1.579,5.992,1.375,8.429-0.513
		C263.029,437.544,264.064,434.358,263.201,431.4z"/>
</g>
<path style="fill:#FA9E3E;" d="M298.101,267.73v95.35l-35.304,59.053c-3.073,5.14-10.519,5.14-13.591,0l-35.305-59.053v-95.35
	L298.101,267.73L298.101,267.73z"/>
<path style="fill:#FA8500;" d="M117.001,176.5v29.355c0,34.173,27.702,61.875,61.875,61.875h154.25
	c34.173,0,61.875-27.702,61.875-61.875V176.5H117.001z"/>
<path style="fill:#FFB56B;" d="M256.001,342.79L256.001,342.79c-61.919,0-112.115-50.195-112.115-112.115V117.281h224.229v113.394
	C368.116,292.595,317.92,342.79,256.001,342.79z"/>
<path style="fill:#EF9245;" d="M344.782,117.281v125.062c0,53.578-41.949,97.354-94.795,100.286
	c1.992,0.105,3.996,0.161,6.014,0.161l0,0c61.919,0,112.115-50.195,112.115-112.115V117.281H344.782z"/>
<g>
	<path style="fill:#19303F;" d="M310.325,232.962c-4.142,0-7.5-3.357-7.5-7.5v-2c0-4.143,3.358-7.5,7.5-7.5s7.5,3.357,7.5,7.5v2
		C317.825,229.605,314.467,232.962,310.325,232.962z"/>
	<path style="fill:#19303F;" d="M201.677,232.962c-4.142,0-7.5-3.357-7.5-7.5v-2c0-4.143,3.358-7.5,7.5-7.5s7.5,3.357,7.5,7.5v2
		C209.177,229.605,205.819,232.962,201.677,232.962z"/>
</g>
<path style="fill:#ECE6B6;" d="M265.808,9.134h-19.614c-69.238,0-125.566,56.329-125.566,125.567v10.395c0,4.143,3.358,7.5,7.5,7.5
	h255.747c4.142,0,7.5-3.357,7.5-7.5v-10.395C391.375,65.463,335.046,9.134,265.808,9.134z"/>
<g>
	<path style="fill:#E7CF90;" d="M265.808,9.134h-19.614c-1.422,0-2.837,0.033-4.248,0.08
		c67.278,2.249,121.318,57.672,121.318,125.488v10.395c0,4.143-3.358,7.5-7.5,7.5h28.11c4.142,0,7.5-3.357,7.5-7.5v-10.395
		C391.375,65.463,335.046,9.134,265.808,9.134z"/>
	<path style="fill:#E7CF90;" d="M439.274,173.947l-51.162-35.039c-1.248-0.855-2.725-1.313-4.238-1.313H128.127
		c-1.513,0-2.99,0.457-4.238,1.313l-51.162,35.038c-5.246,3.592-7.507,10.086-5.627,16.159c1.88,6.074,7.415,10.154,13.773,10.154
		h350.254c6.358,0,11.893-4.08,13.773-10.154C446.781,184.032,444.52,177.538,439.274,173.947z"/>
</g>
<g>
	<path style="fill:#C6AB6F;" d="M439.274,173.947l-51.162-35.039c-1.248-0.855-2.725-1.313-4.238-1.313h-42.65
		c1.513,0,2.99,0.457,4.238,1.313l51.162,35.039c5.245,3.591,7.506,10.085,5.626,16.158c-1.88,6.074-7.415,10.154-13.773,10.154
		h42.65c6.358,0,11.893-4.08,13.773-10.154C446.781,184.032,444.52,177.538,439.274,173.947z"/>
	<path style="fill:#C6AB6F;" d="M171.671,125.89c-0.49,0-0.98-0.05-1.47-0.14c-0.48-0.101-0.95-0.24-1.4-0.431
		c-0.46-0.189-0.89-0.42-1.3-0.689c-0.41-0.271-0.79-0.59-1.14-0.93c-0.34-0.351-0.66-0.73-0.93-1.141c-0.27-0.41-0.5-0.85-0.69-1.3
		c-0.19-0.45-0.33-0.92-0.43-1.4c-0.09-0.489-0.14-0.979-0.14-1.47c0-0.49,0.05-0.979,0.14-1.46c0.1-0.479,0.24-0.95,0.43-1.41
		c0.19-0.45,0.42-0.89,0.69-1.29c0.27-0.41,0.59-0.8,0.93-1.14c0.35-0.35,0.73-0.66,1.14-0.93c0.41-0.271,0.84-0.511,1.3-0.69
		c0.45-0.189,0.92-0.34,1.4-0.43c0.97-0.2,1.96-0.2,2.93,0c0.48,0.09,0.95,0.24,1.41,0.43c0.45,0.18,0.88,0.42,1.29,0.69
		c0.41,0.27,0.79,0.58,1.14,0.93c0.35,0.34,0.66,0.729,0.93,1.14c0.27,0.4,0.5,0.84,0.69,1.29c0.19,0.46,0.33,0.931,0.43,1.41
		c0.1,0.48,0.15,0.97,0.15,1.46s-0.05,0.98-0.15,1.47c-0.1,0.48-0.24,0.95-0.43,1.4c-0.19,0.45-0.42,0.89-0.69,1.3
		s-0.58,0.79-0.93,1.141c-0.35,0.34-0.73,0.659-1.14,0.93c-0.41,0.27-0.84,0.5-1.29,0.689c-0.46,0.191-0.93,0.33-1.41,0.431
		C172.651,125.84,172.161,125.89,171.671,125.89z"/>
	<path style="fill:#C6AB6F;" d="M227.891,125.89c-0.49,0-0.98-0.05-1.47-0.14c-0.48-0.101-0.95-0.24-1.4-0.431
		c-0.45-0.189-0.89-0.42-1.29-0.689c-0.42-0.271-0.8-0.59-1.15-0.93c-0.34-0.351-0.65-0.73-0.93-1.141c-0.27-0.41-0.5-0.85-0.69-1.3
		c-0.18-0.45-0.33-0.92-0.42-1.4c-0.1-0.489-0.15-0.979-0.15-1.47c0-0.49,0.05-0.979,0.15-1.46c0.09-0.479,0.24-0.95,0.42-1.41
		c0.19-0.45,0.42-0.89,0.69-1.29c0.28-0.41,0.59-0.8,0.93-1.14c0.35-0.35,0.73-0.66,1.15-0.93c0.4-0.271,0.84-0.511,1.29-0.69
		c0.45-0.189,0.92-0.34,1.4-0.43c0.97-0.2,1.97-0.2,2.93,0c0.48,0.09,0.95,0.24,1.41,0.43c0.45,0.18,0.89,0.42,1.29,0.69
		c0.41,0.27,0.8,0.58,1.14,0.93c0.35,0.34,0.66,0.729,0.93,1.14c0.28,0.4,0.51,0.84,0.691,1.29c0.19,0.46,0.34,0.931,0.43,1.41
		c0.1,0.48,0.15,0.97,0.15,1.46s-0.05,0.98-0.15,1.47c-0.09,0.48-0.24,0.95-0.43,1.4c-0.18,0.45-0.41,0.89-0.691,1.3
		c-0.27,0.41-0.58,0.79-0.93,1.141c-0.34,0.34-0.73,0.659-1.14,0.93c-0.4,0.27-0.84,0.5-1.29,0.689
		c-0.46,0.191-0.93,0.33-1.41,0.431C228.871,125.84,228.381,125.89,227.891,125.89z"/>
	<path style="fill:#C6AB6F;" d="M284.111,125.89c-0.49,0-0.98-0.05-1.46-0.14c-0.48-0.101-0.95-0.24-1.41-0.431
		c-0.45-0.189-0.89-0.42-1.29-0.689c-0.41-0.271-0.8-0.59-1.14-0.93c-0.35-0.351-0.66-0.73-0.94-1.141c-0.27-0.41-0.5-0.85-0.68-1.3
		c-0.19-0.45-0.34-0.92-0.43-1.4c-0.1-0.489-0.15-0.979-0.15-1.47c0-0.49,0.05-0.979,0.15-1.46c0.09-0.479,0.24-0.95,0.43-1.41
		c0.18-0.45,0.41-0.89,0.68-1.29c0.28-0.41,0.59-0.8,0.94-1.14c0.34-0.35,0.73-0.66,1.14-0.93c0.4-0.271,0.84-0.511,1.29-0.69
		c0.46-0.189,0.93-0.34,1.41-0.43c0.96-0.2,1.96-0.2,2.93,0c0.48,0.09,0.95,0.24,1.4,0.43c0.45,0.18,0.89,0.42,1.3,0.69
		c0.41,0.27,0.79,0.58,1.14,0.93c0.34,0.34,0.65,0.729,0.93,1.14c0.27,0.4,0.5,0.84,0.69,1.29c0.19,0.46,0.33,0.931,0.43,1.41
		c0.09,0.48,0.14,0.97,0.14,1.46s-0.05,0.98-0.14,1.47c-0.1,0.48-0.24,0.95-0.43,1.4c-0.19,0.45-0.42,0.89-0.69,1.3
		c-0.28,0.41-0.59,0.79-0.93,1.141c-0.35,0.34-0.73,0.659-1.14,0.93c-0.41,0.27-0.85,0.5-1.3,0.689c-0.45,0.191-0.92,0.33-1.4,0.431
		C285.091,125.84,284.601,125.89,284.111,125.89z"/>
	<path style="fill:#C6AB6F;" d="M340.331,125.89c-0.49,0-0.98-0.05-1.461-0.14c-0.48-0.101-0.95-0.24-1.41-0.431
		c-0.45-0.189-0.88-0.42-1.29-0.689c-0.41-0.271-0.79-0.59-1.14-0.93c-0.35-0.351-0.66-0.73-0.93-1.141
		c-0.27-0.41-0.5-0.85-0.69-1.3c-0.19-0.45-0.33-0.92-0.43-1.4c-0.1-0.489-0.15-0.979-0.15-1.47c0-0.49,0.05-0.979,0.15-1.46
		c0.1-0.479,0.24-0.95,0.43-1.41c0.19-0.45,0.42-0.89,0.69-1.29c0.27-0.41,0.58-0.8,0.93-1.14c0.35-0.35,0.73-0.66,1.14-0.93
		c0.41-0.271,0.84-0.511,1.29-0.69c0.46-0.189,0.93-0.34,1.41-0.43c0.961-0.2,1.961-0.2,2.93,0c0.48,0.09,0.95,0.24,1.4,0.43
		c0.45,0.18,0.89,0.42,1.3,0.69c0.41,0.27,0.79,0.58,1.14,0.93c0.34,0.34,0.66,0.729,0.93,1.14c0.27,0.4,0.5,0.84,0.69,1.29
		c0.19,0.46,0.33,0.931,0.43,1.41c0.1,0.48,0.14,0.97,0.14,1.46s-0.04,0.98-0.14,1.47c-0.1,0.48-0.24,0.95-0.43,1.4
		c-0.19,0.45-0.42,0.89-0.69,1.3s-0.59,0.79-0.93,1.141c-0.35,0.34-0.73,0.659-1.14,0.93c-0.41,0.27-0.85,0.5-1.3,0.689
		c-0.45,0.191-0.92,0.33-1.4,0.431C341.321,125.84,340.821,125.89,340.331,125.89z"/>
</g>
<path style="fill:#19303F;" d="M256.001,466c-0.49,0-0.98-0.05-1.47-0.15c-0.47-0.09-0.95-0.24-1.4-0.42
	c-0.45-0.189-0.89-0.42-1.29-0.7c-0.41-0.27-0.8-0.58-1.14-0.93c-0.35-0.34-0.66-0.73-0.94-1.14c-0.27-0.4-0.5-0.841-0.68-1.29
	c-0.19-0.45-0.34-0.931-0.43-1.4c-0.1-0.49-0.15-0.979-0.15-1.47s0.05-0.98,0.15-1.47c0.09-0.471,0.24-0.95,0.43-1.4
	c0.18-0.45,0.41-0.89,0.68-1.29c0.28-0.41,0.59-0.8,0.94-1.14c0.34-0.351,0.73-0.66,1.14-0.94c0.4-0.27,0.84-0.5,1.29-0.69
	c0.45-0.18,0.93-0.329,1.4-0.42c2.44-0.5,5.03,0.301,6.77,2.051c0.35,0.34,0.66,0.729,0.94,1.14c0.27,0.4,0.5,0.84,0.69,1.29
	c0.18,0.45,0.33,0.93,0.42,1.4c0.1,0.489,0.15,0.979,0.15,1.47s-0.05,0.979-0.15,1.47c-0.09,0.47-0.24,0.95-0.42,1.4
	c-0.19,0.449-0.42,0.89-0.69,1.29c-0.28,0.409-0.59,0.8-0.94,1.14C259.911,465.2,257.971,466,256.001,466z"/>
<path style="fill:#FA8500;" d="M331.856,275.092c-1.326-3.924-5.583-6.027-9.507-4.701c-2.475,0.837-4.226,2.841-4.849,5.19
	c-5.13-1.863-10.054-6.556-15.059-11.616l-1.238-1.255c-4.682-4.754-9.522-9.67-15.508-13.295
	c-9.527-5.768-21.105-1.117-29.695,7.298c-8.59-8.414-20.166-13.064-29.695-7.298c-5.985,3.625-10.826,8.541-15.508,13.295
	l-1.237,1.255c-5.005,5.061-9.928,9.751-15.059,11.616c-0.622-2.351-2.374-4.354-4.85-5.191c-3.924-1.326-8.181,0.778-9.507,4.702
	c-1.496,4.424-0.649,8.721,2.324,11.789c2.905,2.998,7.061,3.993,10.659,3.993c1.88,0,3.608-0.271,4.927-0.672
	c8.772-2.661,15.763-9.21,22.171-15.69l1.259-1.277c4.221-4.286,8.208-8.334,12.589-10.987c2.846-1.727,10.633,2.696,15.663,10.31
	c0.277,0.421,0.597,0.817,0.962,1.181c0.36,0.36,0.751,0.676,1.166,0.95c0.001,0.001,0.001,0.001,0.001,0.001
	c0.013,0.008,0.025,0.014,0.037,0.022c0.194,0.127,0.393,0.245,0.597,0.352c0.104,0.055,0.211,0.1,0.317,0.15
	c0.112,0.052,0.222,0.108,0.336,0.155c0.151,0.062,0.304,0.113,0.458,0.165c0.073,0.025,0.145,0.053,0.218,0.075
	c0.167,0.051,0.336,0.09,0.504,0.129c0.066,0.015,0.131,0.034,0.198,0.047c0.163,0.033,0.326,0.055,0.49,0.076
	c0.078,0.01,0.155,0.024,0.234,0.032c0.145,0.014,0.29,0.02,0.435,0.026c0.101,0.004,0.201,0.011,0.303,0.011
	c0.121,0,0.241-0.008,0.362-0.013c0.125-0.006,0.25-0.01,0.375-0.022c0.099-0.01,0.197-0.026,0.296-0.04
	c0.143-0.02,0.286-0.039,0.429-0.067c0.088-0.017,0.174-0.041,0.261-0.062c0.148-0.035,0.296-0.069,0.443-0.113
	c0.097-0.029,0.191-0.066,0.287-0.099c0.131-0.045,0.262-0.088,0.391-0.141c0.14-0.057,0.276-0.125,0.412-0.19
	c0.081-0.039,0.163-0.073,0.243-0.115c0.657-0.345,1.27-0.79,1.81-1.331c0.364-0.363,0.684-0.759,0.96-1.179
	c5.03-7.613,12.813-12.037,15.662-10.31c4.382,2.653,8.369,6.701,12.59,10.987l1.26,1.277c6.408,6.48,13.399,13.029,22.17,15.69
	c1.318,0.4,3.047,0.672,4.928,0.672c3.598,0,7.753-0.995,10.658-3.993C332.505,283.813,333.353,279.516,331.856,275.092z"/>
<g>
</g>
<g>
</g>
<g>
</g>
<g>
</g>
<g>
</g>
<g>
</g>
<g>
</g>
<g>
</g>
<g>
</g>
<g>
</g>
<g>
</g>
<g>
</g>
<g>
</g>
<g>
</g>
<g>
</g>
</svg>
