<?xml version="1.0" encoding="iso-8859-1"?>
<!-- Generator: Adobe Illustrator 19.0.0, SVG Export Plug-In . SVG Version: 6.00 Build 0)  -->
<svg version="1.1" id="Capa_1" xmlns="http://www.w3.org/2000/svg" xmlns:xlink="http://www.w3.org/1999/xlink" x="0px" y="0px"
	 viewBox="0 0 512.001 512.001" style="enable-background:new 0 0 512.001 512.001;" xml:space="preserve">
<path style="fill:#F0EEEE;" d="M308.93,355.94H203.07c-14.826,0-29.382,3.971-42.091,11.48c-8.3,4.898-15.634,11.158-21.8,18.611
	c-12.232,14.796-18.97,33.54-18.97,52.779v65.69c0,4.143,3.357,7.5,7.5,7.5h256.58c4.143,0,7.5-3.357,7.5-7.5v-65.69
	C391.79,393.115,354.619,355.94,308.93,355.94z"/>
<path style="fill:#D9D4D4;" d="M308.93,355.94h-26.5c45.689,0,82.86,37.176,82.86,82.871v65.69c0,4.143-3.357,7.5-7.5,7.5h26.5
	c4.143,0,7.5-3.357,7.5-7.5v-65.69C391.79,393.115,354.619,355.94,308.93,355.94z"/>
<g>
	<path style="fill:#FA9E3E;" d="M125.839,223.99h49.369v56.61h-49.369c-15.632,0-28.305-12.673-28.305-28.305
		S110.207,223.99,125.839,223.99z"/>
	<path style="fill:#FA9E3E;" d="M386.161,223.99h-49.369v56.61h49.369c15.632,0,28.305-12.673,28.305-28.305
		S401.793,223.99,386.161,223.99z"/>
</g>
<g>
	<path style="fill:#49B6F2;" d="M175.636,512h56.404l22.39-43.288c1.612-3.118,1.625-6.99,0.031-9.894l-7.35-13.39
		c-1.596-2.909-4.508-4.306-7.437-3.564l-21.574,5.46c-8.929,2.26-16.66,9.169-21.208,18.955L175.636,512z"/>
	<path style="fill:#49B6F2;" d="M315.108,466.278c-4.548-9.786-12.279-16.695-21.208-18.955l-21.573-5.46
		c-2.93-0.742-5.841,0.655-7.437,3.564l-7.35,13.39c-1.595,2.904-1.582,6.776,0.031,9.894L279.96,512h56.404L315.108,466.278z"/>
</g>
<path style="fill:#2E93CC;" d="M256,414.167c-16.267,0-29.5,13.233-29.5,29.5s13.233,29.5,29.5,29.5s29.5-13.233,29.5-29.5
	S272.267,414.167,256,414.167z"/>
<path style="fill:#E5E3E3;" d="M387.99,400.507c-14.64-30.111-45.673-49.567-79.061-49.567h-45.028
	c-3.838,0-7.057,2.897-7.459,6.715l-7.901,75.061c-0.255,2.419,0.68,4.811,2.506,6.417c1.384,1.217,3.149,1.868,4.953,1.868
	c0.577,0,1.158-0.066,1.731-0.202l125.245-29.714c2.215-0.525,4.07-2.028,5.046-4.085
	C388.997,404.942,388.985,402.554,387.99,400.507z"/>
<path style="fill:#49B6F2;" d="M370.3,376.074l-113.691,27.568c-4.025,0.977-6.497,5.031-5.521,9.057
	c0.832,3.432,3.901,5.734,7.283,5.734c0.585,0,1.18-0.069,1.773-0.213l120.021-29.103c0.328-0.079,0.641-0.186,0.948-0.305
	C377.903,384.209,374.278,379.947,370.3,376.074z"/>
<path style="fill:#E5E3E3;" d="M263.459,432.715l-7.901-75.061c-0.402-3.817-3.621-6.715-7.459-6.715H203.07
	c-33.388,0-64.421,19.456-79.061,49.567c-0.995,2.047-1.007,4.436-0.032,6.492c0.976,2.057,2.831,3.56,5.046,4.085l125.245,29.714
	c0.573,0.136,1.154,0.202,1.731,0.202c1.804,0,3.569-0.651,4.953-1.868C262.779,437.525,263.714,435.134,263.459,432.715z"/>
<path style="fill:#49B6F2;" d="M255.392,403.642L141.7,376.074c-3.979,3.873-7.603,8.135-10.812,12.738
	c0.306,0.119,0.62,0.226,0.947,0.305l120.021,29.103c0.594,0.144,1.189,0.213,1.773,0.213c3.382,0,6.451-2.303,7.283-5.734
	C261.889,408.673,259.417,404.618,255.392,403.642z"/>
<path style="fill:#FA9E3E;" d="M298.1,267.73v95.35l-37.55,62.809c-2.057,3.442-7.043,3.442-9.101,0L213.9,363.08v-95.35
	L298.1,267.73L298.1,267.73z"/>
<path style="fill:#3E3D49;" d="M117,148.59v57.265c0,34.173,27.702,61.875,61.875,61.875h154.25
	c34.173,0,61.875-27.702,61.875-61.875V148.59H117z"/>
<path style="fill:#FFB56B;" d="M256,342.79L256,342.79c-61.919,0-112.115-50.195-112.115-112.115V117.281h224.229v113.394
	C368.115,292.595,317.919,342.79,256,342.79z"/>
<path style="fill:#19303F;" d="M256,288.484c-13.494,0-26.142-6.632-33.833-17.739c-2.358-3.405-1.509-8.077,1.896-10.435
	c3.406-2.359,8.078-1.51,10.436,1.896c4.891,7.063,12.928,11.278,21.501,11.278c8.573,0,16.61-4.216,21.501-11.278
	c2.358-3.404,7.029-4.256,10.435-1.896c3.405,2.358,4.255,7.03,1.897,10.435C282.142,281.853,269.494,288.484,256,288.484z"/>
<path style="fill:#EF9245;" d="M344.781,117.281v125.062c0,53.578-41.949,97.354-94.795,100.286
	c1.992,0.105,3.996,0.161,6.014,0.161l0,0c61.919,0,112.115-50.195,112.115-112.115V117.281H344.781z"/>
<g>
	<path style="fill:#19303F;" d="M310.323,232.962c-4.143,0-7.5-3.357-7.5-7.5v-2c0-4.143,3.357-7.5,7.5-7.5s7.5,3.357,7.5,7.5v2
		C317.823,229.605,314.466,232.962,310.323,232.962z"/>
	<path style="fill:#19303F;" d="M201.677,232.962c-4.143,0-7.5-3.357-7.5-7.5v-2c0-4.143,3.357-7.5,7.5-7.5s7.5,3.357,7.5,7.5v2
		C209.177,229.605,205.819,232.962,201.677,232.962z"/>
</g>
<path style="fill:#E5E3E3;" d="M381.006,90.979l-4.719-39.808C372.828,21.999,348.067,0,318.691,0H193.309
	c-29.376,0-54.137,21.999-57.596,51.172l-4.719,39.808c-0.252,2.128,0.418,4.263,1.842,5.864c1.423,1.601,3.464,2.518,5.607,2.518
	h235.115c2.143,0,4.184-0.917,5.607-2.518C380.588,95.242,381.258,93.107,381.006,90.979z"/>
<path style="fill:#CECCCC;" d="M381.006,90.979l-4.719-39.808C372.828,21.999,348.067,0,318.691,0h-33.75
	c29.376,0,54.137,21.999,57.596,51.172l4.719,39.808c0.252,2.128-0.418,4.263-1.842,5.864c-1.423,1.601-3.464,2.518-5.607,2.518
	h33.75c2.143,0,4.184-0.917,5.607-2.518C380.588,95.242,381.258,93.107,381.006,90.979z"/>
<path style="fill:#F0EEEE;" d="M417.256,73.639c-107-23.19-215.508-23.19-322.512,0c-3.775,0.818-6.312,4.371-5.859,8.208l10,84.853
	c0.241,2.051,1.318,3.911,2.976,5.143c1.303,0.968,2.873,1.48,4.473,1.48c0.437,0,0.875-0.038,1.312-0.115
	c98.002-17.402,197.834-17.402,296.723,0.002c2.034,0.357,4.121-0.139,5.776-1.369c1.655-1.231,2.73-3.091,2.972-5.14l10-84.853
	C423.567,78.01,421.031,74.457,417.256,73.639z"/>
<path style="fill:#D9D4D4;" d="M417.256,73.639c-7.547-1.636-15.102-3.143-22.663-4.548c1.335,1.598,2.03,3.715,1.769,5.926
	l-10.419,88.405c-0.251,2.135-1.371,4.072-3.096,5.355c-0.391,0.291-0.809,0.537-1.24,0.748c7.591,1.13,15.179,2.349,22.76,3.683
	c2.034,0.357,4.121-0.139,5.776-1.369c1.655-1.231,2.73-3.091,2.972-5.14l10-84.853C423.567,78.01,421.031,74.457,417.256,73.639z"
	/>
<path style="fill:#49B6F2;" d="M90.998,99.782l1.76,14.931c108.382-20.822,218.102-20.822,326.484,0l1.76-14.931
	C311.446,78.874,200.554,78.874,90.998,99.782z"/>
<g>
</g>
<g>
</g>
<g>
</g>
<g>
</g>
<g>
</g>
<g>
</g>
<g>
</g>
<g>
</g>
<g>
</g>
<g>
</g>
<g>
</g>
<g>
</g>
<g>
</g>
<g>
</g>
<g>
</g>
</svg>
