<?xml version="1.0" encoding="iso-8859-1"?>
<!-- Generator: Adobe Illustrator 19.0.0, SVG Export Plug-In . SVG Version: 6.00 Build 0)  -->
<svg version="1.1" id="Capa_1" xmlns="http://www.w3.org/2000/svg" xmlns:xlink="http://www.w3.org/1999/xlink" x="0px" y="0px"
	 viewBox="0 0 512 512" style="enable-background:new 0 0 512 512;" xml:space="preserve">
<path style="fill:#3E3D49;" d="M401.098,139.438c-0.005-0.124-0.013-0.248-0.023-0.37c-1.56-37.427-17.289-72.363-44.317-98.418
	C329.564,14.436,293.781,0,256,0s-73.564,14.436-100.757,40.649c-27.027,26.053-42.756,60.993-44.317,98.417
	c-0.011,0.123-0.019,0.246-0.024,0.371L99.156,434.5c-0.105,2.652,1.199,5.163,3.431,6.602
	c45.729,29.482,98.778,45.065,153.413,45.065s107.685-15.583,153.413-45.065c2.231-1.439,3.536-3.949,3.431-6.602L401.098,139.438z"
	/>
<path style="fill:#484655;" d="M308.928,355.943H203.072c-45.689,0-82.861,37.172-82.861,82.862V504.5c0,4.143,3.357,7.5,7.5,7.5
	h256.578c4.142,0,7.5-3.357,7.5-7.5v-65.694C391.789,393.115,354.617,355.943,308.928,355.943z"/>
<path style="fill:#35343F;" d="M308.928,355.943h-24.5c45.69,0,82.861,37.172,82.861,82.862V504.5c0,4.143-3.358,7.5-7.5,7.5h24.5
	c4.142,0,7.5-3.357,7.5-7.5v-65.694C391.789,393.115,354.617,355.943,308.928,355.943z"/>
<path style="fill:#F0EEEE;" d="M362.231,375.38c-14.867-12.506-33.745-19.406-53.175-19.437l-3.457-0.116V267.73
	c0-4.143-3.357-7.5-7.5-7.5H213.9c-4.143,0-7.5,3.357-7.5,7.5v88.097l-3.457,0.116c-19.43,0.03-38.308,6.931-53.175,19.437
	c-2.18,1.834-3.133,4.744-2.459,7.512c12.224,50.246,56.919,85.339,108.69,85.339s96.467-35.093,108.69-85.339
	C365.364,380.124,364.411,377.214,362.231,375.38z"/>
<path style="fill:#FFB56B;" d="M256,342.79L256,342.79c-61.919,0-112.115-50.195-112.115-112.115V195.38
	c0-56.94,46.159-103.099,103.098-103.099h18.032c56.94,0,103.099,46.159,103.099,103.099v35.296
	C368.115,292.595,317.919,342.79,256,342.79z"/>
<path style="fill:#EF9245;" d="M368.115,230.675V195.38c0-24.792-8.753-47.537-23.334-65.321v112.284
	c0,53.578-41.949,97.354-94.794,100.286h0.001c0.981,0.052,1.965,0.091,2.951,0.118c0.016,0,0.032,0.001,0.048,0.002
	c1.001,0.027,2.005,0.041,3.013,0.041l0,0c5.805,0,11.507-0.441,17.074-1.292C326.89,333.275,368.115,286.79,368.115,230.675z"/>
<g>
	<path style="fill:#19303F;" d="M310.323,232.962c-4.142,0-7.5-3.357-7.5-7.5v-2c0-4.143,3.358-7.5,7.5-7.5
		c4.143,0,7.5,3.357,7.5,7.5v2C317.823,229.605,314.466,232.962,310.323,232.962z"/>
	<path style="fill:#19303F;" d="M201.677,232.962c-4.143,0-7.5-3.357-7.5-7.5v-2c0-4.143,3.357-7.5,7.5-7.5s7.5,3.357,7.5,7.5v2
		C209.177,229.605,205.819,232.962,201.677,232.962z"/>
	<path style="fill:#19303F;" d="M256,288.484c-13.494,0-26.142-6.632-33.833-17.739c-2.358-3.405-1.509-8.077,1.896-10.435
		c3.406-2.359,8.078-1.51,10.436,1.896c4.891,7.063,12.928,11.278,21.501,11.278c8.573,0,16.61-4.216,21.501-11.278
		c2.357-3.404,7.029-4.256,10.436-1.896c3.405,2.358,4.255,7.03,1.896,10.435C282.142,281.853,269.494,288.484,256,288.484z"/>
</g>
<path style="fill:#F0EEEE;" d="M256,136c43.889,0,83.421,17.398,111.14,45.202c-6.909-50.23-49.995-88.921-102.124-88.921h-18.032
	c-52.129,0-95.214,38.691-102.124,88.922C172.579,153.398,212.111,136,256,136z"/>
<g>
	<path style="fill:#19303F;" d="M256,432.167c-4.143,0-7.5-3.357-7.5-7.5v-43c0-4.143,3.357-7.5,7.5-7.5s7.5,3.357,7.5,7.5v43
		C263.5,428.81,260.143,432.167,256,432.167z"/>
	<path style="fill:#19303F;" d="M273,402.5h-34c-4.143,0-7.5-3.357-7.5-7.5s3.357-7.5,7.5-7.5h34c4.143,0,7.5,3.357,7.5,7.5
		S277.143,402.5,273,402.5z"/>
</g>
<path style="fill:#D9D4D4;" d="M362.737,375.87c-2.362-2.023-4.826-3.929-7.407-5.68c-0.091-0.062-0.183-0.122-0.274-0.183
	c-0.93-0.625-1.875-1.228-2.831-1.816c-0.253-0.155-0.506-0.309-0.76-0.462c-0.781-0.469-1.574-0.921-2.371-1.365
	c-0.405-0.224-0.808-0.45-1.216-0.668c-0.628-0.336-1.265-0.656-1.903-0.976c-0.562-0.281-1.122-0.567-1.69-0.835
	c-0.429-0.203-0.866-0.392-1.299-0.588c-4.025-1.816-8.184-3.323-12.447-4.476c-0.016-0.004-0.032-0.009-0.048-0.014
	c-0.994-0.268-1.996-0.51-3-0.741c-0.246-0.057-0.491-0.116-0.738-0.171c-0.893-0.197-1.791-0.374-2.692-0.542
	c-0.388-0.072-0.777-0.142-1.168-0.209c-0.808-0.139-1.618-0.266-2.431-0.38c-0.53-0.074-1.063-0.139-1.596-0.203
	c-0.706-0.086-1.413-0.17-2.122-0.238c-0.744-0.07-1.494-0.121-2.244-0.171c-0.527-0.036-1.052-0.081-1.58-0.107
	c-1.324-0.063-2.654-0.101-3.993-0.101H305.6v2.753c23.067,6.107,42.218,21.937,52.79,42.822c2.6-5.93,4.725-12.15,6.301-18.627
	C365.308,380.354,364.545,377.707,362.737,375.87z"/>
<g>
</g>
<g>
</g>
<g>
</g>
<g>
</g>
<g>
</g>
<g>
</g>
<g>
</g>
<g>
</g>
<g>
</g>
<g>
</g>
<g>
</g>
<g>
</g>
<g>
</g>
<g>
</g>
<g>
</g>
</svg>
