<?xml version="1.0" encoding="iso-8859-1"?>
<!-- Generator: Adobe Illustrator 19.0.0, SVG Export Plug-In . SVG Version: 6.00 Build 0)  -->
<svg version="1.1" id="Capa_1" xmlns="http://www.w3.org/2000/svg" xmlns:xlink="http://www.w3.org/1999/xlink" x="0px" y="0px"
	 viewBox="0 0 512 512" style="enable-background:new 0 0 512 512;" xml:space="preserve">
<path style="fill:#49B6F2;" d="M308.927,355.944H203.071c-45.689,0-82.861,37.172-82.861,82.862V504.5c0,4.142,3.357,7.5,7.5,7.5
	h256.578c4.143,0,7.5-3.358,7.5-7.5v-65.694C391.788,393.116,354.616,355.944,308.927,355.944z"/>
<path style="fill:#2E93CC;" d="M308.927,355.944h-26.25c45.689,0,82.861,37.172,82.861,82.862V504.5c0,4.142-3.357,7.5-7.5,7.5
	h26.25c4.143,0,7.5-3.358,7.5-7.5v-65.694C391.788,393.116,354.616,355.944,308.927,355.944z"/>
<path style="fill:#484655;" d="M308.927,355.944H203.071c-45.689,0-82.861,37.172-82.861,82.862v24.569h271.578v-24.569
	C391.788,393.116,354.616,355.944,308.927,355.944z"/>
<path style="fill:#35343F;" d="M308.927,355.944h-26.25c45.689,0,82.861,37.172,82.861,82.862v24.569h26.25v-24.569
	C391.788,393.116,354.616,355.944,308.927,355.944z"/>
<g>
	<path style="fill:#6BCCF7;" d="M237.249,512v-74.1l35.632-39.188c2.787-3.064,2.562-7.808-0.503-10.595s-7.809-2.561-10.595,0.504
		L224.2,429.954c-1.256,1.38-1.951,3.179-1.951,5.045v77L237.249,512L237.249,512z"/>
	<path style="fill:#6BCCF7;" d="M319.744,354.327l-23.3-17.53c-1.811-1.362-4.144-1.834-6.34-1.28
		c-2.198,0.553-4.027,2.071-4.978,4.128l-28.035,60.71c-0.874,1.891-0.921,4.06-0.132,5.987s2.344,3.439,4.293,4.175l45.609,17.211
		c1.51,0.569,3.095,0.85,4.674,0.85c2.553,0,5.091-0.732,7.272-2.159c3.532-2.31,5.771-6.206,5.988-10.421l2.359-45.811
		C327.476,363.987,324.704,358.058,319.744,354.327z"/>
	<path style="fill:#6BCCF7;" d="M226.871,339.646c-0.95-2.058-2.779-3.575-4.978-4.128c-2.199-0.553-4.529-0.082-6.34,1.28
		l-23.3,17.53c-4.96,3.731-7.731,9.661-7.412,15.86l2.359,45.811c0.218,4.215,2.456,8.11,5.988,10.42
		c2.182,1.427,4.72,2.159,7.273,2.159c1.579,0,3.164-0.28,4.673-0.85l45.61-17.211c1.949-0.735,3.504-2.248,4.293-4.175
		s0.742-4.096-0.132-5.987L226.871,339.646z"/>
</g>
<path style="fill:#884130;" d="M298.099,267.73v95.35l-21.281,35.609c-4.378,7.325-12.285,11.811-20.819,11.811l0,0
	c-8.534,0-16.441-4.486-20.819-11.811l-21.281-35.609v-95.35L298.099,267.73L298.099,267.73z"/>
<rect x="111.999" y="128.5" style="fill:#696970;" width="288" height="126.5"/>
<path style="fill:#A1513D;" d="M125.838,223.99h49.369v56.61h-49.369c-15.632,0-28.305-12.673-28.305-28.305
	S110.206,223.99,125.838,223.99z"/>
<path style="fill:#884130;" d="M386.16,223.99h-49.369v56.61h49.369c15.632,0,28.305-12.673,28.305-28.305
	S401.792,223.99,386.16,223.99z"/>
<path style="fill:#B45F4A;" d="M255.999,342.79L255.999,342.79c-61.919,0-112.115-50.195-112.115-112.115V117.281h224.229v113.394
	C368.114,292.595,317.918,342.79,255.999,342.79z"/>
<path style="fill:#A1513D;" d="M344.78,117.281v125.062c0,53.578-41.949,97.354-94.795,100.286c1.992,0.105,3.996,0.161,6.014,0.161
	l0,0c61.919,0,112.115-50.195,112.115-112.115V117.281H344.78z"/>
<g>
	<path style="fill:#19303F;" d="M310.322,232.962c-4.143,0-7.5-3.358-7.5-7.5v-2c0-4.142,3.357-7.5,7.5-7.5s7.5,3.358,7.5,7.5v2
		C317.822,229.605,314.465,232.962,310.322,232.962z"/>
	<path style="fill:#19303F;" d="M201.676,232.962c-4.143,0-7.5-3.358-7.5-7.5v-2c0-4.142,3.357-7.5,7.5-7.5s7.5,3.358,7.5,7.5v2
		C209.176,229.605,205.818,232.962,201.676,232.962z"/>
	<path style="fill:#19303F;" d="M255.999,288.484c-13.493,0-26.142-6.631-33.833-17.739c-2.358-3.405-1.509-8.077,1.896-10.435
		c3.403-2.358,8.078-1.509,10.435,1.896c4.891,7.063,12.928,11.279,21.501,11.279c8.573,0,16.61-4.216,21.501-11.279
		c2.358-3.405,7.029-4.254,10.435-1.896c3.405,2.358,4.255,7.03,1.897,10.435C282.141,281.853,269.492,288.484,255.999,288.484z"/>
</g>
<path style="fill:#2E93CC;" d="M383.26,148.561c-0.883-2.383-2.912-4.158-5.392-4.714c-80.867-18.137-162.871-18.137-243.738,0
	c-2.48,0.556-4.509,2.331-5.392,4.714c-0.883,2.383-0.498,5.051,1.021,7.088l32.354,43.38c2.272,3.049,6.472,3.915,9.768,2.008
	c21.192-12.261,51.853-19.293,84.118-19.293s62.926,7.032,84.118,19.293c1.178,0.682,2.471,1.009,3.751,1.009
	c2.3,0,4.556-1.057,6.017-3.017l32.354-43.38C383.758,153.613,384.143,150.945,383.26,148.561z"/>
<path style="fill:#49B6F2;" d="M413.797,97.375l-45-81.5c-1.128-2.043-3.144-3.445-5.451-3.792l-79.898-12
	C283.078,0.028,282.706,0,282.333,0h-52.667c-0.373,0-0.745,0.028-1.114,0.083l-79.899,12c-2.308,0.347-4.323,1.748-5.451,3.792
	l-45,81.5c-0.613,1.11-0.935,2.357-0.935,3.625v58c0,2.349,1.101,4.563,2.974,5.98c1.873,1.418,4.305,1.876,6.563,1.238
	c49.513-13.969,99.709-21.052,149.196-21.052s99.684,7.083,149.196,21.052c0.67,0.189,1.355,0.282,2.036,0.282
	c1.615,0,3.209-0.523,4.526-1.52c1.873-1.417,2.974-3.631,2.974-5.98v-58C414.731,99.732,414.41,98.485,413.797,97.375z"/>
<path style="fill:#2E93CC;" d="M413.797,97.375l-45-81.5c-1.128-2.043-3.144-3.445-5.451-3.792l-25.224-3.788
	c0.455,0.478,0.859,1.011,1.185,1.602l46.786,84.735c0.638,1.154,0.972,2.451,0.972,3.769v60.302c0,0.899-0.158,1.778-0.451,2.605
	c6.203,1.529,12.397,3.167,18.581,4.911c0.67,0.189,1.355,0.282,2.036,0.282c1.615,0,3.209-0.523,4.526-1.52
	c1.873-1.417,2.974-3.631,2.974-5.98v-58C414.731,99.732,414.41,98.485,413.797,97.375z"/>
<g>
	<path style="fill:#F0EEEE;" d="M255.999,452.5c-0.49,0-0.98-0.05-1.47-0.15c-0.471-0.09-0.95-0.24-1.4-0.42
		c-0.45-0.19-0.89-0.42-1.29-0.69c-0.41-0.28-0.8-0.59-1.14-0.94c-1.4-1.39-2.2-3.32-2.2-5.3c0-0.49,0.05-0.98,0.149-1.46
		c0.091-0.48,0.24-0.96,0.42-1.41c0.19-0.45,0.421-0.89,0.69-1.29c0.28-0.41,0.59-0.8,0.94-1.14c0.34-0.35,0.73-0.66,1.14-0.94
		c0.4-0.27,0.84-0.5,1.29-0.69c0.45-0.18,0.93-0.33,1.4-0.42c2.439-0.5,5.029,0.3,6.77,2.05c0.35,0.34,0.66,0.73,0.93,1.14
		c0.28,0.4,0.511,0.84,0.7,1.29c0.18,0.45,0.33,0.93,0.42,1.41c0.101,0.48,0.15,0.97,0.15,1.46c0,1.97-0.8,3.91-2.2,5.3
		C259.909,451.7,257.969,452.5,255.999,452.5z"/>
	<path style="fill:#F0EEEE;" d="M255.999,490.5c-0.49,0-0.98-0.05-1.47-0.15c-0.471-0.09-0.95-0.24-1.4-0.42
		c-0.45-0.19-0.89-0.42-1.29-0.69c-0.41-0.28-0.8-0.59-1.14-0.94c-0.351-0.34-0.66-0.73-0.94-1.14c-0.27-0.4-0.5-0.84-0.69-1.29
		c-0.18-0.45-0.329-0.93-0.42-1.4c-0.1-0.49-0.149-0.98-0.149-1.47s0.05-0.98,0.149-1.46c0.091-0.48,0.24-0.96,0.42-1.41
		c0.19-0.45,0.421-0.89,0.69-1.29c0.28-0.41,0.59-0.8,0.94-1.14c0.34-0.35,0.73-0.66,1.14-0.94c0.4-0.27,0.84-0.5,1.29-0.69
		c0.45-0.18,0.93-0.33,1.4-0.42c2.439-0.5,5.029,0.3,6.77,2.05c0.35,0.34,0.66,0.73,0.93,1.14c0.28,0.4,0.511,0.84,0.7,1.29
		c0.18,0.45,0.33,0.93,0.42,1.41c0.101,0.48,0.15,0.97,0.15,1.46c0,1.97-0.8,3.9-2.2,5.3C259.909,489.7,257.978,490.5,255.999,490.5
		z"/>
	<path style="fill:#F0EEEE;" d="M344.499,449.5h-30.818c-4.143,0-7.5-3.358-7.5-7.5s3.357-7.5,7.5-7.5h30.818
		c4.143,0,7.5,3.358,7.5,7.5S348.642,449.5,344.499,449.5z"/>
</g>
<g>
</g>
<g>
</g>
<g>
</g>
<g>
</g>
<g>
</g>
<g>
</g>
<g>
</g>
<g>
</g>
<g>
</g>
<g>
</g>
<g>
</g>
<g>
</g>
<g>
</g>
<g>
</g>
<g>
</g>
</svg>
