<?xml version="1.0" encoding="iso-8859-1"?>
<!-- Generator: Adobe Illustrator 19.0.0, SVG Export Plug-In . SVG Version: 6.00 Build 0)  -->
<svg version="1.1" id="Capa_1" xmlns="http://www.w3.org/2000/svg" xmlns:xlink="http://www.w3.org/1999/xlink" x="0px" y="0px"
	 viewBox="0 0 512 512" style="enable-background:new 0 0 512 512;" xml:space="preserve">
<path style="fill:#F0EEEE;" d="M306.092,378.5H205.909c-43.464,0-78.825,35.361-78.825,78.825V504.5c0,4.142,3.358,7.5,7.5,7.5
	h242.833c4.142,0,7.5-3.358,7.5-7.5v-47.175C384.917,413.861,349.556,378.5,306.092,378.5z"/>
<path style="fill:#D9D4D4;" d="M306.092,378.5h-24.75c43.464,0,78.825,35.361,78.825,78.825V504.5c0,4.142-3.358,7.5-7.5,7.5h24.75
	c4.142,0,7.5-3.358,7.5-7.5v-47.175C384.917,413.861,349.556,378.5,306.092,378.5z"/>
<path style="fill:#484655;" d="M188.668,482c-4.142,0-7.5-3.358-7.5-7.5v-58.522c0-4.142,3.358-7.5,7.5-7.5h54.658
	c4.142,0,7.5,3.358,7.5,7.5s-3.358,7.5-7.5,7.5h-47.158V474.5C196.168,478.642,192.81,482,188.668,482z"/>
<path style="fill:#FA9E3E;" d="M215.126,282.581v88.038c0,22.574,18.3,40.875,40.874,40.875l0,0c22.574,0,40.875-18.3,40.875-40.875
	v-88.038H215.126z"/>
<rect x="120.38" y="219.14" style="fill:#484655;" width="271.24" height="69.54"/>
<g>
	<path style="fill:#FA9E3E;" d="M129.617,252.468h47.937v54.967h-47.937c-15.179,0-27.484-12.305-27.484-27.484
		S114.438,252.468,129.617,252.468z"/>
	<path style="fill:#FA9E3E;" d="M382.384,252.468h-47.937v54.967h47.937c15.179,0,27.484-12.305,27.484-27.484
		S397.563,252.468,382.384,252.468z"/>
</g>
<path style="fill:#FFB56B;" d="M256,367.822L256,367.822c-60.123,0-108.862-48.739-108.862-108.862V148.855h217.724V258.96
	C364.862,319.082,316.123,367.822,256,367.822z"/>
<path style="fill:#EF9245;" d="M342.205,148.855v121.433c0,52.024-40.732,94.529-92.044,97.376c1.934,0.102,3.88,0.157,5.839,0.157
	l0,0c60.123,0,108.862-48.739,108.862-108.862V148.855H342.205z"/>
<g>
	<path style="fill:#19303F;" d="M308.748,262.398c-4.142,0-7.5-3.358-7.5-7.5v-2c0-4.142,3.358-7.5,7.5-7.5s7.5,3.358,7.5,7.5v2
		C316.248,259.04,312.891,262.398,308.748,262.398z"/>
	<path style="fill:#19303F;" d="M203.253,262.398c-4.142,0-7.5-3.358-7.5-7.5v-2c0-4.142,3.358-7.5,7.5-7.5s7.5,3.358,7.5,7.5v2
		C210.753,259.04,207.396,262.398,203.253,262.398z"/>
</g>
<path style="fill:#F0EEEE;" d="M430.833,81.86c0-36.908-35.681-66.936-79.54-66.936c-14.33,0-28.147,3.175-40.345,9.229
	C297.159,8.926,277.072,0,256,0s-41.159,8.926-54.949,24.154c-12.198-6.055-26.015-9.229-40.345-9.229
	c-43.858,0-79.54,30.027-79.54,66.936c0,22.962,13.935,44.184,36.706,56.422l-4.973,80.397c-0.25,4.043,2.756,7.555,6.79,7.931
	c45.225,4.216,90.768,6.324,136.311,6.324s91.086-2.108,136.31-6.324c4.034-0.376,7.04-3.887,6.79-7.931l-4.973-80.397
	C416.898,126.044,430.833,104.822,430.833,81.86z"/>
<path style="fill:#D9D4D4;" d="M430.833,81.86c0-36.908-35.681-66.936-79.54-66.936c-1.311,0-2.616,0.036-3.918,0.089
	C380.72,23.736,405,49.945,405,80.837c0,23.641-14.347,45.489-37.791,58.089l5.12,82.772c0.175,2.824-1.196,5.393-3.391,6.876
	c7.798-0.601,15.592-1.24,23.373-1.966c4.034-0.376,7.04-3.887,6.79-7.931l-4.973-80.397
	C416.898,126.044,430.833,104.822,430.833,81.86z"/>
<g>
	<path style="fill:#E11E1D;" d="M250.879,388.111l-35.813-19.725c-7.533-4.149-16.853-3.03-23.187,2.787l-14.596,13.4
		c-1.851,1.699-2.728,4.212-2.336,6.693c0.391,2.481,1.999,4.602,4.283,5.649l60.971,27.954c0.994,0.456,2.06,0.682,3.126,0.682
		c1.208,0,2.415-0.292,3.51-0.872c2.062-1.092,3.498-3.082,3.886-5.383l3.935-23.372
		C255.186,392.782,253.671,389.648,250.879,388.111z"/>
	<path style="fill:#E11E1D;" d="M334.719,384.574l-14.596-13.4c-6.335-5.817-15.654-6.938-23.187-2.788l-35.814,19.725
		c-2.792,1.538-4.307,4.671-3.778,7.814l3.935,23.372c0.388,2.301,1.824,4.29,3.886,5.383c1.096,0.581,2.302,0.872,3.51,0.872
		c1.065,0,2.132-0.226,3.126-0.682l60.971-27.954c2.284-1.047,3.892-3.168,4.283-5.649
		C337.447,388.786,336.569,386.273,334.719,384.574z"/>
</g>
<g>
	<path style="fill:#19303F;" d="M211.331,452.83c-0.49,0-0.98-0.05-1.46-0.14c-0.48-0.1-0.95-0.24-1.41-0.43
		c-0.45-0.19-0.88-0.42-1.29-0.69c-0.41-0.27-0.79-0.59-1.14-0.93c-0.34-0.35-0.66-0.73-0.93-1.14c-0.27-0.41-0.5-0.84-0.69-1.3
		c-0.19-0.45-0.33-0.92-0.43-1.4c-0.1-0.48-0.15-0.98-0.15-1.47c0-1.97,0.8-3.9,2.2-5.3c0.35-0.35,0.73-0.66,1.14-0.93
		s0.84-0.5,1.29-0.69c0.46-0.19,0.93-0.33,1.41-0.43c0.97-0.19,1.96-0.19,2.93,0c0.48,0.1,0.95,0.24,1.4,0.43s0.89,0.42,1.3,0.69
		s0.79,0.59,1.14,0.93c1.39,1.4,2.19,3.33,2.19,5.3c0,0.49-0.04,0.99-0.14,1.47s-0.24,0.95-0.43,1.4c-0.19,0.46-0.42,0.89-0.69,1.3
		c-0.27,0.41-0.59,0.79-0.93,1.14c-0.35,0.34-0.73,0.66-1.14,0.93s-0.85,0.5-1.3,0.69s-0.92,0.33-1.4,0.43
		C212.311,452.78,211.821,452.83,211.331,452.83z"/>
	<path style="fill:#19303F;" d="M211.331,484.83c-0.49,0-0.98-0.05-1.46-0.14c-0.48-0.1-0.95-0.24-1.41-0.43
		c-0.45-0.19-0.88-0.42-1.29-0.69c-0.41-0.27-0.79-0.59-1.14-0.93c-1.4-1.4-2.2-3.329-2.2-5.309c0-0.48,0.05-0.98,0.15-1.461
		c0.1-0.48,0.24-0.95,0.43-1.41c0.19-0.45,0.42-0.88,0.69-1.29s0.59-0.79,0.93-1.14c0.35-0.35,0.73-0.66,1.14-0.93
		s0.84-0.5,1.29-0.69c0.46-0.19,0.93-0.33,1.41-0.43c0.97-0.19,1.96-0.19,2.93,0c0.48,0.1,0.95,0.24,1.4,0.43s0.89,0.42,1.3,0.69
		s0.79,0.58,1.14,0.93c0.34,0.35,0.66,0.73,0.93,1.14c0.27,0.41,0.5,0.84,0.69,1.29c0.19,0.46,0.33,0.93,0.43,1.41
		c0.1,0.48,0.14,0.98,0.14,1.461c0,1.98-0.8,3.91-2.19,5.309c-0.35,0.34-0.73,0.66-1.14,0.93s-0.85,0.5-1.3,0.69
		s-0.92,0.33-1.4,0.43C212.311,484.78,211.821,484.83,211.331,484.83z"/>
	<path style="fill:#19303F;" d="M300.671,452.83c-1.98,0-3.91-0.8-5.31-2.191c-0.34-0.35-0.66-0.73-0.93-1.14s-0.5-0.85-0.69-1.3
		c-0.19-0.45-0.33-0.92-0.43-1.4c-0.09-0.49-0.14-0.98-0.14-1.47s0.05-0.98,0.14-1.461c0.1-0.48,0.24-0.95,0.43-1.4
		c0.19-0.46,0.42-0.89,0.69-1.3c0.27-0.41,0.59-0.79,0.93-1.14c1.4-1.4,3.33-2.2,5.31-2.2c1.97,0,3.91,0.8,5.3,2.2
		c0.35,0.35,0.66,0.73,0.93,1.14s0.5,0.84,0.69,1.3c0.19,0.45,0.33,0.92,0.43,1.4c0.1,0.48,0.15,0.97,0.15,1.461
		c0,0.49-0.05,0.98-0.15,1.47c-0.1,0.48-0.24,0.95-0.43,1.4c-0.19,0.45-0.42,0.89-0.69,1.3c-0.27,0.41-0.58,0.79-0.93,1.14
		C304.57,452.03,302.641,452.83,300.671,452.83z"/>
	<path style="fill:#19303F;" d="M300.671,484.83c-1.98,0-3.91-0.8-5.31-2.191c-0.34-0.35-0.66-0.73-0.93-1.14s-0.5-0.85-0.69-1.3
		c-0.19-0.45-0.33-0.92-0.43-1.4c-0.09-0.48-0.14-0.98-0.14-1.47c0-0.48,0.05-0.98,0.14-1.461c0.1-0.48,0.24-0.95,0.43-1.41
		c0.19-0.45,0.42-0.88,0.69-1.29s0.59-0.8,0.93-1.14c1.4-1.4,3.33-2.2,5.31-2.2c1.97,0,3.9,0.8,5.3,2.2
		c0.35,0.34,0.66,0.73,0.93,1.14s0.5,0.84,0.69,1.29c0.19,0.46,0.33,0.93,0.43,1.41s0.15,0.98,0.15,1.461
		c0,0.49-0.05,0.99-0.15,1.47s-0.24,0.95-0.43,1.4c-0.19,0.45-0.42,0.89-0.69,1.3c-0.27,0.41-0.58,0.79-0.93,1.14
		C304.57,484.03,302.641,484.83,300.671,484.83z"/>
</g>
<path style="fill:#484655;" d="M322.692,294.773c-2.23-1.556-5.161-1.669-7.504-0.289c-3.073,1.809-9.19,2.384-14.105,0.213
	c-3.312-1.463-5.336-3.847-6.015-7.086c-0.067-0.32-0.157-0.632-0.266-0.935c-3.226-11.049-13.398-18.714-24.947-18.714
	c-4.92,0-9.733,1.425-13.855,4.022c-4.122-2.597-8.935-4.022-13.855-4.022c-11.546,0-21.716,7.662-24.945,18.706
	c-0.111,0.306-0.201,0.621-0.269,0.943c-0.68,3.239-2.704,5.624-6.015,7.086c-4.915,2.171-11.031,1.596-14.105-0.213
	c-2.343-1.38-5.275-1.267-7.504,0.289c-2.23,1.555-3.348,4.268-2.862,6.942c1.744,9.609,9.234,21.493,22.037,26.382
	c9.677,3.696,25.728,4.554,47.518-12.027c14.273,10.861,26.083,14.24,35.253,14.24c4.829,0,8.926-0.937,12.265-2.212
	c12.803-4.889,20.293-16.773,22.037-26.382C326.04,299.04,324.922,296.328,322.692,294.773z"/>
<path style="fill:#FB403F;" d="M282.96,480.229l-8.431-81.574C273.665,390.3,266.68,384,258.281,384h-4.358
	c-8.474,0-15.626,6.618-16.285,15.066l-5.365,68.852c-0.162,2.084,0.553,4.141,1.972,5.676c1.419,1.534,3.415,2.407,5.505,2.407
	h15.847l15.544,11.103c1.299,0.928,2.827,1.397,4.36,1.397c1.299,0,2.601-0.337,3.77-1.017
	C281.82,486.001,283.263,483.162,282.96,480.229z"/>
<g>
</g>
<g>
</g>
<g>
</g>
<g>
</g>
<g>
</g>
<g>
</g>
<g>
</g>
<g>
</g>
<g>
</g>
<g>
</g>
<g>
</g>
<g>
</g>
<g>
</g>
<g>
</g>
<g>
</g>
</svg>
