<?xml version="1.0" encoding="iso-8859-1"?>
<!-- Generator: Adobe Illustrator 19.0.0, SVG Export Plug-In . SVG Version: 6.00 Build 0)  -->
<svg version="1.1" id="Capa_1" xmlns="http://www.w3.org/2000/svg" xmlns:xlink="http://www.w3.org/1999/xlink" x="0px" y="0px"
	 viewBox="0 0 512 512" style="enable-background:new 0 0 512 512;" xml:space="preserve">
<path style="fill:#F0EEEE;" d="M304.104,355.94H198.246c-45.69,0-82.863,37.173-82.863,82.864V504.5c0,4.142,3.358,7.5,7.5,7.5
	h256.586c4.142,0,7.5-3.358,7.5-7.5v-65.696C386.968,393.113,349.796,355.94,304.104,355.94z"/>
<path style="fill:#D9D4D4;" d="M304.104,355.94h-23.68c45.69,0,82.863,37.173,82.863,82.864V504.5c0,4.142-3.357,7.5-7.5,7.5h23.68
	c4.142,0,7.5-3.358,7.5-7.5v-65.696C386.968,393.113,349.796,355.94,304.104,355.94z"/>
<g>
	<path style="fill:#484655;" d="M257.848,501.077l-71.209-138.811c-1.59-3.1-5.104-4.697-8.489-3.854
		c-9.586,2.393-18.576,6.438-26.72,12.024c-2.039,1.399-3.258,3.712-3.258,6.185v89.711V504.5v7.5h7.5h33.678h61.825
		c2.613,0,5.038-1.36,6.4-3.59C258.937,506.18,259.042,503.402,257.848,501.077z"/>
	<path style="fill:#484655;" d="M350.921,370.437c-8.144-5.586-17.134-9.632-26.72-12.025c-3.38-0.841-6.898,0.753-8.489,3.853
		l-71.209,138.812c-1.193,2.325-1.09,5.103,0.273,7.333c1.362,2.229,3.787,3.59,6.4,3.59H313h33.678h7.5v-7.5v-38.168v-89.711
		C354.178,374.149,352.96,371.835,350.921,370.437z"/>
</g>
<path style="fill:#35343F;" d="M354.178,401.105v-24.484c0-2.204-0.973-4.278-2.628-5.694c-2.551-1.789-5.194-3.454-7.944-4.951
	c-0.037-0.02-0.074-0.039-0.111-0.059c-1.077-0.584-2.17-1.142-3.275-1.68c-0.182-0.088-0.365-0.174-0.547-0.261
	c-0.948-0.453-1.908-0.885-2.876-1.303c-0.317-0.136-0.634-0.271-0.953-0.403c-0.822-0.342-1.653-0.667-2.488-0.983
	c-0.45-0.17-0.9-0.341-1.354-0.503c-0.691-0.248-1.389-0.478-2.088-0.708c-0.583-0.191-1.165-0.386-1.754-0.564
	c-0.554-0.169-1.116-0.32-1.674-0.477c-0.716-0.201-1.43-0.407-2.153-0.588c-0.109-0.027-0.221-0.049-0.33-0.076
	c-3.318-0.731-6.73,0.854-8.29,3.894l-0.659,1.285C331.913,371.34,345.72,384.627,354.178,401.105z"/>
<path style="fill:#A04C22;" d="M389.36,248.828c28.587-29.548,27.797-105.546-7.716-157.839h-49.674V247.18L389.36,248.828z"/>
<g>
	<polygon style="fill:#FA9E3E;" points="293.276,363.076 293.276,267.723 209.073,267.723 209.073,363.076 251.175,387.667 	"/>
	<path style="fill:#FA9E3E;" d="M170.382,223.982v56.612h-49.371c-15.63,0-28.311-12.67-28.311-28.311
		c0-6.79,2.39-13.02,6.38-17.901c5.2-6.35,13.09-10.4,21.931-10.4L170.382,223.982L170.382,223.982z"/>
	<path style="fill:#FA9E3E;" d="M381.339,223.982h-49.37v56.612h49.37c15.632,0,28.306-12.673,28.306-28.306
		S396.973,223.982,381.339,223.982z"/>
</g>
<g>
	<path style="fill:#FFB56B;" d="M339.957,157.97v84.362c0,53.572-41.931,97.343-94.753,100.293h-0.04
		c-52.222-2.76-94.963-41.251-104.223-91.463c-1.24-6.64-1.88-13.49-1.88-20.491v-27.271c2.58-0.68,5.08-1.54,7.5-2.56
		c20.181-8.58,34.331-28.581,34.331-51.882c0-3.39-0.3-6.71-0.87-9.93c38.461,17.941,74.132,27.221,106.213,27.611
		c0.72,0.01,1.44,0.02,2.16,0.02C306.766,166.66,324.017,163.75,339.957,157.97z"/>
	<path style="fill:#FFB56B;" d="M180.023,139.029c0.57,3.22,0.87,6.54,0.87,9.93c0,23.301-14.15,43.301-34.331,51.882
		c-2.42,1.02-4.92,1.88-7.5,2.56v-8.93c43.721-11.57,31.321-68.482,31.321-68.482c2.37,1.21,4.72,2.37,7.05,3.51
		C178.563,132.559,179.433,135.749,180.023,139.029z"/>
	<path style="fill:#FFB56B;" d="M363.288,146.9v83.772c0,30.961-12.55,58.982-32.831,79.272
		c-20.291,20.291-48.321,32.841-79.282,32.841c-0.97,0-1.93-0.01-2.89-0.04h-0.13c-0.92-0.02-1.84-0.06-2.75-0.11
		c-0.07,0-0.13,0-0.2-0.01c52.822-2.95,94.753-46.721,94.753-100.293V157.97C348.077,155.02,355.858,151.33,363.288,146.9z"/>
</g>
<path style="fill:#EF9245;" d="M363.288,146.9v83.772c0,30.961-12.55,58.982-32.831,79.272
	c-20.291,20.291-48.321,32.841-79.282,32.841c-0.97,0-1.93-0.01-2.89-0.04h-0.13c-0.92-0.02-1.84-0.06-2.75-0.11
	c-0.07,0-0.13,0-0.2-0.01c52.822-2.95,94.753-46.721,94.753-100.293V157.97C348.077,155.02,355.858,151.33,363.288,146.9z"/>
<g>
	<path style="fill:#19303F;" d="M305.5,232.955c-4.142,0-7.5-3.358-7.5-7.5v-2c0-4.142,3.358-7.5,7.5-7.5c4.143,0,7.5,3.358,7.5,7.5
		v2C313,229.597,309.642,232.955,305.5,232.955z"/>
	<path style="fill:#19303F;" d="M196.85,232.955c-4.143,0-7.5-3.358-7.5-7.5v-2c0-4.142,3.357-7.5,7.5-7.5
		c4.143,0,7.5,3.358,7.5,7.5v2C204.35,229.597,200.993,232.955,196.85,232.955z"/>
	<path style="fill:#19303F;" d="M251.175,288.479c-13.493,0-26.143-6.631-33.834-17.74c-2.358-3.405-1.509-8.077,1.896-10.435
		c3.403-2.358,8.078-1.509,10.436,1.896c4.891,7.063,12.928,11.279,21.502,11.279s16.611-4.216,21.502-11.279
		c2.357-3.405,7.029-4.254,10.436-1.896c3.405,2.358,4.255,7.03,1.896,10.435C277.317,281.847,264.669,288.479,251.175,288.479z"/>
</g>
<path style="fill:#FB403F;" d="M308.666,359.951c-6.049-4.192-13.775-5.154-20.671-2.568l-33.136,12.425
	c-1.563,0.586-2.83,1.666-3.685,3.012c-0.855-1.347-2.122-2.426-3.685-3.012l-33.136-12.425c-6.893-2.585-14.62-1.624-20.671,2.568
	c-6.05,4.193-9.662,11.091-9.662,18.453v30.828c0,7.361,3.612,14.259,9.662,18.453c3.808,2.639,8.279,3.997,12.79,3.997
	c2.655,0,5.325-0.471,7.88-1.429l33.136-12.425c1.563-0.586,2.83-1.666,3.685-3.012c0.855,1.347,2.122,2.426,3.685,3.012
	l33.136,12.425c2.555,0.958,5.224,1.429,7.88,1.429c4.51-0.001,8.982-1.359,12.79-3.997c6.05-4.193,9.662-11.091,9.662-18.453
	v-30.828C318.329,371.042,314.716,364.144,308.666,359.951z"/>
<path style="fill:#C21C1C;" d="M251.175,360.483c-11.552,0-20.95,9.398-20.95,20.951v24.769c0,11.552,9.397,20.951,20.95,20.951
	c11.552,0,20.95-9.398,20.95-20.951v-24.769C272.125,369.881,262.727,360.483,251.175,360.483z"/>
<path style="fill:#BF612C;" d="M435.09,45.467c-2.86,17.211-20.591,68.532-67.742,98.913c-1.34,0.86-2.7,1.7-4.06,2.52
	c-7.43,4.43-15.21,8.12-23.331,11.07c-15.94,5.78-33.191,8.69-51.561,8.69c-0.72,0-1.44-0.01-2.16-0.02
	c-32.081-0.39-67.752-9.67-106.213-27.611c0.57,3.22,0.87,6.54,0.87,9.93c0,23.301-14.15,43.301-34.331,51.882
	c-2.42,1.02-4.92,1.88-7.5,2.56v20.581h-18.051c-8.84,0-16.73,4.05-21.931,10.4c-9.27-13.62-16.66-32.601-20.111-52.332
	c-0.81-4.55-1.4-9.14-1.75-13.72c-1.82-23.591,2.46-45.291,12.23-63.432c4.09-7.6,9.14-14.57,15.11-20.791
	c-5.11-14.18-2.12-30.741,8.44-45.381c9.92-13.74,25.821-24.961,44.781-31.591c21.251-7.44,46.021-9.1,71.642-4.8
	c51.081,8.58,136.674,5.35,157.075,0.13c3.14-0.8,6.43,0.5,8.18,3.23c8.86,13.85,9.54,29.341,6.88,41.231
	c11.45-3.86,20.271-7.97,22.391-9.19c2.51-1.45,5.63-1.32,8.01,0.34C434.35,39.726,435.56,42.607,435.09,45.467z"/>
<g>
	<path style="fill:#B25628;" d="M431.96,38.076c-2.38-1.66-5.5-1.79-8.01-0.34c-1.83,1.053-8.655,4.258-17.849,7.598
		c-0.007,0.044-0.005,0.088-0.012,0.132c-2.86,17.211-20.591,68.532-67.742,98.913c-1.34,0.86-2.7,1.7-4.06,2.52
		c-7.43,4.43-15.21,8.12-23.331,11.07c-11.731,4.254-24.174,6.947-37.248,8.076c4.233,0.342,8.411,0.544,12.527,0.594
		c0.72,0.01,1.44,0.02,2.16,0.02c18.371,0,35.621-2.91,51.561-8.69c8.12-2.95,15.9-6.64,23.331-11.07c1.36-0.82,2.72-1.66,4.06-2.52
		c47.151-30.381,64.882-81.702,67.742-98.913C435.56,42.607,434.35,39.726,431.96,38.076z"/>
	<path style="fill:#B25628;" d="M402.901,35.656c0.007-0.336,0.01-0.672,0.011-1.01c0.002-0.483-0.005-0.968-0.016-1.455
		c-0.006-0.26-0.008-0.518-0.018-0.778c-0.056-1.562-0.18-3.144-0.373-4.74c-0.008-0.062-0.011-0.124-0.019-0.186h-0.006
		c-0.901-7.226-3.279-14.72-7.802-21.791c-1.75-2.73-5.04-4.03-8.18-3.23c-4.353,1.114-11.686,2.137-21.013,2.974
		c0.062,0.088,0.135,0.164,0.194,0.255c8.86,13.85,9.54,29.341,6.88,41.231c0,0-0.183,1.183-0.431,2.704
		c-0.345,2.12,1.471,3.98,3.594,3.655c5.883-0.901,15.964-3.118,25.838-6.359c0.627-2.801,1.06-5.806,1.25-8.939l0.001,0.001
		c0.001-0.016,0.001-0.031,0.002-0.047c0.023-0.375,0.035-0.754,0.051-1.133C402.879,36.425,402.893,36.042,402.901,35.656z"/>
</g>
<g>
</g>
<g>
</g>
<g>
</g>
<g>
</g>
<g>
</g>
<g>
</g>
<g>
</g>
<g>
</g>
<g>
</g>
<g>
</g>
<g>
</g>
<g>
</g>
<g>
</g>
<g>
</g>
<g>
</g>
</svg>
