<?xml version="1.0" encoding="iso-8859-1"?>
<!-- Generator: Adobe Illustrator 19.0.0, SVG Export Plug-In . SVG Version: 6.00 Build 0)  -->
<svg version="1.1" id="Capa_1" xmlns="http://www.w3.org/2000/svg" xmlns:xlink="http://www.w3.org/1999/xlink" x="0px" y="0px"
	 viewBox="0 0 512 512" style="enable-background:new 0 0 512 512;" xml:space="preserve">
<path style="fill:#2D6CCF;" d="M428.065,27.926c-3.596-2.162-7.954-2.283-11.659-0.317c-13.839,7.343-29.892,11.224-46.421,11.224
	c-30.706,0-59.272-13.647-74.55-35.616C294.033,1.202,291.732,0,289.277,0h-66.555c-2.455,0-4.756,1.202-6.157,3.218
	c-15.277,21.969-43.844,35.616-74.55,35.616c-16.529,0-32.582-3.881-46.421-11.224c-3.701-1.964-8.061-1.847-11.659,0.317
	c-3.612,2.172-5.769,5.984-5.769,10.197v61.679c0,47.871,38.945,86.816,86.815,86.816h182.035c47.87,0,86.815-38.945,86.815-86.816
	V38.124C433.833,33.911,431.677,30.099,428.065,27.926z"/>
<path style="fill:#2159AA;" d="M428.065,27.926c-3.596-2.162-7.954-2.283-11.659-0.317c-3.551,1.884-7.249,3.536-11.062,4.957
	c0.886,1.679,1.381,3.569,1.381,5.557v61.679c0,47.871-38.945,86.816-86.815,86.816h27.109c47.87,0,86.815-38.945,86.815-86.816
	V38.124C433.833,33.911,431.677,30.099,428.065,27.926z"/>
<path style="fill:#825939;" d="M113,132.455c0-12.671,10.272-22.943,22.943-22.943h240.113c12.671,0,22.943,10.272,22.943,22.943
	v139.271H113V132.455z"/>
<path style="fill:#F0EEEE;" d="M203.073,363.444h105.855c41.621,0,75.362,33.741,75.362,75.362V504.5H127.711v-65.694
	C127.711,397.184,161.452,363.444,203.073,363.444z"/>
<path style="fill:#2D6CCF;" d="M308.928,355.944H203.072c-45.689,0-82.861,37.172-82.861,82.862V504.5c0,4.142,3.357,7.5,7.5,7.5
	h256.578c4.143,0,7.5-3.358,7.5-7.5v-65.694C391.789,393.116,354.617,355.944,308.928,355.944z"/>
<path style="fill:#2159AA;" d="M308.928,355.944h-25.006c45.689,0,82.861,37.172,82.861,82.862V504.5c0,4.142-3.357,7.5-7.5,7.5
	h25.007c4.143,0,7.5-3.358,7.5-7.5v-65.694C391.789,393.116,354.617,355.944,308.928,355.944z"/>
<path style="fill:#3D5868;" d="M286.773,512l-11.458-68.75c-0.539-3.234-2.529-5.851-5.178-6.808
	c-2.647-0.956-5.524-0.101-7.482,2.231L256,446.599l-6.655-7.925c-1.956-2.332-4.833-3.188-7.481-2.231
	c-2.648,0.958-4.639,3.575-5.178,6.808L225.227,512H286.773z"/>
<path style="fill:#2A434F;" d="M286.481,432.068c-0.129-2.143-1.17-4.126-2.859-5.451l-22.995-18.027
	c-2.717-2.13-6.537-2.13-9.254,0l-22.995,18.027c-1.689,1.324-2.73,3.309-2.859,5.451c-0.129,2.143,0.665,4.237,2.183,5.755
	l22.995,22.995c1.465,1.464,3.385,2.197,5.304,2.197s3.839-0.732,5.304-2.197l22.995-22.995
	C285.816,436.306,286.61,434.21,286.481,432.068z"/>
<path style="fill:#4A89E5;" d="M314.999,350.699l-19.34-9.878c-3.625-1.854-8.069-0.471-10.008,3.11L256,398.732l-29.651-54.802
	c-1.939-3.582-6.383-4.964-10.008-3.11L197,350.699c-13.068,6.676-18.519,22.358-12.407,35.701l27.589,60.224
	c0.956,2.088,2.817,3.623,5.049,4.165c0.585,0.142,1.179,0.212,1.77,0.212c1.661,0,3.294-0.552,4.627-1.598L256,424.023
	l32.373,25.379c1.333,1.046,2.966,1.598,4.627,1.598c0.591,0,1.185-0.07,1.77-0.212c2.232-0.542,4.093-2.076,5.049-4.165
	l27.589-60.224C333.519,373.057,328.068,357.376,314.999,350.699z"/>
<g>
	<path style="fill:#FA9E3E;" d="M213.904,281.729v90.668c0,23.249,18.847,42.096,42.096,42.096l0,0
		c23.249,0,42.096-18.847,42.096-42.096v-90.668H213.904z"/>
	<path style="fill:#FA9E3E;" d="M125.839,237.99h49.369v56.61h-49.369c-15.632,0-28.305-12.673-28.305-28.305
		C97.534,250.662,110.207,237.99,125.839,237.99z"/>
	<path style="fill:#FA9E3E;" d="M386.161,237.99h-49.369v56.61h49.369c15.632,0,28.305-12.673,28.305-28.305
		C414.466,250.662,401.793,237.99,386.161,237.99z"/>
</g>
<path style="fill:#FFB56B;" d="M368.115,244.675c0,61.919-50.195,112.115-112.115,112.115l0,0
	c-61.919,0-112.115-50.195-112.115-112.115V137.792h224.229L368.115,244.675L368.115,244.675z"/>
<path style="fill:#19303F;" d="M256,303.392c-11.831,0-22.921-5.815-29.666-15.554c-2.358-3.405-1.509-8.078,1.896-10.436
	c3.403-2.358,8.077-1.509,10.436,1.896c3.943,5.694,10.423,9.094,17.334,9.094c6.911,0,13.391-3.399,17.334-9.094
	c2.357-3.405,7.031-4.254,10.435-1.896c3.405,2.358,4.255,7.031,1.896,10.436C278.921,297.578,267.831,303.392,256,303.392z"/>
<path style="fill:#EF9245;" d="M344.781,137.792v118.551c0,53.578-41.949,97.354-94.795,100.286
	c1.992,0.105,3.996,0.161,6.014,0.161l0,0c61.919,0,112.115-50.195,112.115-112.115V137.792H344.781z"/>
<g>
	<path style="fill:#5880A2;" d="M375.629,232.118c0,25.929-21.02,46.948-46.948,46.948l0,0c-25.929,0-46.948-21.019-46.948-46.948
		v-20.601h93.897v20.601H375.629z"/>
	<path style="fill:#5880A2;" d="M183.32,279.066L183.32,279.066c-25.929,0-46.948-21.019-46.948-46.948v-20.601h93.897v20.601
		C230.268,258.046,209.248,279.066,183.32,279.066z"/>
</g>
<path style="fill:#19303F;" d="M375.629,204.016h-93.897h-51.465h-93.896c-4.143,0-7.5,3.358-7.5,7.5v20.602
	c0,30.023,24.426,54.448,54.448,54.448c25.72,0,47.316-17.932,52.983-41.946h39.395c5.667,24.014,27.263,41.946,52.983,41.946
	c30.022,0,54.448-24.425,54.448-54.448v-20.602C383.129,207.374,379.772,204.016,375.629,204.016z M237.768,219.016h36.465v10.604
	h-36.465V219.016z M183.319,271.566c-21.752,0-39.448-17.696-39.448-39.448v-13.102h78.896v13.102
	C222.768,253.87,205.071,271.566,183.319,271.566z M368.129,232.118c0,21.752-17.696,39.448-39.448,39.448
	s-39.448-17.696-39.448-39.448v-13.102h78.897v13.102H368.129z"/>
<path style="fill:#2D6CCF;" d="M133.118,137.792c17.683,27.483,48.539,45.687,83.647,45.687h78.47
	c35.109,0,65.964-18.204,83.647-45.687H133.118z"/>
<path style="fill:#FFB700;" d="M376.057,102.012H135.943c-16.786,0-30.443,13.657-30.443,30.443v5.336c0,4.142,3.357,7.5,7.5,7.5
	h286c4.143,0,7.5-3.358,7.5-7.5v-5.336C406.5,115.669,392.843,102.012,376.057,102.012z"/>
<path style="fill:#D69400;" d="M297.115,55.567c-0.637-3.49-3.754-5.976-7.296-5.815c-0.493,0.022-0.988,0.039-1.488,0.039
	c-10.603,0-20.308-4.899-26.627-13.441c-1.338-1.808-3.454-2.875-5.704-2.875c-2.249,0-4.366,1.067-5.704,2.875
	c-6.319,8.542-16.024,13.441-26.627,13.441c-0.5,0-0.995-0.017-1.488-0.039c-3.543-0.16-6.66,2.325-7.296,5.815
	c-0.651,3.567-0.981,7.194-0.981,10.778c0,25.222,15.959,47.861,39.712,56.335c0.771,0.275,1.578,0.413,2.384,0.413
	s1.613-0.138,2.384-0.413c23.753-8.474,39.712-31.113,39.712-56.335C298.096,62.761,297.766,59.135,297.115,55.567z"/>
<g>
</g>
<g>
</g>
<g>
</g>
<g>
</g>
<g>
</g>
<g>
</g>
<g>
</g>
<g>
</g>
<g>
</g>
<g>
</g>
<g>
</g>
<g>
</g>
<g>
</g>
<g>
</g>
<g>
</g>
</svg>
