<?xml version="1.0" encoding="iso-8859-1"?>
<!-- Generator: Adobe Illustrator 19.0.0, SVG Export Plug-In . SVG Version: 6.00 Build 0)  -->
<svg version="1.1" id="Capa_1" xmlns="http://www.w3.org/2000/svg" xmlns:xlink="http://www.w3.org/1999/xlink" x="0px" y="0px"
	 viewBox="0 0 512 512" style="enable-background:new 0 0 512 512;" xml:space="preserve">
<path style="fill:#FA8500;" d="M404.117,88.699c-0.265-18.005-15.13-32.652-33.137-32.652h-3.294L355.93,38.194
	C340.182,14.278,313.684,0,285.048,0h-89.076c-23.279,0-45.23,8.998-61.812,25.337c-16.582,16.338-25.902,38.155-26.246,61.447
	l-3.06,241.485c-0.181,12.251,4.455,23.804,13.055,32.531c8.599,8.728,20.083,13.534,32.335,13.534h211.512
	c12.252,0,23.735-4.806,32.335-13.533c8.599-8.727,13.236-20.28,13.056-32.515L404.117,88.699z"/>
<path style="fill:#CE6A06;" d="M404.117,88.699c-0.265-18.005-15.13-32.652-33.137-32.652h-3.294L355.93,38.194
	C340.182,14.278,313.684,0,285.048,0h-22.863c28.635,0,55.133,14.278,70.882,38.194l11.756,17.853h3.294
	c18.006,0,32.872,14.647,33.137,32.652l3.029,239.586c0.18,12.235-4.457,23.788-13.056,32.515
	c-8.6,8.727-20.083,13.533-32.335,13.533h22.862c12.252,0,23.735-4.806,32.335-13.533c8.599-8.727,13.236-20.28,13.056-32.515
	L404.117,88.699z"/>
<path style="fill:#F0EEEE;" d="M203.073,363.444h105.855c41.621,0,75.362,33.741,75.362,75.362V504.5H127.711v-65.694
	C127.711,397.184,161.452,363.444,203.073,363.444z"/>
<path style="fill:#EF9AD3;" d="M308.927,355.944H203.073c-45.69,0-82.862,37.172-82.862,82.862V504.5c0,4.142,3.358,7.5,7.5,7.5
	h256.578c4.142,0,7.5-3.358,7.5-7.5v-65.694C391.789,393.116,354.617,355.944,308.927,355.944z"/>
<path style="fill:#D67ABC;" d="M308.927,355.944h-27.494c45.69,0,82.862,37.172,82.862,82.862V504.5c0,4.142-3.358,7.5-7.5,7.5
	h27.495c4.142,0,7.5-3.358,7.5-7.5v-65.694C391.789,393.116,354.617,355.944,308.927,355.944z"/>
<path style="fill:#F0EEEE;" d="M364.839,441.142l-29.333-96.009c-0.817-2.674-3.054-4.672-5.803-5.183l-37.685-7
	c-0.452-0.084-0.91-0.126-1.37-0.126H221.35c-0.46,0-0.918,0.042-1.37,0.126l-37.684,7c-2.749,0.511-4.986,2.508-5.803,5.183
	l-29.333,96.009c-0.952,3.115,0.216,6.487,2.889,8.348c2.673,1.86,6.242,1.783,8.832-0.192l30.444-23.211l64.179,22.651
	c1.615,0.57,3.377,0.57,4.992,0l64.179-22.651l30.444,23.211c1.341,1.022,2.943,1.536,4.548,1.536c1.496,0,2.994-0.446,4.284-1.344
	C364.624,447.629,365.791,444.257,364.839,441.142z"/>
<path style="fill:#884130;" d="M313.886,363.593c-1.641-0.088-3.291-0.149-4.959-0.149h-11.143c0.198-1.656,0.312-3.337,0.312-5.047
	v-90.668h-84.192v90.668c0,1.709,0.114,3.391,0.312,5.047h-11.143c-1.668,0-3.318,0.061-4.959,0.149
	c-5.036,24.401,4.575,75.787,57.886,94.907C309.312,439.38,318.922,387.993,313.886,363.593z"/>
<path style="fill:#A1513D;" d="M125.839,223.99h49.369v56.61h-49.369c-15.632,0-28.305-12.673-28.305-28.305
	S110.207,223.99,125.839,223.99z"/>
<path style="fill:#884130;" d="M386.161,223.99h-49.369v56.61h49.369c15.632,0,28.305-12.673,28.305-28.305
	S401.793,223.99,386.161,223.99z"/>
<path style="fill:#B45F4A;" d="M368.11,171.72v58.96c0,61.91-50.19,112.11-112.11,112.11s-112.11-50.2-112.11-112.11V166h122.15
	c30.25,0,56.11-18.79,66.53-45.34C353.32,128.33,368.11,148.3,368.11,171.72z"/>
<path style="fill:#19303F;" d="M256,288.484c-13.494,0-26.142-6.631-33.833-17.739c-2.358-3.405-1.509-8.078,1.897-10.435
	c3.405-2.358,8.077-1.51,10.435,1.896c4.89,7.062,12.928,11.278,21.501,11.278c8.573,0,16.61-4.216,21.5-11.278
	c2.358-3.406,7.029-4.254,10.436-1.896c3.405,2.358,4.254,7.03,1.896,10.435C282.142,281.853,269.494,288.484,256,288.484z"/>
<path style="fill:#A1513D;" d="M368.11,230.68v-58.96c0-18.496-9.229-34.834-23.329-44.667v115.29
	c0,53.578-41.949,97.353-94.794,100.286c0.001,0,0.003,0,0.004,0c0.978,0.052,1.96,0.091,2.945,0.118
	c0.017,0,0.034,0.001,0.051,0.002c1.001,0.027,2.004,0.041,3.011,0.041c0.001,0,0.001,0,0.002,0
	C317.92,342.79,368.11,292.59,368.11,230.68z"/>
<g>
	<path style="fill:#19303F;" d="M310.324,226.962c-4.142,0-7.5-3.358-7.5-7.5v-2c0-4.142,3.358-7.5,7.5-7.5s7.5,3.358,7.5,7.5v2
		C317.824,223.605,314.466,226.962,310.324,226.962z"/>
	<path style="fill:#19303F;" d="M201.676,226.962c-4.142,0-7.5-3.358-7.5-7.5v-2c0-4.142,3.358-7.5,7.5-7.5s7.5,3.358,7.5,7.5v2
		C209.176,223.605,205.818,226.962,201.676,226.962z"/>
</g>
<g>
	<path style="fill:#F0EEEE;" d="M256,489.5c-0.49,0-0.98-0.05-1.46-0.15c-0.48-0.09-0.96-0.24-1.41-0.42
		c-0.45-0.19-0.89-0.42-1.29-0.69c-0.41-0.28-0.8-0.59-1.14-0.94c-0.35-0.34-0.66-0.73-0.94-1.14c-0.27-0.4-0.5-0.84-0.69-1.29
		c-0.18-0.45-0.33-0.93-0.42-1.41c-0.1-0.48-0.15-0.97-0.15-1.46s0.05-0.98,0.15-1.46c0.09-0.48,0.24-0.96,0.42-1.41
		c0.19-0.45,0.42-0.89,0.69-1.29c0.28-0.41,0.59-0.8,0.94-1.14c0.34-0.35,0.73-0.66,1.14-0.94c0.4-0.27,0.84-0.5,1.29-0.69
		c0.45-0.18,0.93-0.33,1.41-0.42c0.96-0.2,1.96-0.2,2.93,0c0.47,0.09,0.95,0.24,1.4,0.42c0.45,0.19,0.89,0.42,1.29,0.69
		c0.41,0.28,0.8,0.59,1.14,0.94c0.35,0.34,0.66,0.73,0.94,1.14c0.27,0.4,0.5,0.84,0.68,1.29c0.19,0.45,0.34,0.93,0.43,1.41
		c0.1,0.48,0.15,0.97,0.15,1.46s-0.05,0.98-0.15,1.46c-0.09,0.48-0.24,0.96-0.43,1.41c-0.18,0.45-0.41,0.89-0.68,1.29
		c-0.28,0.41-0.59,0.8-0.94,1.14c-0.34,0.35-0.73,0.66-1.14,0.94c-0.4,0.27-0.84,0.5-1.29,0.69c-0.45,0.18-0.93,0.33-1.4,0.42
		C256.98,489.45,256.49,489.5,256,489.5z"/>
	<circle style="fill:#F0EEEE;" cx="387.04" cy="277.85" r="14.12"/>
	<circle style="fill:#F0EEEE;" cx="124.96" cy="277.85" r="14.12"/>
</g>
<g>
</g>
<g>
</g>
<g>
</g>
<g>
</g>
<g>
</g>
<g>
</g>
<g>
</g>
<g>
</g>
<g>
</g>
<g>
</g>
<g>
</g>
<g>
</g>
<g>
</g>
<g>
</g>
<g>
</g>
</svg>
