<?xml version="1.0" encoding="iso-8859-1"?>
<!-- Generator: Adobe Illustrator 19.0.0, SVG Export Plug-In . SVG Version: 6.00 Build 0)  -->
<svg version="1.1" id="Capa_1" xmlns="http://www.w3.org/2000/svg" xmlns:xlink="http://www.w3.org/1999/xlink" x="0px" y="0px"
	 viewBox="0 0 512 512" style="enable-background:new 0 0 512 512;" xml:space="preserve">
<path style="fill:#3D5868;" d="M273.92,0h-35.84C166.078,0,107.5,58.578,107.5,130.58V245c0,4.142,3.358,7.5,7.5,7.5h282
	c4.142,0,7.5-3.358,7.5-7.5V130.58C404.5,58.578,345.922,0,273.92,0z"/>
<path style="fill:#2A434F;" d="M273.92,0h-28.871c72.002,0,130.58,58.578,130.58,130.58V245c0,4.142-3.358,7.5-7.5,7.5H397
	c4.142,0,7.5-3.358,7.5-7.5V130.58C404.5,58.578,345.922,0,273.92,0z"/>
<path style="fill:#F0EEEE;" d="M203.073,363.444h105.855c41.621,0,75.362,33.741,75.362,75.362V504.5H127.711v-65.694
	C127.711,397.184,161.452,363.444,203.073,363.444z"/>
<path style="fill:#484655;" d="M339.929,361.95c-9.862-3.985-20.292-6.006-31-6.006H203.07c-10.708,0-21.138,2.021-30.995,6.004
	c-31.507,12.705-51.865,42.875-51.865,76.863V504.5c0,4.142,3.358,7.5,7.5,7.5h256.579c4.142,0,7.5-3.358,7.5-7.5v-65.688
	C391.789,404.823,371.431,374.653,339.929,361.95z"/>
<path style="fill:#35343F;" d="M339.929,361.95c-9.862-3.985-20.292-6.006-31-6.006h-26.72c10.708,0,21.138,2.021,31,6.006
	c31.501,12.703,51.86,42.873,51.86,76.861V504.5c0,4.142-3.358,7.5-7.5,7.5h26.72c4.142,0,7.5-3.358,7.5-7.5v-65.688
	C391.789,404.823,371.431,374.653,339.929,361.95z"/>
<path style="fill:#575663;" d="M351.971,395.413l-7.607-28.447c-0.609-2.276-2.251-4.133-4.435-5.016
	c-9.862-3.985-20.292-6.006-31-6.006h-50.95c-0.677,0-1.34,0.102-1.98,0.277c-0.64-0.176-1.303-0.277-1.98-0.277h-50.95
	c-10.708,0-21.138,2.021-31,6.006c-2.184,0.883-3.827,2.74-4.436,5.016l-7.606,28.447c-1.599,5.979,0.127,12.412,4.503,16.787
	l11.765,11.765l-0.94,1.416c-4.975,7.489-3.471,17.421,3.499,23.1l51.217,41.743c1.36,1.108,3.039,1.686,4.739,1.686
	c0.9,0,1.807-0.162,2.674-0.493c2.507-0.958,4.311-3.181,4.732-5.831l13.783-86.791l13.783,86.791
	c0.421,2.65,2.225,4.873,4.732,5.831c0.868,0.331,1.774,0.493,2.674,0.493c1.7,0,3.379-0.578,4.739-1.686l51.217-41.742
	c6.97-5.68,8.474-15.611,3.499-23.101l-0.94-1.416l11.764-11.765C351.843,407.826,353.569,401.394,351.971,395.413z"/>
<path style="fill:#F0EEEE;" d="M332.725,361.981c-1.009-1.955-2.825-3.368-4.968-3.866c-6.212-1.443-12.546-2.174-18.827-2.174
	H203.07c-6.28,0-12.614,0.732-18.827,2.174c-2.143,0.498-3.959,1.911-4.968,3.866s-1.108,4.254-0.273,6.289l57.13,139.08
	c1.156,2.814,3.896,4.65,6.938,4.65h25.86c3.042,0,5.782-1.837,6.938-4.65l57.13-139.08
	C333.833,366.235,333.734,363.936,332.725,361.981z"/>
<path style="fill:#3D5868;" d="M281.646,490.564l-8.3-58.36c-0.315-2.219-1.607-4.18-3.521-5.347s-4.249-1.417-6.365-0.682
	c-4.797,1.666-10.122,1.666-14.919,0c-2.116-0.735-4.452-0.484-6.365,0.682c-1.914,1.167-3.205,3.129-3.52,5.347l-8.3,58.36
	c-0.188,1.322-0.02,2.67,0.488,3.906l5.29,12.88c1.155,2.814,3.896,4.65,6.938,4.65h25.86c3.042,0,5.782-1.837,6.938-4.65
	l5.29-12.88C281.665,493.234,281.833,491.886,281.646,490.564z"/>
<path style="fill:#2A434F;" d="M292.026,392.644c-0.802-2.439-2.796-4.297-5.285-4.927c-2.488-0.629-5.126,0.058-6.992,1.82
	c-6.452,6.098-14.886,9.457-23.75,9.457s-17.298-3.358-23.75-9.457c-1.865-1.763-4.501-2.45-6.992-1.82
	c-2.488,0.63-4.482,2.489-5.284,4.927c-1.261,3.833-1.9,7.823-1.9,11.856c0,20.913,17.014,37.927,37.927,37.927
	s37.927-17.014,37.927-37.927C293.927,400.466,293.287,396.477,292.026,392.644z"/>
<g>
	<path style="fill:#D9D4D4;" d="M326.06,365.42l-26.51,64.54L256,400.49v-37.05h52.93C314.82,363.44,320.55,364.14,326.06,365.42z"
		/>
	<path style="fill:#D9D4D4;" d="M256,363.44v37.05l-43.55,29.47l-26.51-64.54c5.51-1.28,11.24-1.98,17.13-1.98L256,363.44
		L256,363.44z"/>
	<path style="fill:#D9D4D4;" d="M299.55,437.46c-1.482,0-2.949-0.439-4.204-1.289l-43.55-29.47
		c-2.062-1.395-3.297-3.722-3.297-6.212v-37.05c0-4.142,3.358-7.5,7.5-7.5h52.93c6.28,0,12.614,0.732,18.827,2.174
		c2.143,0.497,3.959,1.911,4.968,3.866c1.009,1.955,1.108,4.254,0.272,6.289l-26.51,64.54c-0.857,2.088-2.61,3.679-4.771,4.331
		C301.006,437.355,300.276,437.46,299.55,437.46z M263.5,396.51l32.616,22.071l19.434-47.312c-2.208-0.219-4.418-0.329-6.619-0.329
		H263.5V396.51z"/>
	<path style="fill:#D9D4D4;" d="M212.45,437.46c-0.726,0-1.456-0.105-2.166-0.32c-2.161-0.652-3.914-2.243-4.771-4.331l-26.51-64.54
		c-0.836-2.035-0.736-4.334,0.273-6.289c1.009-1.955,2.825-3.369,4.968-3.866c6.212-1.443,12.546-2.174,18.827-2.174H256
		c4.142,0,7.5,3.358,7.5,7.5v37.05c0,2.489-1.235,4.816-3.297,6.212l-43.55,29.47C215.399,437.021,213.932,437.46,212.45,437.46z
		 M196.451,371.269l19.434,47.312L248.5,396.51v-25.57h-45.43C200.869,370.94,198.659,371.05,196.451,371.269z"/>
</g>
<path style="fill:#884130;" d="M213.904,267.729v96.668c0,23.249,18.847,42.096,42.096,42.096l0,0
	c23.249,0,42.096-18.847,42.096-42.096v-96.668H213.904z"/>
<path style="fill:#A1513D;" d="M125.839,223.99h49.369v56.61h-49.369c-15.632,0-28.305-12.673-28.305-28.305
	S110.207,223.99,125.839,223.99z"/>
<path style="fill:#884130;" d="M386.161,223.99h-49.369v56.61h49.369c15.632,0,28.305-12.673,28.305-28.305
	S401.793,223.99,386.161,223.99z"/>
<path style="fill:#B45F4A;" d="M368.11,155.45v75.23c0,61.91-50.19,112.11-112.11,112.11s-112.11-50.2-112.11-112.11v-56.77
	c22.57-6,40.15-24.25,45.2-47.2c29.86,26.43,69.11,42.49,112.12,42.49C324.97,169.2,347.59,164.3,368.11,155.45z"/>
<path style="fill:#19303F;" d="M256,288.484c-13.494,0-26.142-6.631-33.833-17.739c-2.358-3.405-1.509-8.078,1.896-10.435
	c3.405-2.358,8.078-1.51,10.436,1.896c4.89,7.062,12.928,11.278,21.501,11.278c8.573,0,16.61-4.216,21.5-11.278
	c2.358-3.406,7.029-4.254,10.436-1.896c3.405,2.358,4.254,7.03,1.896,10.435C282.142,281.853,269.494,288.484,256,288.484z"/>
<path style="fill:#A1513D;" d="M368.11,230.68v-75.23c-7.51,3.239-15.304,5.943-23.329,8.077v78.816
	c0,53.578-41.949,97.353-94.794,100.286c0.001,0,0.003,0,0.004,0c0.979,0.052,1.96,0.091,2.945,0.118
	c0.017,0,0.034,0.001,0.051,0.002c1.001,0.027,2.004,0.041,3.011,0.041c0.001,0,0.001,0,0.001,0
	C317.92,342.79,368.11,292.59,368.11,230.68z"/>
<g>
	<path style="fill:#19303F;" d="M310.324,226.962c-4.142,0-7.5-3.358-7.5-7.5v-2c0-4.142,3.358-7.5,7.5-7.5s7.5,3.358,7.5,7.5v2
		C317.824,223.605,314.466,226.962,310.324,226.962z"/>
	<path style="fill:#19303F;" d="M201.676,226.962c-4.142,0-7.5-3.358-7.5-7.5v-2c0-4.142,3.358-7.5,7.5-7.5s7.5,3.358,7.5,7.5v2
		C209.176,223.605,205.818,226.962,201.676,226.962z"/>
</g>
<g>
</g>
<g>
</g>
<g>
</g>
<g>
</g>
<g>
</g>
<g>
</g>
<g>
</g>
<g>
</g>
<g>
</g>
<g>
</g>
<g>
</g>
<g>
</g>
<g>
</g>
<g>
</g>
<g>
</g>
</svg>
