<?xml version="1.0" encoding="iso-8859-1"?>
<!-- Generator: Adobe Illustrator 19.0.0, SVG Export Plug-In . SVG Version: 6.00 Build 0)  -->
<svg version="1.1" id="Capa_1" xmlns="http://www.w3.org/2000/svg" xmlns:xlink="http://www.w3.org/1999/xlink" x="0px" y="0px"
	 viewBox="0 0 512 512" style="enable-background:new 0 0 512 512;" xml:space="preserve">
<path style="fill:#FB403F;" d="M287.057,19.428h-62.113c-59.796,0-108.443,48.648-108.443,108.443v71.76c0,4.142,3.357,7.5,7.5,7.5
	h264c4.143,0,7.5-3.358,7.5-7.5v-71.76C395.5,68.075,346.853,19.428,287.057,19.428z"/>
<path style="fill:#C21C1C;" d="M287.057,19.428h-26.466c59.796,0,108.443,48.648,108.443,108.443v71.76c0,4.142-3.357,7.5-7.5,7.5
	H388c4.143,0,7.5-3.358,7.5-7.5v-71.76C395.5,68.075,346.853,19.428,287.057,19.428z"/>
<path style="fill:#FFB700;" d="M256,152.333c31.159,0,60.528,3.722,86.353,10.296v-18.738c0-18.252-13.253-33.467-30.643-36.526
	V32.099c0-17.7-14.4-32.099-32.1-32.099h-47.22c-17.7,0-32.1,14.399-32.1,32.099v75.267c-17.39,3.059-30.642,18.273-30.642,36.526
	v18.738C195.472,156.056,224.841,152.333,256,152.333z"/>
<path style="fill:#FF6464;" d="M452.7,226.35c0-48.902-88.066-88.544-196.7-88.544S59.3,177.448,59.3,226.35v18.971h3.969
	C81.556,291.026,160.895,342.79,256,342.79s174.444-51.764,192.731-97.469h3.969V226.35z"/>
<path style="fill:#B71C1C;" d="M256,171.203c-108.634,0-196.7,33.184-196.7,74.118S147.366,342.79,256,342.79
	s196.7-56.535,196.7-97.469S364.634,171.203,256,171.203z"/>
<path style="fill:#F0EEEE;" d="M203.073,363.444h105.855c41.621,0,75.362,33.741,75.362,75.362V504.5H127.711v-65.694
	C127.711,397.184,161.452,363.444,203.073,363.444z"/>
<path style="fill:#FB403F;" d="M308.928,355.944H203.072c-45.689,0-82.861,37.172-82.861,82.862V504.5c0,4.142,3.357,7.5,7.5,7.5
	h256.578c4.143,0,7.5-3.358,7.5-7.5v-65.694C391.789,393.116,354.617,355.944,308.928,355.944z"/>
<path style="fill:#C21C1C;" d="M308.928,355.944h-28.667c45.689,0,82.861,37.172,82.861,82.862V504.5c0,4.142-3.357,7.5-7.5,7.5
	h28.667c4.143,0,7.5-3.358,7.5-7.5v-65.694C391.789,393.116,354.617,355.944,308.928,355.944z"/>
<path style="fill:#FFB700;" d="M336.792,465.486H175.208c-4.143,0-7.5-3.358-7.5-7.5s3.357-7.5,7.5-7.5h161.584
	c4.143,0,7.5,3.358,7.5,7.5S340.935,465.486,336.792,465.486z"/>
<path style="fill:#484655;" d="M337.48,407.025l-3.576-29.051C331.381,357.465,313.896,342,293.232,342h-33.889
	c-1.175,0-2.315,0.284-3.344,0.798c-1.029-0.513-2.169-0.798-3.344-0.798h-33.889c-20.663,0-38.148,15.465-40.672,35.973
	l-3.576,29.052c-1.179,9.578,3.459,18.884,11.816,23.708c3.699,2.136,7.847,3.204,11.995,3.204c4.149,0,8.299-1.068,11.999-3.206
	l41.546-23.991c2.114-1.221,3.502-3.396,3.72-5.828l0.404-4.528l0.404,4.528c0.218,2.433,1.605,4.607,3.72,5.828l41.546,23.991
	c3.701,2.137,7.85,3.206,11.999,3.206c4.147,0,8.296-1.068,11.995-3.204C334.022,425.909,338.659,416.603,337.48,407.025z"/>
<path style="fill:#884130;" d="M213.904,267.729v90.668c0,23.249,18.847,42.096,42.096,42.096l0,0
	c23.249,0,42.096-18.847,42.096-42.096v-90.668H213.904z"/>
<path style="fill:#A1513D;" d="M125.839,223.99h49.369v56.61h-49.369c-15.632,0-28.305-12.673-28.305-28.305
	S110.207,223.99,125.839,223.99z"/>
<path style="fill:#884130;" d="M386.161,223.99h-49.369v56.61h49.369c15.632,0,28.305-12.673,28.305-28.305
	S401.793,223.99,386.161,223.99z"/>
<path style="fill:#B45F4A;" d="M368.11,184.42v46.26c0,30.96-12.55,58.98-32.83,79.27c-20.29,20.29-48.32,32.84-79.28,32.84
	c-0.97,0-1.93-0.01-2.89-0.04h-0.13c-0.92-0.02-1.84-0.06-2.75-0.11c-0.07,0-0.13,0-0.2-0.01h-0.04
	c-59.13-3.12-106.1-52.06-106.1-111.95v-46.26c31.81-8.33,70.44-13.22,112.11-13.22c31.95,0,62.11,2.87,88.78,7.97
	C352.9,180.72,360.69,182.48,368.11,184.42z"/>
<path style="fill:#A1513D;" d="M368.11,184.42v46.26c0,30.96-12.55,58.98-32.83,79.27c-20.29,20.29-48.32,32.84-79.28,32.84
	c-0.97,0-1.93-0.01-2.89-0.04h-0.13c-0.92-0.02-1.84-0.06-2.75-0.11c-0.07,0-0.13,0-0.2-0.01c52.82-2.95,94.75-46.72,94.75-100.29
	v-63.17C352.9,180.72,360.69,182.48,368.11,184.42z"/>
<g>
	<path style="fill:#19303F;" d="M310.323,226.962c-4.143,0-7.5-3.358-7.5-7.5v-2c0-4.142,3.357-7.5,7.5-7.5s7.5,3.358,7.5,7.5v2
		C317.823,223.605,314.466,226.962,310.323,226.962z"/>
	<path style="fill:#19303F;" d="M201.677,226.962c-4.143,0-7.5-3.358-7.5-7.5v-2c0-4.142,3.357-7.5,7.5-7.5s7.5,3.358,7.5,7.5v2
		C209.177,223.605,205.819,226.962,201.677,226.962z"/>
	<path style="fill:#19303F;" d="M256,288.484c-13.493,0-26.142-6.631-33.833-17.739c-2.358-3.405-1.509-8.077,1.896-10.435
		c3.403-2.358,8.078-1.509,10.435,1.896c4.891,7.063,12.928,11.279,21.501,11.279c8.573,0,16.61-4.216,21.501-11.279
		c2.358-3.405,7.029-4.254,10.435-1.896c3.405,2.358,4.255,7.03,1.897,10.435C282.142,281.853,269.493,288.484,256,288.484z"/>
</g>
<path style="fill:#D69400;" d="M285.19,85.086l-23.886-23.885c-2.93-2.929-7.678-2.929-10.607,0l-23.886,23.885
	c-1.406,1.406-2.196,3.314-2.196,5.303s0.79,3.897,2.196,5.303l23.886,23.885c1.465,1.464,3.385,2.197,5.304,2.197
	c1.919,0,3.839-0.732,5.304-2.197l23.886-23.885c1.406-1.406,2.196-3.314,2.196-5.303C287.386,88.4,286.596,86.493,285.19,85.086z"
	/>
<g>
	<path style="fill:#19303F;" d="M267.25,441.472h-22.5c-4.143,0-7.5-3.358-7.5-7.5s3.357-7.5,7.5-7.5h22.5
		c4.143,0,7.5,3.358,7.5,7.5C274.75,438.114,271.393,441.472,267.25,441.472z"/>
	<path style="fill:#19303F;" d="M267.25,489.5h-22.5c-4.143,0-7.5-3.358-7.5-7.5s3.357-7.5,7.5-7.5h22.5c4.143,0,7.5,3.358,7.5,7.5
		S271.393,489.5,267.25,489.5z"/>
</g>
<g>
</g>
<g>
</g>
<g>
</g>
<g>
</g>
<g>
</g>
<g>
</g>
<g>
</g>
<g>
</g>
<g>
</g>
<g>
</g>
<g>
</g>
<g>
</g>
<g>
</g>
<g>
</g>
<g>
</g>
</svg>
